SplineFontDB: 3.0
FontName: Rokkitt
FullName: Rokkitt
FamilyName: Rokkitt
Weight: Book
Copyright: Copyright (c) 2011 by vernon adams. All rights reserved. with\nReserved Font Names "Tienne" and "Tienne Regular". This\nFont Software is licensed under the SIL Open Font License, Version\n1.1. This license is available with a FAQ at:\nhttp://scripts.sil.org/OFL
Version: 1.000
ItalicAngle: 0
UnderlinePosition: -103
UnderlineWidth: 102
Ascent: 1638
Descent: 410
sfntRevision: 0x00010000
LayerCount: 2
Layer: 0 1 "Back"  1
Layer: 1 1 "Fore"  0
NeedsXUIDChange: 1
XUID: [1021 14 500265001 16205424]
FSType: 256
OS2Version: 3
OS2_WeightWidthSlopeOnly: 0
OS2_UseTypoMetrics: 1
CreationTime: 1310985385
ModificationTime: 1311364030
PfmFamily: 17
TTFWeight: 400
TTFWidth: 5
LineGap: 0
VLineGap: 0
Panose: 2 0 5 3 5 0 0 2 0 3
OS2TypoAscent: 35
OS2TypoAOffset: 1
OS2TypoDescent: -247
OS2TypoDOffset: 1
OS2TypoLinegap: 0
OS2WinAscent: 117
OS2WinAOffset: 1
OS2WinDescent: 61
OS2WinDOffset: 1
HheadAscent: 117
HheadAOffset: 1
HheadDescent: -61
HheadDOffset: 1
OS2SubXSize: 2757
OS2SubYSize: 2546
OS2SubXOff: 0
OS2SubYOff: 356
OS2SupXSize: 2757
OS2SupYSize: 2546
OS2SupXOff: 0
OS2SupYOff: 1548
OS2StrikeYSize: 209
OS2StrikeYPos: 1049
OS2Vendor: 'newt'
OS2CodePages: 00000001.00000000
OS2UnicodeRanges: 800000ef.4000204b.00000000.00000000
MarkAttachClasses: 1
DEI: 91125
TtTable: prep
PUSHW_2
 2048
 2048
MUL
DUP
PUSHB_1
 10
SWAP
WS
DUP
PUSHB_1
 0
SWAP
WCVTF
PUSHB_1
 16
RCVT
DUP
DUP
PUSHB_1
 40
ADD
FLOOR
DUP
ROLL
NEQ
IF
PUSHB_1
 10
RS
MUL
SWAP
DIV
PUSHB_1
 9
SWAP
WS
PUSHB_4
 5
 6
 3
 2
CALL
PUSHB_4
 7
 12
 3
 2
CALL
PUSHB_4
 13
 18
 3
 2
CALL
ELSE
PUSHB_2
 9
 10
RS
WS
EIF
PUSHB_3
 11
 40
 2
RCVT
GT
WS
PUSHB_4
 7
 12
 4
 2
CALL
EndTTInstrs
TtTable: fpgm
PUSHB_1
 0
FDEF
DUP
ABS
PUSHB_1
 32
ADD
FLOOR
SWAP
PUSHB_1
 0
LT
IF
NEG
EIF
ENDF
PUSHB_1
 1
FDEF
DUP
ABS
DUP
PUSHB_1
 192
LT
PUSHB_1
 4
MINDEX
AND
PUSHB_1
 11
RS
OR
IF
POP
SWAP
POP
ELSE
ROLL
IF
DUP
PUSHB_1
 80
LT
IF
POP
PUSHB_1
 64
EIF
ELSE
DUP
PUSHB_1

StartChar: exclam
Encoding: 33 33 23
Width: 466
GlyphClass: 2
Flags: W
LayerCount: 2
Fore
SplineSet
147 821 m 1,0,-1
 147 1171 l 1,1,-1
 319 1171 l 1,2,-1
 319 821 l 1,3,-1
 277 324 l 1,4,-1
 189 324 l 1,5,-1
 147 821 l 1,0,-1
127 212 m 1,6,-1
 339 212 l 1,7,-1
 339 0 l 1,8,-1
 127 0 l 1,9,-1
 127 212 l 1,6,-1
EndSplineSet
EndChar

StartChar: quotedbl
Encoding: 34 34 24
Width: 665
GlyphClass: 2
Flags: W
LayerCount: 2
Fore
SplineSet
557 756 m 1,0,-1
 427 756 l 1,1,-1
 382 1171 l 1,2,-1
 599 1171 l 1,3,-1
 557 756 l 1,0,-1
234 756 m 1,4,-1
 104 756 l 1,5,-1
 59 1171 l 1,6,-1
 276 1171 l 1,7,-1
 234 756 l 1,4,-1
EndSplineSet
EndChar

StartChar: numbersign
Encoding: 35 35 25
Width: 1186
GlyphClass: 2
Flags: W
LayerCount: 2
Fore
SplineSet
236 0 m 1,0,-1
 268 333 l 1,1,-1
 90 333 l 1,2,-1
 102 442 l 1,3,-1
 284 442 l 1,4,-1
 317 733 l 1,5,-1
 110 733 l 1,6,-1
 122 844 l 1,7,-1
 333 844 l 1,8,-1
 367 1171 l 1,9,-1
 490 1171 l 1,10,-1
 456 844 l 1,11,-1
 781 844 l 1,12,-1
 819 1171 l 1,13,-1
 942 1171 l 1,14,-1
 905 844 l 1,15,-1
 1102 844 l 1,16,-1
 1090 733 l 1,17,-1
 889 733 l 1,18,-1
 860 442 l 1,19,-1
 1082 442 l 1,20,-1
 1070 333 l 1,21,-1
 844 333 l 1,22,-1
 809 0 l 1,23,-1
 688 0 l 1,24,-1
 719 333 l 1,25,-1
 392 333 l 1,26,-1
 357 0 l 1,27,-1
 236 0 l 1,0,-1
408 442 m 1,28,-1
 735 442 l 1,29,-1
 765 733 l 1,30,-1
 439 733 l 1,31,-1
 408 442 l 1,28,-1
EndSplineSet
EndChar

StartChar: dollar
Encoding: 36 36 26
Width: 940
GlyphClass: 2
Flags: W
LayerCount: 2
Fore
SplineSet
542 662 m 1,0,1
 910 584 910 584 910 306 c 0,2,3
 910 169 910 169 807 78 c 128,-1,4
 704 -13 704 -13 542 -17 c 1,5,-1
 542 -143 l 1,6,-1
 411 -143 l 1,7,-1
 411 -4 l 1,8,9
 312 18 312 18 231 87 c 1,10,-1
 231 0 l 1,11,-1
 96 0 l 1,12,-1
 96 387 l 1,13,-1
 231 387 l 1,14,-1
 231 271 l 1,15,16
 307 166 307 166 411 133 c 1,17,-1
 411 532 l 1,18,19
 258 566 258 566 183 630 c 0,20,21
 88 711 88 711 88 854.5 c 128,-1,22
 88 998 88 998 177.5 1078.5 c 128,-1,23
 267 1159 267 1159 411 1169 c 1,24,-1
 411 1305 l 1,25,-1
 542 1305 l 1,26,-1
 542 1161 l 1,27,28
 636 1138 636 1138 713 1079 c 1,29,-1
 713 1153 l 1,30,-1
 848 1153 l 1,31,-1
 848 826 l 1,32,-1
 713 826 l 1,33,-1
 713 908 l 1,34,35
 641 1007 641 1007 542 1027 c 1,36,-1
 542 662 l 1,0,1
730 233 m 0,37,38
 763 310 763 310 730 377 c 0,39,40
 715 408 715 408 678.5 439 c 128,-1,41
 642 470 642 470 542 499 c 1,42,-1
 542 117 l 1,43,44
 683 126 683 126 730 233 c 0,37,38
285 972.5 m 128,-1,46
 244 928 244 928 244 878 c 0,47,48
 244 797 244 797 287 758 c 128,-1,49
 330 719 330 719 411 695 c 1,50,-1
 411 1030 l 1,51,45
 326 1017 326 1017 285 972.5 c 128,-1,46
EndSplineSet
EndChar

StartChar: percent
Encoding: 37 37 27
Width: 1579
GlyphClass: 2
Flags: W
LayerCount: 2
Fore
SplineSet
586 863 m 256,0,1
 586 711 586 711 510 634 c 128,-1,2
 434 557 434 557 326 557 c 0,3,4
 152 557 152 557 88 723 c 0,5,6
 66 781 66 781 66 863 c 0,7,8
 66 1015 66 1015 142.5 1092.5 c 128,-1,9
 219 1170 219 1170 326 1170 c 0,10,11
 432 1170 432 1170 509 1092.5 c 128,-1,12
 586 1015 586 1015 586 863 c 256,0,1
447 863 m 0,13,14
 447 1018 447 1018 370 1054 c 0,15,16
 324 1075 324 1075 292 1060 c 0,17,18
 205 1018 205 1018 205 863 c 1,19,20
 206 710 206 710 282 671 c 0,21,22
 304 660 304 660 326 660 c 0,23,24
 376 660 376 660 411.5 710 c 128,-1,25
 447 760 447 760 447 863 c 0,13,14
1223 1196 m 1,26,-1
 1284 1146 l 1,27,-1
 341 -50 l 1,28,-1
 273 0 l 1,29,-1
 1223 1196 l 1,26,-1
1519 287 m 1,30,31
 1520 135 1520 135 1444 58 c 128,-1,32
 1368 -19 1368 -19 1259 -19 c 0,33,34
 1086 -19 1086 -19 1022 147 c 0,35,36
 1000 205 1000 205 999 287 c 0,37,38
 998 439 998 439 1074.5 516.5 c 128,-1,39
 1151 594 1151 594 1259 594 c 0,40,41
 1366 594 1366 594 1443 516.5 c 128,-1,42
 1520 439 1520 439 1519 287 c 1,30,31
1380 287 m 0,43,44
 1380 442 1380 442 1303 478 c 0,45,46
 1257 499 1257 499 1225 484 c 0,47,48
 1138 442 1138 442 1138 287 c 0,49,50
 1138 134 1138 134 1214 95 c 0,51,52
 1236 84 1236 84 1258 84 c 0,53,54
 1309 84 1309 84 1344.5 134 c 128,-1,55
 1380 184 1380 184 1380 287 c 0,43,44
EndSplineSet
EndChar

StartChar: ampersand
Encoding: 38 38 28
Width: 1201
GlyphClass: 2
Flags: W
LayerCount: 2
Fore
SplineSet
813 930 m 0,0,1
 813 728 813 728 566 621 c 1,2,-1
 806 332 l 1,3,4
 882 436 882 436 913 583 c 1,5,-1
 1143 583 l 1,6,-1
 1143 456 l 1,7,-1
 1014 456 l 1,8,9
 964 305 964 305 886 223 c 1,10,-1
 959 125 l 1,11,-1
 1143 125 l 1,12,-1
 1143 0 l 1,13,-1
 883 0 l 1,14,-1
 797 115 l 1,15,16
 630 -19 630 -19 456.5 -19 c 128,-1,17
 283 -19 283 -19 169.5 79.5 c 128,-1,18
 56 178 56 178 56 325 c 0,19,20
 56 559 56 559 362 670 c 1,21,22
 245 819 245 819 245 916 c 0,23,24
 245 1025 245 1025 329 1098 c 128,-1,25
 413 1171 413 1171 532 1171.5 c 128,-1,26
 651 1172 651 1172 732 1102.5 c 128,-1,27
 813 1033 813 1033 813 930 c 0,0,1
438 573 m 1,28,29
 210 493 210 493 210 335 c 0,30,31
 210 246 210 246 283 181 c 128,-1,32
 356 116 356 116 481.5 116 c 128,-1,33
 607 116 607 116 720 219 c 1,34,-1
 438 573 l 1,28,29
494 720 m 1,35,36
 588 769 588 769 633.5 817.5 c 128,-1,37
 679 866 679 866 679 926 c 128,-1,38
 679 986 679 986 637.5 1015.5 c 128,-1,39
 596 1045 596 1045 531.5 1045 c 128,-1,40
 467 1045 467 1045 426 1015 c 128,-1,41
 385 985 385 985 385 935.5 c 128,-1,42
 385 886 385 886 412.5 839 c 128,-1,43
 440 792 440 792 494 720 c 1,35,36
EndSplineSet
EndChar

StartChar: quotesingle
Encoding: 39 39 29
Width: 337
GlyphClass: 2
Flags: W
LayerCount: 2
Fore
SplineSet
242 756 m 1,0,-1
 112 756 l 1,1,-1
 67 1171 l 1,2,-1
 284 1171 l 1,3,-1
 242 756 l 1,0,-1
EndSplineSet
EndChar

StartChar: parenleft
Encoding: 40 40 30
Width: 522
GlyphClass: 2
Flags: W
LayerCount: 2
Fore
SplineSet
195 517 m 0,0,1
 195 162 195 162 476 -1 c 1,2,-1
 476 -132 l 1,3,4
 168 -6 168 -6 69 286 c 0,5,6
 34 390 34 390 34 518 c 0,7,8
 34 759 34 759 155 920.5 c 128,-1,9
 276 1082 276 1082 476 1165 c 1,10,-1
 476 1037 l 1,11,12
 195 869 195 869 195 517 c 0,0,1
EndSplineSet
EndChar

StartChar: parenright
Encoding: 41 41 31
Width: 522
GlyphClass: 2
Flags: W
LayerCount: 2
Fore
SplineSet
315 517 m 0,0,1
 315 869 315 869 34 1037 c 1,2,-1
 34 1165 l 1,3,4
 344 1036 344 1036 441 749 c 0,5,6
 476 646 476 646 476 518 c 0,7,8
 476 276 476 276 354 112.5 c 128,-1,9
 232 -51 232 -51 34 -132 c 1,10,-1
 34 -1 l 1,11,12
 315 162 315 162 315 517 c 0,0,1
EndSplineSet
EndChar

StartChar: asterisk
Encoding: 42 42 32
Width: 916
GlyphClass: 2
Flags: W
LayerCount: 2
Fore
SplineSet
282 351 m 1,0,-1
 141 450 l 1,1,-1
 237 582 l 1,2,-1
 411 729 l 1,3,-1
 183 743 l 1,4,-1
 32 797 l 1,5,-1
 82 960 l 1,6,-1
 237 909 l 1,7,-1
 437 783 l 1,8,-1
 379 1013 l 1,9,-1
 379 1171 l 1,10,-1
 548 1171 l 1,11,-1
 548 1013 l 1,12,-1
 488 783 l 1,13,-1
 688 909 l 1,14,-1
 844 960 l 1,15,-1
 894 797 l 1,16,-1
 744 743 l 1,17,-1
 515 729 l 1,18,-1
 688 582 l 1,19,-1
 783 450 l 1,20,-1
 644 351 l 1,21,-1
 548 483 l 1,22,-1
 463 698 l 1,23,-1
 379 483 l 1,24,-1
 282 351 l 1,0,-1
EndSplineSet
EndChar

StartChar: plus
Encoding: 43 43 33
Width: 1047
GlyphClass: 2
Flags: W
LayerCount: 2
Fore
SplineSet
585 602 m 1,0,-1
 990 602 l 1,1,-1
 990 485 l 1,2,-1
 585 485 l 1,3,-1
 585 93 l 1,4,-1
 461 93 l 1,5,-1
 461 485 l 1,6,-1
 57 485 l 1,7,-1
 57 602 l 1,8,-1
 461 602 l 1,9,-1
 461 994 l 1,10,-1
 585 994 l 1,11,-1
 585 602 l 1,0,-1
EndSplineSet
EndChar

StartChar: comma
Encoding: 44 44 34
Width: 414
GlyphClass: 2
Flags: W
LayerCount: 2
Fore
SplineSet
313 211 m 1,0,-1
 313 0 l 1,1,2
 314 -180 314 -180 194 -222 c 0,3,4
 150 -238 150 -238 86 -237 c 1,5,-1
 86 -150 l 1,6,7
 155 -136 155 -136 181 -103 c 128,-1,8
 207 -70 207 -70 207 0 c 1,9,-1
 86 0 l 1,10,-1
 86 211 l 1,11,-1
 313 211 l 1,0,-1
EndSplineSet
EndChar

StartChar: hyphen
Encoding: 45 45 35
Width: 719
GlyphClass: 2
Flags: W
LayerCount: 2
Fore
SplineSet
101 484 m 1,0,-1
 618 484 l 1,1,-1
 618 340 l 1,2,-1
 101 340 l 1,3,-1
 101 484 l 1,0,-1
EndSplineSet
EndChar

StartChar: period
Encoding: 46 46 36
Width: 414
GlyphClass: 2
Flags: W
LayerCount: 2
Fore
SplineSet
313 211 m 1,0,-1
 313 0 l 1,1,-1
 86 0 l 1,2,-1
 86 211 l 1,3,-1
 313 211 l 1,0,-1
EndSplineSet
EndChar

StartChar: slash
Encoding: 47 47 37
Width: 793
GlyphClass: 2
Flags: W
LayerCount: 2
Fore
SplineSet
563 1171 m 1,0,-1
 692 1171 l 1,1,-1
 258 -18 l 1,2,-1
 129 -18 l 1,3,-1
 563 1171 l 1,0,-1
EndSplineSet
EndChar

StartChar: zero
Encoding: 48 48 38
Width: 1004
GlyphClass: 2
Flags: W
LayerCount: 2
Fore
SplineSet
686 25 m 0,0,1
 608 -18 608 -18 502 -18 c 0,2,3
 296 -18 296 -18 191.5 141 c 128,-1,4
 87 300 87 300 87 577 c 0,5,6
 87 1001 87 1001 317 1128 c 0,7,8
 396 1171 396 1171 502 1171 c 0,9,10
 709 1171 709 1171 813 1012 c 128,-1,11
 917 853 917 853 917 577 c 0,12,13
 916 151 916 151 686 25 c 0,0,1
241 576 m 0,14,15
 241 222 241 222 377 134 c 0,16,17
 428 102 428 102 498 101 c 1,18,19
 638 101 638 101 701 214 c 128,-1,20
 764 327 764 327 763.5 575 c 128,-1,21
 763 823 763 823 700 937 c 128,-1,22
 637 1051 637 1051 501 1051 c 0,23,24
 295 1051 295 1051 254 774 c 0,25,26
 241 686 241 686 241 576 c 0,14,15
EndSplineSet
EndChar

StartChar: one
Encoding: 49 49 39
Width: 584
GlyphClass: 2
Flags: W
LayerCount: 2
Fore
SplineSet
534 116 m 1,0,-1
 534 0 l 1,1,-1
 65 0 l 1,2,-1
 65 116 l 1,3,-1
 231 116 l 1,4,-1
 231 1037 l 1,5,-1
 57 1037 l 1,6,-1
 57 1153 l 1,7,-1
 380 1153 l 1,8,-1
 380 116 l 1,9,-1
 534 116 l 1,0,-1
EndSplineSet
EndChar

StartChar: two
Encoding: 50 50 40
Width: 936
GlyphClass: 2
Flags: W
LayerCount: 2
Fore
SplineSet
62 0 m 1,0,1
 62 258 62 258 274 442 c 0,2,3
 319 481 319 481 407 545 c 0,4,5
 559 655 559 655 612.5 717.5 c 128,-1,6
 666 780 666 780 666 860 c 128,-1,7
 666 940 666 940 614 988.5 c 128,-1,8
 562 1037 562 1037 449 1037.5 c 128,-1,9
 336 1038 336 1038 287 970 c 128,-1,10
 238 902 238 902 239 744 c 1,11,-1
 95 744 l 1,12,13
 95 963 95 963 184.5 1067 c 128,-1,14
 274 1171 274 1171 462 1171 c 128,-1,15
 650 1171 650 1171 750 1067 c 0,16,17
 832 983 832 983 832 858 c 0,18,19
 832 695 832 695 670 561 c 0,20,21
 617 517 617 517 510.5 439.5 c 128,-1,22
 404 362 404 362 356 318 c 0,23,24
 248 217 248 217 228 116 c 1,25,-1
 700 116 l 1,26,-1
 700 378 l 1,27,-1
 827 378 l 1,28,-1
 827 0 l 1,29,-1
 62 0 l 1,0,1
EndSplineSet
EndChar

StartChar: three
Encoding: 51 51 41
Width: 953
GlyphClass: 2
Flags: W
LayerCount: 2
Fore
SplineSet
823 864 m 0,0,1
 823 658 823 658 628 602 c 1,2,3
 804 569 804 569 854 423 c 1,4,5
 896 305 896 305 840 186 c 0,6,7
 810 124 810 124 754 78 c 0,8,9
 638 -17 638 -17 449.5 -17.5 c 128,-1,10
 261 -18 261 -18 156 74.5 c 128,-1,11
 51 167 51 167 51 346 c 1,12,-1
 198 346 l 1,13,14
 208 234 208 234 271 175 c 128,-1,15
 334 116 334 116 443 116 c 0,16,17
 635 116 635 116 691 237 c 0,18,19
 708 274 708 274 708 328 c 0,20,21
 708 532 708 532 342 532 c 1,22,-1
 342 664 l 1,23,24
 520 664 520 664 573.5 691.5 c 128,-1,25
 627 719 627 719 648 759 c 0,26,27
 669 800 669 800 669 850 c 0,28,29
 669 938 669 938 608 988 c 128,-1,30
 547 1038 547 1038 439.5 1037.5 c 128,-1,31
 332 1037 332 1037 282.5 986 c 128,-1,32
 233 935 233 935 227 852 c 1,33,-1
 79 853 l 1,34,35
 88 1080 88 1080 292 1148 c 0,36,37
 360 1170 360 1170 448 1170 c 0,38,39
 623 1171 623 1171 723 1089.5 c 128,-1,40
 823 1008 823 1008 823 864 c 0,0,1
EndSplineSet
EndChar

StartChar: four
Encoding: 52 52 42
Width: 875
GlyphClass: 2
Flags: W
LayerCount: 2
Fore
SplineSet
774 116 m 1,0,-1
 774 0 l 1,1,-1
 319 0 l 1,2,-1
 319 116 l 1,3,-1
 483 116 l 1,4,-1
 483 315 l 1,5,-1
 24 315 l 1,6,-1
 24 436 l 1,7,-1
 487 1153 l 1,8,-1
 625 1153 l 1,9,-1
 625 436 l 1,10,-1
 815 436 l 1,11,-1
 815 315 l 1,12,-1
 625 315 l 1,13,-1
 625 116 l 1,14,-1
 774 116 l 1,0,-1
483 436 m 1,15,-1
 483 947 l 1,16,-1
 168 436 l 1,17,-1
 483 436 l 1,15,-1
EndSplineSet
EndChar

StartChar: five
Encoding: 53 53 43
Width: 947
GlyphClass: 2
Flags: W
LayerCount: 2
Fore
SplineSet
254 651 m 1,0,1
 335 764 335 764 502.5 764 c 128,-1,2
 670 764 670 764 772 652 c 128,-1,3
 874 540 874 540 873 368 c 128,-1,4
 872 196 872 196 770 89 c 128,-1,5
 668 -18 668 -18 484.5 -18 c 128,-1,6
 301 -18 301 -18 202.5 73 c 128,-1,7
 104 164 104 164 92 329 c 1,8,-1
 235 330 l 1,9,10
 254 224 254 224 314 166 c 0,11,12
 374 109 374 109 452 109 c 0,13,14
 589 109 589 109 651.5 179.5 c 128,-1,15
 714 250 714 250 713.5 369 c 128,-1,16
 713 488 713 488 648.5 556.5 c 128,-1,17
 584 625 584 625 485 625 c 0,18,19
 351 625 351 625 238 512 c 1,20,-1
 155 557 l 1,21,-1
 155 1153 l 1,22,-1
 800 1153 l 1,23,-1
 800 916 l 1,24,-1
 662 916 l 1,25,-1
 662 1037 l 1,26,-1
 283 1037 l 1,27,28
 275 943 275 943 268 844 c 128,-1,29
 261 745 261 745 254 651 c 1,0,1
EndSplineSet
EndChar

StartChar: six
Encoding: 54 54 44
Width: 947
GlyphClass: 2
Flags: W
LayerCount: 2
Fore
SplineSet
242 509 m 1,0,1
 256 315 256 315 314 215.5 c 128,-1,2
 372 116 372 116 487 116 c 128,-1,3
 602 116 602 116 662 184.5 c 128,-1,4
 722 253 722 253 722 362 c 0,5,6
 722 522 722 522 598 575 c 0,7,8
 558 592 558 592 519 592 c 0,9,10
 448 592 448 592 370.5 570 c 128,-1,11
 293 548 293 548 242 509 c 1,0,1
236 639 m 1,12,13
 338 723 338 723 508 722.5 c 128,-1,14
 678 722 678 722 772.5 622.5 c 128,-1,15
 867 523 867 523 867 362.5 c 128,-1,16
 867 202 867 202 768 92 c 128,-1,17
 669 -18 669 -18 498 -18 c 0,18,19
 194 -18 194 -18 112 322 c 0,20,21
 86 432 86 432 86 570 c 0,22,23
 85 852 85 852 189 1012 c 128,-1,24
 293 1172 293 1172 497 1171 c 0,25,26
 652 1171 652 1171 747.5 1081.5 c 128,-1,27
 843 992 843 992 847 848 c 1,28,-1
 710 848 l 1,29,30
 700 935 700 935 642.5 990 c 128,-1,31
 585 1045 585 1045 515 1045 c 0,32,33
 381 1045 381 1045 308 940 c 1,34,35
 236 834 236 834 236 639 c 1,12,13
EndSplineSet
EndChar

StartChar: seven
Encoding: 55 55 45
Width: 819
GlyphClass: 2
Flags: W
LayerCount: 2
Fore
SplineSet
632 0 m 1,0,-1
 121 0 l 1,1,-1
 121 116 l 1,2,-1
 293 116 l 1,3,4
 293 520 293 520 502 853 c 0,5,6
 566 955 566 955 641 1036 c 1,7,-1
 188 1036 l 1,8,-1
 188 860 l 1,9,-1
 51 860 l 1,10,-1
 51 1153 l 1,11,-1
 809 1153 l 1,12,-1
 809 1025 l 1,13,14
 539 752 539 752 471 358 c 0,15,16
 450 236 450 236 450 116 c 1,17,-1
 632 116 l 1,18,-1
 632 0 l 1,0,-1
EndSplineSet
EndChar

StartChar: eight
Encoding: 56 56 46
Width: 1007
GlyphClass: 2
Flags: W
LayerCount: 2
Fore
SplineSet
303 599 m 1,0,1
 109 672 109 672 109 867 c 0,2,3
 109 1002 109 1002 215 1086 c 128,-1,4
 321 1170 321 1170 499 1171 c 1,5,6
 677 1170 677 1170 783 1086 c 128,-1,7
 889 1002 889 1002 889 867 c 0,8,9
 889 773 889 773 857 724 c 0,10,11
 801 639 801 639 695 599 c 1,12,13
 810 569 810 569 866 493 c 0,14,15
 922 416 922 416 922 328 c 0,16,17
 922 165 922 165 805.5 73.5 c 128,-1,18
 689 -18 689 -18 499 -18 c 0,19,20
 308 -18 308 -18 192 73.5 c 128,-1,21
 76 165 76 165 76 315 c 0,22,23
 76 417 76 417 131.5 493 c 128,-1,24
 187 569 187 569 303 599 c 1,0,1
499 533 m 256,25,26
 370 533 370 533 305.5 477 c 128,-1,27
 241 421 241 421 241 326.5 c 128,-1,28
 241 232 241 232 312.5 174 c 128,-1,29
 384 116 384 116 499 116 c 256,30,31
 614 116 614 116 685.5 174 c 128,-1,32
 757 232 757 232 757 326.5 c 128,-1,33
 757 421 757 421 692.5 477 c 128,-1,34
 628 533 628 533 499 533 c 256,25,26
499 1037 m 256,35,36
 387 1037 387 1037 325 988 c 128,-1,37
 263 939 263 939 263.5 855.5 c 128,-1,38
 264 772 264 772 329.5 719 c 128,-1,39
 395 666 395 666 499 659 c 1,40,41
 660 668 660 668 717 778 c 0,42,43
 735 812 735 812 735 854 c 0,44,45
 735 939 735 939 673 988 c 128,-1,46
 611 1037 611 1037 499 1037 c 256,35,36
EndSplineSet
EndChar

StartChar: nine
Encoding: 57 57 47
Width: 949
GlyphClass: 2
Flags: W
LayerCount: 2
Fore
SplineSet
703 694 m 1,0,1
 678 953 678 953 558 1014 c 0,2,3
 514 1036 514 1036 455 1036 c 0,4,5
 343 1036 343 1036 283 968 c 128,-1,6
 223 900 223 900 223 791 c 0,7,8
 223 640 223 640 347 588 c 1,9,10
 444 549 444 549 569 601 c 0,11,12
 652 636 652 636 703 694 c 1,0,1
709 534 m 1,13,14
 605 430 605 430 436 430 c 128,-1,15
 267 430 267 430 172.5 529.5 c 128,-1,16
 78 629 78 629 78 791 c 128,-1,17
 78 953 78 953 176.5 1062 c 128,-1,18
 275 1171 275 1171 447 1171 c 0,19,20
 651 1171 651 1171 755.5 1019 c 128,-1,21
 860 867 860 867 860 582 c 0,22,23
 860 150 860 150 630 24 c 0,24,25
 552 -18 552 -18 461 -18 c 0,26,27
 293 -18 293 -18 197.5 71.5 c 128,-1,28
 102 161 102 161 98 305 c 1,29,-1
 235 305 l 1,30,31
 248 221 248 221 310 168 c 1,32,33
 395 121 395 121 442 116 c 1,34,35
 709 116 709 116 709 534 c 1,13,14
EndSplineSet
EndChar

StartChar: colon
Encoding: 58 58 48
Width: 414
GlyphClass: 2
Flags: W
LayerCount: 2
Fore
SplineSet
320 211 m 1,0,-1
 320 0 l 1,1,-1
 93 0 l 1,2,-1
 93 211 l 1,3,-1
 320 211 l 1,0,-1
320 820 m 1,4,-1
 320 609 l 1,5,-1
 93 609 l 1,6,-1
 93 820 l 1,7,-1
 320 820 l 1,4,-1
EndSplineSet
EndChar

StartChar: semicolon
Encoding: 59 59 49
Width: 414
GlyphClass: 2
Flags: W
LayerCount: 2
Fore
SplineSet
327 211 m 1,0,-1
 327 0 l 1,1,2
 328 -180 328 -180 208 -222 c 0,3,4
 164 -238 164 -238 100 -237 c 1,5,-1
 100 -150 l 1,6,7
 169 -136 169 -136 195 -103 c 128,-1,8
 221 -70 221 -70 221 0 c 1,9,-1
 100 0 l 1,10,-1
 100 211 l 1,11,-1
 327 211 l 1,0,-1
320 820 m 1,12,-1
 320 609 l 1,13,-1
 93 609 l 1,14,-1
 93 820 l 1,15,-1
 320 820 l 1,12,-1
EndSplineSet
EndChar

StartChar: less
Encoding: 60 60 50
Width: 1145
GlyphClass: 2
Flags: W
LayerCount: 2
Fore
SplineSet
133 696 m 1,0,-1
 133 768 l 1,1,-1
 1012 1241 l 1,2,-1
 1012 1104 l 1,3,-1
 324 731 l 1,4,-1
 1012 362 l 1,5,-1
 1012 225 l 1,6,-1
 133 696 l 1,0,-1
EndSplineSet
EndChar

StartChar: equal
Encoding: 61 61 51
Width: 1145
GlyphClass: 2
Flags: W
LayerCount: 2
Fore
SplineSet
1012 590 m 1,0,-1
 1012 469 l 1,1,-1
 133 469 l 1,2,-1
 133 590 l 1,3,-1
 1012 590 l 1,0,-1
1012 993 m 1,4,-1
 1012 872 l 1,5,-1
 133 872 l 1,6,-1
 133 993 l 1,7,-1
 1012 993 l 1,4,-1
EndSplineSet
EndChar

StartChar: greater
Encoding: 62 62 52
Width: 1145
GlyphClass: 2
Flags: W
LayerCount: 2
Fore
SplineSet
133 225 m 1,0,-1
 133 362 l 1,1,-1
 821 731 l 1,2,-1
 133 1104 l 1,3,-1
 133 1241 l 1,4,-1
 1012 768 l 1,5,-1
 1012 696 l 1,6,-1
 133 225 l 1,0,-1
EndSplineSet
EndChar

StartChar: question
Encoding: 63 63 53
Width: 796
GlyphClass: 2
Flags: W
LayerCount: 2
Fore
SplineSet
401 1050 m 0,0,1
 189 1050 189 1050 189 849 c 1,2,-1
 54 849 l 1,3,4
 54 1016 54 1016 153 1093.5 c 128,-1,5
 252 1171 252 1171 398 1170.5 c 128,-1,6
 544 1170 544 1170 641 1086 c 128,-1,7
 738 1002 738 1002 738 868 c 128,-1,8
 738 734 738 734 640 664 c 0,9,10
 612 644 612 644 582 624 c 0,11,12
 503 572 503 572 470 525 c 0,13,14
 416 450 416 450 408 323 c 1,15,-1
 313 323 l 1,16,17
 313 575 313 575 441 669 c 0,18,19
 475 694 475 694 500 711 c 0,20,21
 551 746 551 746 573.5 778.5 c 128,-1,22
 596 811 596 811 596 860 c 0,23,24
 597 947 597 947 540.5 998.5 c 128,-1,25
 484 1050 484 1050 401 1050 c 0,0,1
452 0 m 1,26,-1
 280 0 l 1,27,-1
 280 197 l 1,28,-1
 452 197 l 1,29,-1
 452 0 l 1,26,-1
EndSplineSet
EndChar

StartChar: at
Encoding: 64 64 54
Width: 1418
GlyphClass: 2
Flags: W
LayerCount: 2
Fore
SplineSet
941 295 m 2,0,1
 941 258 941 258 970 258 c 0,2,3
 1036 258 1036 258 1123 362 c 128,-1,4
 1210 466 1210 466 1210 637 c 128,-1,5
 1210 808 1210 808 1085 933 c 128,-1,6
 960 1058 960 1058 730 1058.5 c 128,-1,7
 500 1059 500 1059 344 897.5 c 128,-1,8
 188 736 188 736 187.5 492.5 c 128,-1,9
 187 249 187 249 336 108 c 128,-1,10
 485 -33 485 -33 734.5 -33 c 128,-1,11
 984 -33 984 -33 1133 81 c 1,12,-1
 1202 -3 l 1,13,14
 1020 -143 1020 -143 755 -143 c 0,15,16
 412 -143 412 -143 233 44 c 128,-1,17
 54 231 54 231 54 494.5 c 128,-1,18
 54 758 54 758 240 964.5 c 128,-1,19
 426 1171 426 1171 732 1171.5 c 128,-1,20
 1038 1172 1038 1172 1196 1002 c 0,21,22
 1335 853 1335 853 1335 644 c 128,-1,23
 1335 435 1335 435 1222 288 c 128,-1,24
 1109 141 1109 141 928 141 c 0,25,26
 889 141 889 141 861 169 c 128,-1,27
 833 197 833 197 826 263 c 1,28,29
 743 141 743 141 619.5 141 c 128,-1,30
 496 141 496 141 416 228 c 128,-1,31
 336 315 336 315 337 474.5 c 128,-1,32
 338 634 338 634 436.5 765.5 c 128,-1,33
 535 897 535 897 708 897 c 0,34,35
 815 897 815 897 875 825 c 0,36,37
 896 800 896 800 908 766 c 1,38,-1
 930 879 l 1,39,-1
 1066 879 l 1,40,-1
 956 369 l 2,41,42
 941 304 941 304 941 300 c 2,43,-1
 941 295 l 2,0,1
848 476.5 m 128,-1,45
 866 539 866 539 866 611.5 c 128,-1,46
 866 684 866 684 819.5 734 c 128,-1,47
 773 784 773 784 707 784 c 0,48,49
 595 784 595 784 534 683.5 c 128,-1,50
 473 583 473 583 473 450 c 128,-1,51
 473 317 473 317 565 267 c 0,52,53
 596 250 596 250 641 250 c 128,-1,54
 686 250 686 250 727.5 282 c 128,-1,55
 769 314 769 314 799.5 364 c 128,-1,44
 830 414 830 414 848 476.5 c 128,-1,45
EndSplineSet
EndChar

StartChar: A
Encoding: 65 65 55
Width: 1196
GlyphClass: 2
Flags: W
LayerCount: 2
Fore
SplineSet
-13 116 m 1,0,-1
 125 116 l 1,1,-1
 418 1037 l 1,2,-1
 318 1037 l 1,3,-1
 318 1153 l 1,4,-1
 878 1153 l 1,5,-1
 878 1037 l 1,6,-1
 777 1037 l 1,7,-1
 1071 116 l 1,8,-1
 1208 116 l 1,9,-1
 1208 0 l 1,10,-1
 755 0 l 1,11,-1
 755 116 l 1,12,-1
 905 116 l 1,13,-1
 820 424 l 1,14,-1
 375 424 l 1,15,-1
 291 116 l 1,16,-1
 440 116 l 1,17,-1
 440 0 l 1,18,-1
 -13 0 l 1,19,-1
 -13 116 l 1,0,-1
790 545 m 1,20,-1
 635 1037 l 1,21,-1
 561 1037 l 1,22,-1
 405 545 l 1,23,-1
 790 545 l 1,20,-1
EndSplineSet
EndChar

StartChar: B
Encoding: 66 66 56
Width: 1047
GlyphClass: 2
Flags: W
LayerCount: 2
Fore
SplineSet
66 0 m 1,0,-1
 66 116 l 1,1,-1
 214 116 l 1,2,-1
 214 1037 l 1,3,-1
 66 1037 l 1,4,-1
 66 1153 l 1,5,-1
 552 1153 l 1,6,7
 746 1152 746 1152 837 1068 c 128,-1,8
 928 984 928 984 927.5 854 c 128,-1,9
 927 724 927 724 830 646 c 0,10,11
 801 622 801 622 767 607 c 1,12,13
 916 558 916 558 966 422 c 0,14,15
 982 376 982 376 982 323 c 0,16,17
 982 196 982 196 896 110 c 1,18,19
 784 0 784 0 541 0 c 2,20,-1
 66 0 l 1,0,-1
540 116 m 2,21,22
 815 116 815 116 815 332 c 0,23,24
 815 469 815 469 674 515 c 0,25,26
 622 532 622 532 546 532 c 2,27,-1
 374 532 l 1,28,-1
 374 116 l 1,29,-1
 540 116 l 2,21,22
762 851 m 0,30,31
 762 1037 762 1037 513 1037 c 2,32,-1
 374 1037 l 1,33,-1
 374 661 l 1,34,-1
 537 661 l 1,35,36
 710 662 710 662 750 776 c 0,37,38
 762 810 762 810 762 851 c 0,30,31
EndSplineSet
EndChar

StartChar: C
Encoding: 67 67 57
Width: 1249
GlyphClass: 2
Flags: W
LayerCount: 2
Fore
SplineSet
630 116 m 0,0,1
 963 116 963 116 1053 378 c 1,2,-1
 1188 307 l 1,3,4
 1114 128 1114 128 950 46 c 0,5,6
 820 -18 820 -18 666 -18 c 0,7,8
 381 -19 381 -19 225.5 144.5 c 128,-1,9
 70 308 70 308 69 575 c 1,10,11
 69 846 69 846 228.5 1009 c 128,-1,12
 388 1172 388 1172 670 1171 c 0,13,14
 885 1171 885 1171 1027 1022 c 1,15,-1
 1027 1153 l 1,16,-1
 1157 1153 l 1,17,-1
 1157 804 l 1,18,-1
 1032 804 l 1,19,20
 918 1036 918 1036 648 1036 c 0,21,22
 462 1036 462 1036 354 907.5 c 128,-1,23
 246 779 246 779 246 580 c 0,24,25
 246 256 246 256 466 152 c 0,26,27
 544 116 544 116 630 116 c 0,0,1
EndSplineSet
EndChar

StartChar: D
Encoding: 68 68 58
Width: 1271
GlyphClass: 2
Flags: W
LayerCount: 2
Fore
SplineSet
380 116 m 1,0,-1
 625 116 l 2,1,2
 832 116 832 116 933 246 c 128,-1,3
 1034 376 1034 376 1034 581 c 0,4,5
 1034 900 1034 900 807 1001 c 0,6,7
 726 1037 726 1037 609 1037 c 2,8,-1
 380 1037 l 1,9,-1
 380 116 l 1,0,-1
1199 596 m 0,10,11
 1199 0 1199 0 599 0 c 2,12,-1
 59 0 l 1,13,-1
 59 116 l 1,14,-1
 218 116 l 1,15,-1
 218 1037 l 1,16,-1
 59 1037 l 1,17,-1
 59 1153 l 1,18,-1
 613 1153 l 2,19,20
 1021 1153 1021 1153 1149 854 c 0,21,22
 1199 738 1199 738 1199 596 c 0,10,11
EndSplineSet
EndChar

StartChar: E
Encoding: 69 69 59
Width: 1119
GlyphClass: 2
Flags: W
LayerCount: 2
Fore
SplineSet
60 0 m 1,0,-1
 60 116 l 1,1,-1
 216 116 l 1,2,-1
 216 1037 l 1,3,-1
 60 1037 l 1,4,-1
 60 1153 l 1,5,-1
 1031 1153 l 1,6,-1
 1031 832 l 1,7,-1
 900 832 l 1,8,-1
 900 1037 l 1,9,-1
 375 1037 l 1,10,-1
 375 655 l 1,11,-1
 737 655 l 1,12,-1
 737 769 l 1,13,-1
 837 769 l 1,14,-1
 837 410 l 1,15,-1
 736 410 l 1,16,-1
 736 526 l 1,17,-1
 377 526 l 1,18,-1
 377 116 l 1,19,-1
 902 116 l 1,20,-1
 902 328 l 1,21,-1
 1031 328 l 1,22,-1
 1031 0 l 1,23,-1
 60 0 l 1,0,-1
EndSplineSet
EndChar

StartChar: F
Encoding: 70 70 60
Width: 1006
GlyphClass: 2
Flags: W
LayerCount: 2
Fore
SplineSet
62 0 m 1,0,-1
 62 116 l 1,1,-1
 214 116 l 1,2,-1
 214 1037 l 1,3,-1
 62 1037 l 1,4,-1
 62 1153 l 1,5,-1
 979 1153 l 1,6,-1
 979 832 l 1,7,-1
 847 832 l 1,8,-1
 847 1037 l 1,9,-1
 374 1037 l 1,10,-1
 374 657 l 1,11,-1
 688 657 l 1,12,-1
 688 771 l 1,13,-1
 788 771 l 1,14,-1
 788 412 l 1,15,-1
 687 412 l 1,16,-1
 687 528 l 1,17,-1
 375 528 l 1,18,-1
 375 116 l 1,19,-1
 531 116 l 1,20,-1
 531 0 l 1,21,-1
 62 0 l 1,0,-1
EndSplineSet
EndChar

StartChar: G
Encoding: 71 71 61
Width: 1294
GlyphClass: 2
Flags: W
LayerCount: 2
Fore
SplineSet
1046 804 m 1,0,1
 928 1037 928 1037 662 1037 c 0,2,3
 468 1037 468 1037 357 910 c 128,-1,4
 246 783 246 783 245 579 c 0,5,6
 244 374 244 374 357 245 c 128,-1,7
 470 116 470 116 677 116 c 0,8,9
 958 116 958 116 1030 300 c 0,10,11
 1054 360 1054 360 1059 436 c 1,12,-1
 832 436 l 1,13,-1
 832 563 l 1,14,-1
 1239 563 l 1,15,16
 1232 264 1232 264 1080 123 c 128,-1,17
 928 -18 928 -18 676 -18 c 0,18,19
 338 -18 338 -18 184 196 c 1,20,21
 66 358 66 358 66 584 c 128,-1,22
 66 810 66 810 196 975 c 0,23,24
 350 1171 350 1171 653 1171 c 0,25,26
 891 1171 891 1171 1040 1022 c 1,27,-1
 1040 1153 l 1,28,-1
 1170 1153 l 1,29,-1
 1170 804 l 1,30,-1
 1046 804 l 1,0,1
EndSplineSet
EndChar

StartChar: H
Encoding: 72 72 62
Width: 1294
GlyphClass: 2
Flags: W
LayerCount: 2
Fore
SplineSet
72 0 m 1,0,-1
 72 116 l 1,1,-1
 211 116 l 1,2,-1
 211 1037 l 1,3,-1
 72 1037 l 1,4,-1
 72 1153 l 1,5,-1
 515 1153 l 1,6,-1
 515 1037 l 1,7,-1
 371 1037 l 1,8,-1
 371 667 l 1,9,-1
 922 667 l 1,10,-1
 922 1037 l 1,11,-1
 780 1037 l 1,12,-1
 780 1153 l 1,13,-1
 1222 1153 l 1,14,-1
 1222 1037 l 1,15,-1
 1083 1037 l 1,16,-1
 1083 116 l 1,17,-1
 1222 116 l 1,18,-1
 1222 0 l 1,19,-1
 780 0 l 1,20,-1
 780 116 l 1,21,-1
 923 116 l 1,22,-1
 923 538 l 1,23,-1
 372 538 l 1,24,-1
 372 116 l 1,25,-1
 515 116 l 1,26,-1
 515 0 l 1,27,-1
 72 0 l 1,0,-1
EndSplineSet
EndChar

StartChar: I
Encoding: 73 73 63
Width: 581
GlyphClass: 2
Flags: W
LayerCount: 2
Fore
SplineSet
75 0 m 1,0,-1
 75 116 l 1,1,-1
 209 116 l 1,2,-1
 209 1037 l 1,3,-1
 75 1037 l 1,4,-1
 75 1153 l 1,5,-1
 503 1153 l 1,6,-1
 503 1037 l 1,7,-1
 371 1037 l 1,8,-1
 371 116 l 1,9,-1
 503 116 l 1,10,-1
 503 0 l 1,11,-1
 75 0 l 1,0,-1
EndSplineSet
EndChar

StartChar: J
Encoding: 74 74 64
Width: 557
GlyphClass: 2
Flags: W
LayerCount: 2
Fore
SplineSet
-34 -34 m 1,0,-1
 86 -34 l 2,1,2
 149 -34 149 -34 173 3 c 128,-1,3
 197 40 197 40 197 117 c 2,4,-1
 197 1037 l 1,5,-1
 42 1037 l 1,6,-1
 42 1153 l 1,7,-1
 513 1153 l 1,8,-1
 513 1037 l 1,9,-1
 360 1037 l 1,10,-1
 360 99 l 2,11,12
 360 -48 360 -48 288 -114 c 128,-1,13
 216 -180 216 -180 113 -179 c 1,14,-1
 -34 -179 l 1,15,-1
 -34 -34 l 1,0,-1
EndSplineSet
EndChar

StartChar: K
Encoding: 75 75 65
Width: 1139
GlyphClass: 2
Flags: W
LayerCount: 2
Fore
SplineSet
1121 0 m 1,0,-1
 655 0 l 1,1,-1
 655 116 l 1,2,-1
 783 116 l 1,3,-1
 375 587 l 1,4,-1
 375 116 l 1,5,-1
 514 116 l 1,6,-1
 514 0 l 1,7,-1
 64 0 l 1,8,-1
 64 116 l 1,9,-1
 214 116 l 1,10,-1
 214 1037 l 1,11,-1
 64 1037 l 1,12,-1
 64 1153 l 1,13,-1
 530 1153 l 1,14,-1
 530 1037 l 1,15,-1
 374 1037 l 1,16,-1
 374 618 l 1,17,-1
 795 1037 l 1,18,-1
 659 1037 l 1,19,-1
 659 1153 l 1,20,-1
 1110 1153 l 1,21,-1
 1110 1037 l 1,22,-1
 981 1037 l 1,23,-1
 560 605 l 1,24,-1
 990 116 l 1,25,-1
 1121 116 l 1,26,-1
 1121 0 l 1,0,-1
EndSplineSet
EndChar

StartChar: L
Encoding: 76 76 66
Width: 984
GlyphClass: 2
Flags: W
LayerCount: 2
Fore
SplineSet
59 0 m 1,0,-1
 59 116 l 1,1,-1
 217 116 l 1,2,-1
 217 1037 l 1,3,-1
 59 1037 l 1,4,-1
 59 1153 l 1,5,-1
 533 1153 l 1,6,-1
 533 1037 l 1,7,-1
 378 1037 l 1,8,-1
 378 116 l 1,9,-1
 788 116 l 1,10,-1
 788 452 l 1,11,-1
 933 452 l 1,12,-1
 933 0 l 1,13,-1
 59 0 l 1,0,-1
EndSplineSet
EndChar

StartChar: M
Encoding: 77 77 67
Width: 1577
GlyphClass: 2
Flags: W
LayerCount: 2
Fore
SplineSet
213 1037 m 1,0,-1
 65 1037 l 1,1,-1
 65 1153 l 1,2,-1
 450 1153 l 1,3,-1
 783 317 l 1,4,-1
 1121 1153 l 1,5,-1
 1511 1153 l 1,6,-1
 1511 1037 l 1,7,-1
 1364 1037 l 1,8,-1
 1364 116 l 1,9,-1
 1511 116 l 1,10,-1
 1511 0 l 1,11,-1
 1083 0 l 1,12,-1
 1083 116 l 1,13,-1
 1216 116 l 1,14,-1
 1216 1023 l 1,15,-1
 801 0 l 1,16,-1
 759 0 l 1,17,-1
 347 1022 l 1,18,-1
 347 116 l 1,19,-1
 480 116 l 1,20,-1
 480 0 l 1,21,-1
 65 0 l 1,22,-1
 65 116 l 1,23,-1
 213 116 l 1,24,-1
 213 1037 l 1,0,-1
EndSplineSet
EndChar

StartChar: N
Encoding: 78 78 68
Width: 1322
GlyphClass: 2
Flags: W
LayerCount: 2
Fore
SplineSet
986 1037 m 1,0,-1
 821 1037 l 1,1,-1
 821 1153 l 1,2,-1
 1293 1153 l 1,3,-1
 1293 1037 l 1,4,-1
 1120 1037 l 1,5,-1
 1120 0 l 1,6,-1
 937 0 l 1,7,-1
 359 997 l 1,8,-1
 359 116 l 1,9,-1
 528 116 l 1,10,-1
 528 0 l 1,11,-1
 56 0 l 1,12,-1
 56 116 l 1,13,-1
 225 116 l 1,14,-1
 225 1037 l 1,15,-1
 56 1037 l 1,16,-1
 56 1153 l 1,17,-1
 438 1153 l 1,18,-1
 986 211 l 1,19,-1
 986 1037 l 1,0,-1
EndSplineSet
EndChar

StartChar: O
Encoding: 79 79 69
Width: 1321
GlyphClass: 2
Flags: W
LayerCount: 2
Fore
SplineSet
660 1037 m 1,0,1
 475 1036 475 1036 359 904 c 128,-1,2
 243 772 243 772 243 576 c 128,-1,3
 243 380 243 380 360 248 c 128,-1,4
 477 116 477 116 660 116 c 0,5,6
 846 116 846 116 962 248 c 128,-1,7
 1078 380 1078 380 1078 576 c 128,-1,8
 1078 772 1078 772 962 904 c 128,-1,9
 846 1036 846 1036 660 1037 c 1,0,1
1093 1001.5 m 128,-1,11
 1256 832 1256 832 1256 575 c 0,12,13
 1256 319 1256 319 1093 150 c 128,-1,14
 930 -19 930 -19 660 -19 c 0,15,16
 388 -18 388 -18 227 151.5 c 128,-1,17
 66 321 66 321 66 575 c 0,18,19
 66 832 66 832 227 1001 c 128,-1,20
 388 1170 388 1170 659 1170.5 c 128,-1,10
 930 1171 930 1171 1093 1001.5 c 128,-1,11
EndSplineSet
EndChar

StartChar: P
Encoding: 80 80 70
Width: 1030
GlyphClass: 2
Flags: W
LayerCount: 2
Fore
SplineSet
63 116 m 1,0,-1
 214 116 l 1,1,-1
 214 1037 l 1,2,-1
 63 1037 l 1,3,-1
 63 1153 l 1,4,-1
 596 1153 l 1,5,6
 812 1154 812 1154 914 1038 c 0,7,8
 992 949 992 949 992 805 c 0,9,10
 992 534 992 534 710 486 c 0,11,12
 624 472 624 472 522 472 c 2,13,-1
 376 472 l 1,14,-1
 376 116 l 1,15,-1
 534 116 l 1,16,-1
 534 0 l 1,17,-1
 63 0 l 1,18,-1
 63 116 l 1,0,-1
374 577 m 1,19,-1
 552 577 l 2,20,21
 772 577 772 577 814 716 c 0,22,23
 826 758 826 758 827 807 c 1,24,25
 827 916 827 916 768.5 976.5 c 128,-1,26
 710 1037 710 1037 601 1037 c 2,27,-1
 374 1037 l 1,28,-1
 374 577 l 1,19,-1
EndSplineSet
EndChar

StartChar: Q
Encoding: 81 81 71
Width: 1323
GlyphClass: 2
Flags: W
LayerCount: 2
Fore
SplineSet
940 -73 m 128,-1,1
 977 -81 977 -81 1016 -81 c 128,-1,2
 1055 -81 1055 -81 1090 -70 c 1,3,-1
 1091 -218 l 1,4,5
 1045 -231 1045 -231 1002 -231 c 128,-1,6
 959 -231 959 -231 925.5 -223.5 c 128,-1,7
 892 -216 892 -216 860 -205 c 0,8,9
 830 -194 830 -194 798 -180 c 0,10,11
 680 -130 680 -130 560 -130 c 128,-1,12
 440 -130 440 -130 319 -183 c 1,13,-1
 318 -46 l 1,14,15
 424 9 424 9 513 9 c 1,16,17
 306 56 306 56 186 210 c 128,-1,18
 66 364 66 364 67 575 c 0,19,20
 68 832 68 832 229 1001 c 128,-1,21
 390 1170 390 1170 661 1171 c 128,-1,22
 932 1172 932 1172 1094.5 1002 c 128,-1,23
 1257 832 1257 832 1257.5 588 c 128,-1,24
 1258 344 1258 344 1114 182 c 128,-1,25
 970 20 970 20 726 -5 c 1,26,27
 760 -15 760 -15 795 -28 c 128,-1,28
 830 -41 830 -41 866.5 -53 c 128,-1,0
 903 -65 903 -65 940 -73 c 128,-1,1
661 1037 m 1,29,30
 476 1036 476 1036 360 904 c 128,-1,31
 244 772 244 772 244 574.5 c 128,-1,32
 244 377 244 377 359.5 246.5 c 128,-1,33
 475 116 475 116 661 116 c 0,34,35
 850 116 850 116 965 246.5 c 128,-1,36
 1080 377 1080 377 1080 574.5 c 128,-1,37
 1080 772 1080 772 964 904 c 128,-1,38
 848 1036 848 1036 661 1037 c 1,29,30
EndSplineSet
EndChar

StartChar: R
Encoding: 82 82 72
Width: 1107
GlyphClass: 2
Flags: W
LayerCount: 2
Fore
SplineSet
380 657 m 1,0,-1
 603 657 l 1,1,2
 722 658 722 658 772 714 c 128,-1,3
 822 770 822 770 822.5 855 c 128,-1,4
 823 940 823 940 762.5 988.5 c 128,-1,5
 702 1037 702 1037 596 1037 c 2,6,-1
 380 1037 l 1,7,-1
 380 657 l 1,0,-1
988 855 m 0,8,9
 988 609 988 609 729 558 c 1,10,-1
 963 116 l 1,11,-1
 1109 116 l 1,12,-1
 1109 0 l 1,13,-1
 856 0 l 1,14,-1
 573 538 l 1,15,-1
 380 538 l 1,16,-1
 380 116 l 1,17,-1
 536 116 l 1,18,-1
 536 0 l 1,19,-1
 57 0 l 1,20,-1
 57 116 l 1,21,-1
 220 116 l 1,22,-1
 220 1037 l 1,23,-1
 57 1037 l 1,24,-1
 57 1153 l 1,25,-1
 608 1153 l 2,26,27
 894 1153 894 1153 966 977 c 0,28,29
 988 922 988 922 988 855 c 0,8,9
EndSplineSet
EndChar

StartChar: S
Encoding: 83 83 73
Width: 972
GlyphClass: 2
Flags: W
LayerCount: 2
Fore
SplineSet
231 271 m 1,0,1
 350 116 350 116 502 116 c 0,2,3
 625 116 625 116 685 169.5 c 128,-1,4
 745 223 745 223 745 291.5 c 128,-1,5
 745 360 745 360 719.5 397 c 128,-1,6
 694 434 694 434 643.5 462 c 128,-1,7
 593 490 593 490 474 518 c 0,8,9
 354 546 354 546 293 568 c 0,10,11
 88 644 88 644 88 858 c 0,12,13
 88 1008 88 1008 190 1089.5 c 128,-1,14
 292 1171 292 1171 444 1171 c 128,-1,15
 596 1171 596 1171 713 1079 c 1,16,-1
 713 1153 l 1,17,-1
 848 1153 l 1,18,-1
 848 826 l 1,19,-1
 713 826 l 1,20,-1
 713 908 l 1,21,22
 619 1037 619 1037 462.5 1037 c 128,-1,23
 306 1037 306 1037 258 934 c 0,24,25
 244 903 244 903 244 855 c 128,-1,26
 244 807 244 807 275 771.5 c 128,-1,27
 306 736 306 736 356 714 c 0,28,29
 406 693 406 693 470 679 c 0,30,31
 642 641 642 641 709 609 c 0,32,33
 910 511 910 511 910 306 c 0,34,35
 910 166 910 166 804 74 c 128,-1,36
 698 -18 698 -18 527.5 -18 c 128,-1,37
 357 -18 357 -18 231 87 c 1,38,-1
 231 0 l 1,39,-1
 96 0 l 1,40,-1
 96 387 l 1,41,-1
 231 387 l 1,42,-1
 231 271 l 1,0,1
EndSplineSet
EndChar

StartChar: T
Encoding: 84 84 74
Width: 1034
GlyphClass: 2
Flags: W
LayerCount: 2
Fore
SplineSet
990 1153 m 1,0,-1
 990 805 l 1,1,-1
 859 805 l 1,2,-1
 859 1037 l 1,3,-1
 600 1037 l 1,4,-1
 600 116 l 1,5,-1
 774 116 l 1,6,-1
 774 0 l 1,7,-1
 262 0 l 1,8,-1
 262 116 l 1,9,-1
 437 116 l 1,10,-1
 437 1037 l 1,11,-1
 172 1037 l 1,12,-1
 172 805 l 1,13,-1
 43 805 l 1,14,-1
 43 1153 l 1,15,-1
 990 1153 l 1,0,-1
EndSplineSet
EndChar

StartChar: U
Encoding: 85 85 75
Width: 1211
GlyphClass: 2
Flags: W
LayerCount: 2
Fore
SplineSet
589 -18 m 0,0,1
 480 -18 480 -18 396 16 c 128,-1,2
 312 50 312 50 264 106 c 0,3,4
 182 202 182 202 182 382 c 2,5,-1
 182 1037 l 1,6,-1
 34 1037 l 1,7,-1
 34 1153 l 1,8,-1
 486 1153 l 1,9,-1
 486 1037 l 1,10,-1
 344 1037 l 1,11,-1
 344 378 l 2,12,13
 344 180 344 180 482 133 c 0,14,15
 532 116 532 116 605 116 c 0,16,17
 751 116 751 116 809.5 184 c 128,-1,18
 868 252 868 252 868 389 c 2,19,-1
 868 1037 l 1,20,-1
 726 1037 l 1,21,-1
 726 1153 l 1,22,-1
 1177 1153 l 1,23,-1
 1177 1037 l 1,24,-1
 1030 1037 l 1,25,-1
 1030 380 l 2,26,27
 1030 177 1030 177 914 79.5 c 128,-1,28
 798 -18 798 -18 589 -18 c 0,0,1
EndSplineSet
EndChar

StartChar: V
Encoding: 86 86 76
Width: 1208
GlyphClass: 2
Flags: W
LayerCount: 2
Fore
SplineSet
125 1037 m 1,0,-1
 -21 1037 l 1,1,-1
 -21 1153 l 1,2,-1
 434 1153 l 1,3,-1
 434 1037 l 1,4,-1
 293 1037 l 1,5,-1
 610 184 l 1,6,-1
 922 1037 l 1,7,-1
 781 1037 l 1,8,-1
 781 1153 l 1,9,-1
 1226 1153 l 1,10,-1
 1226 1037 l 1,11,-1
 1080 1037 l 1,12,-1
 682 0 l 1,13,-1
 528 0 l 1,14,-1
 125 1037 l 1,0,-1
EndSplineSet
EndChar

StartChar: W
Encoding: 87 87 77
Width: 1759
GlyphClass: 2
Flags: W
LayerCount: 2
Fore
SplineSet
1489 1037 m 1,0,-1
 1345 1037 l 1,1,-1
 1345 1153 l 1,2,-1
 1772 1153 l 1,3,-1
 1772 1037 l 1,4,-1
 1630 1037 l 1,5,-1
 1320 0 l 1,6,-1
 1162 0 l 1,7,-1
 876 928 l 1,8,-1
 594 0 l 1,9,-1
 441 0 l 1,10,-1
 125 1037 l 1,11,-1
 -20 1037 l 1,12,-1
 -20 1153 l 1,13,-1
 423 1153 l 1,14,-1
 423 1037 l 1,15,-1
 279 1037 l 1,16,-1
 524 210 l 1,17,-1
 764 1037 l 1,18,-1
 624 1037 l 1,19,-1
 624 1153 l 1,20,-1
 1143 1153 l 1,21,-1
 1143 1037 l 1,22,-1
 1004 1037 l 1,23,-1
 1245 210 l 1,24,-1
 1489 1037 l 1,0,-1
EndSplineSet
EndChar

StartChar: X
Encoding: 88 88 78
Width: 1149
GlyphClass: 2
Flags: W
LayerCount: 2
Fore
SplineSet
18 0 m 1,0,-1
 18 116 l 1,1,-1
 179 116 l 1,2,-1
 492 582 l 1,3,-1
 183 1037 l 1,4,-1
 29 1037 l 1,5,-1
 29 1153 l 1,6,-1
 491 1153 l 1,7,-1
 491 1037 l 1,8,-1
 356 1037 l 1,9,-1
 578 705 l 1,10,-1
 804 1037 l 1,11,-1
 664 1037 l 1,12,-1
 664 1153 l 1,13,-1
 1110 1153 l 1,14,-1
 1110 1037 l 1,15,-1
 959 1037 l 1,16,-1
 657 595 l 1,17,-1
 985 116 l 1,18,-1
 1140 116 l 1,19,-1
 1140 0 l 1,20,-1
 668 0 l 1,21,-1
 668 116 l 1,22,-1
 807 116 l 1,23,-1
 571 470 l 1,24,-1
 335 116 l 1,25,-1
 479 116 l 1,26,-1
 479 0 l 1,27,-1
 18 0 l 1,0,-1
EndSplineSet
EndChar

StartChar: Y
Encoding: 89 89 79
Width: 1130
GlyphClass: 2
Flags: W
LayerCount: 2
Fore
SplineSet
327 0 m 1,0,-1
 327 116 l 1,1,-1
 486 116 l 1,2,-1
 486 530 l 1,3,-1
 128 1037 l 1,4,-1
 -18 1037 l 1,5,-1
 -18 1153 l 1,6,-1
 454 1153 l 1,7,-1
 454 1037 l 1,8,-1
 304 1037 l 1,9,-1
 578 648 l 1,10,-1
 835 1037 l 1,11,-1
 685 1037 l 1,12,-1
 685 1153 l 1,13,-1
 1145 1153 l 1,14,-1
 1145 1037 l 1,15,-1
 989 1037 l 1,16,-1
 646 530 l 1,17,-1
 646 116 l 1,18,-1
 810 116 l 1,19,-1
 810 0 l 1,20,-1
 327 0 l 1,0,-1
EndSplineSet
EndChar

StartChar: Z
Encoding: 90 90 80
Width: 1010
GlyphClass: 2
Flags: W
LayerCount: 2
Fore
SplineSet
62 0 m 1,0,-1
 62 128 l 1,1,-1
 719 1037 l 1,2,-1
 221 1037 l 1,3,-1
 221 833 l 1,4,-1
 92 833 l 1,5,-1
 92 1153 l 1,6,-1
 924 1153 l 1,7,-1
 924 1041 l 1,8,-1
 257 116 l 1,9,-1
 805 116 l 1,10,-1
 805 335 l 1,11,-1
 934 335 l 1,12,-1
 934 0 l 1,13,-1
 62 0 l 1,0,-1
EndSplineSet
EndChar

StartChar: bracketleft
Encoding: 91 91 81
Width: 569
GlyphClass: 2
Flags: W
LayerCount: 2
Fore
SplineSet
541 1262 m 1,0,-1
 541 1153 l 1,1,-1
 290 1153 l 1,2,-1
 290 -112 l 1,3,-1
 541 -112 l 1,4,-1
 541 -219 l 1,5,-1
 147 -219 l 1,6,-1
 147 1262 l 1,7,-1
 541 1262 l 1,0,-1
EndSplineSet
EndChar

StartChar: backslash
Encoding: 92 92 82
Width: 793
GlyphClass: 2
Flags: W
LayerCount: 2
Fore
SplineSet
258 1171 m 1,0,-1
 692 -18 l 1,1,-1
 563 -18 l 1,2,-1
 129 1171 l 1,3,-1
 258 1171 l 1,0,-1
EndSplineSet
EndChar

StartChar: bracketright
Encoding: 93 93 83
Width: 569
GlyphClass: 2
Flags: W
LayerCount: 2
Fore
SplineSet
426 1262 m 1,0,-1
 426 -219 l 1,1,-1
 32 -219 l 1,2,-1
 32 -112 l 1,3,-1
 283 -112 l 1,4,-1
 283 1153 l 1,5,-1
 32 1153 l 1,6,-1
 32 1262 l 1,7,-1
 426 1262 l 1,0,-1
EndSplineSet
EndChar

StartChar: asciicircum
Encoding: 94 94 84
Width: 826
GlyphClass: 2
Flags: W
LayerCount: 2
Fore
SplineSet
788 605 m 1,0,-1
 637 605 l 1,1,-1
 415 1040 l 1,2,-1
 189 605 l 1,3,-1
 38 605 l 1,4,-1
 339 1171 l 1,5,-1
 492 1171 l 1,6,-1
 788 605 l 1,0,-1
EndSplineSet
EndChar

StartChar: underscore
Encoding: 95 95 85
Width: 898
GlyphClass: 2
Flags: W
LayerCount: 2
Fore
SplineSet
898 -82 m 1,0,-1
 898 -199 l 1,1,-1
 0 -199 l 1,2,-1
 0 -82 l 1,3,-1
 898 -82 l 1,0,-1
EndSplineSet
EndChar

StartChar: grave
Encoding: 96 96 86
Width: 562
GlyphClass: 2
Flags: W
LayerCount: 2
Fore
SplineSet
292 914 m 1,0,-1
 105 1171 l 1,1,-1
 312 1171 l 1,2,-1
 411 914 l 1,3,-1
 292 914 l 1,0,-1
EndSplineSet
EndChar

StartChar: a
Encoding: 97 97 87
Width: 889
GlyphClass: 2
Flags: W
LayerCount: 2
Fore
SplineSet
595 547 m 2,0,1
 595 696 595 696 409 701 c 1,2,3
 263 701 263 701 194 610 c 1,4,-1
 102 708 l 1,5,6
 214 820 214 820 404 820 c 128,-1,7
 594 820 594 820 669 745 c 128,-1,8
 744 670 744 670 744 554 c 2,9,-1
 744 116 l 1,10,-1
 888 116 l 1,11,-1
 888 0 l 1,12,-1
 611 0 l 1,13,-1
 609 83 l 1,14,15
 470 -18 470 -18 338 -18 c 128,-1,16
 206 -18 206 -18 131 50 c 128,-1,17
 56 118 56 118 56 204 c 0,18,19
 55 354 55 354 157 418 c 0,20,21
 241 470 241 470 402 470 c 0,22,23
 493 470 493 470 595 450 c 1,24,-1
 595 547 l 2,0,1
346 89 m 0,25,26
 500 89 500 89 595 178 c 1,27,-1
 595 352 l 1,28,29
 563 353 563 353 514.5 360.5 c 128,-1,30
 466 368 466 368 420 368 c 0,31,32
 315 368 315 368 264 341 c 0,33,34
 196 305 196 305 196 217.5 c 128,-1,35
 196 130 196 130 283 99 c 0,36,37
 311 89 311 89 346 89 c 0,25,26
EndSplineSet
EndChar

StartChar: b
Encoding: 98 98 88
Width: 1071
GlyphClass: 2
Flags: W
LayerCount: 2
Fore
SplineSet
319 707 m 1,0,1
 442 820 442 820 619 820 c 128,-1,2
 796 820 796 820 904 702 c 128,-1,3
 1012 584 1012 584 1013 406 c 128,-1,4
 1014 228 1014 228 904 105 c 128,-1,5
 794 -18 794 -18 614 -18 c 0,6,7
 475 -18 475 -18 373 56 c 0,8,9
 340 80 340 80 318 111 c 1,10,-1
 314 0 l 1,11,-1
 23 0 l 1,12,-1
 23 116 l 1,13,-1
 168 116 l 1,14,-1
 168 1037 l 1,15,-1
 25 1037 l 1,16,-1
 25 1153 l 1,17,-1
 319 1153 l 1,18,-1
 319 707 l 1,0,1
319 229 m 1,19,20
 489 119 489 119 582 107 c 1,21,22
 706 107 706 107 778 189 c 128,-1,23
 850 271 850 271 850 396 c 0,24,25
 850 522 850 522 776 608 c 128,-1,26
 702 694 702 694 569.5 694 c 128,-1,27
 437 694 437 694 319 564 c 1,28,-1
 319 229 l 1,19,20
EndSplineSet
EndChar

StartChar: c
Encoding: 99 99 89
Width: 899
GlyphClass: 2
Flags: W
LayerCount: 2
Fore
SplineSet
829 157 m 1,0,1
 713 -19 713 -19 464 -19 c 0,2,3
 260 -19 260 -19 150 118 c 0,4,5
 56 234 56 234 56 408 c 128,-1,6
 56 582 56 582 172 701 c 0,7,8
 287 820 287 820 463 820 c 0,9,10
 587 820 587 820 665 746 c 0,11,12
 684 728 684 728 691 713 c 1,13,-1
 687 805 l 1,14,-1
 820 805 l 1,15,-1
 820 517 l 1,16,-1
 691 517 l 1,17,18
 644 683 644 683 471 694 c 1,19,20
 347 694 347 694 281.5 616 c 128,-1,21
 216 538 216 538 216 400 c 0,22,23
 216 192 216 192 359 128 c 0,24,25
 406 107 406 107 468 107 c 0,26,27
 649 107 649 107 740 246 c 1,28,-1
 829 157 l 1,0,1
EndSplineSet
EndChar

StartChar: d
Encoding: 100 100 90
Width: 1071
GlyphClass: 2
Flags: W
LayerCount: 2
Fore
SplineSet
750 713 m 1,0,-1
 750 1037 l 1,1,-1
 588 1037 l 1,2,-1
 588 1153 l 1,3,-1
 898 1153 l 1,4,-1
 898 116 l 1,5,-1
 1050 116 l 1,6,-1
 1050 0 l 1,7,-1
 746 0 l 1,8,-1
 745 99 l 1,9,10
 626 -18 626 -18 460 -18 c 128,-1,11
 294 -18 294 -18 176 92 c 128,-1,12
 58 202 58 202 58 390 c 0,13,14
 58 576 58 576 170 698 c 128,-1,15
 282 820 282 820 454.5 820 c 128,-1,16
 627 820 627 820 750 713 c 1,0,-1
748 567 m 1,17,18
 614 694 614 694 486 694 c 128,-1,19
 358 694 358 694 288 608 c 128,-1,20
 218 522 218 522 218 400 c 0,21,22
 218 276 218 276 289 192 c 0,23,24
 361 108 361 108 488 107.5 c 128,-1,25
 615 107 615 107 748 222 c 1,26,-1
 748 567 l 1,17,18
EndSplineSet
EndChar

StartChar: e
Encoding: 101 101 91
Width: 955
GlyphClass: 2
Flags: W
LayerCount: 2
Fore
SplineSet
869 157 m 1,0,1
 755 -18 755 -18 502 -18 c 0,2,3
 298 -18 298 -18 176 102 c 128,-1,4
 54 222 54 222 54 402 c 128,-1,5
 54 582 54 582 181 701 c 128,-1,6
 308 820 308 820 498 820 c 128,-1,7
 688 820 688 820 793 692 c 128,-1,8
 898 564 898 564 898 365 c 1,9,-1
 219 365 l 1,10,11
 226 248 226 248 302 178 c 128,-1,12
 378 108 378 108 502 107 c 0,13,14
 626 107 626 107 718 181 c 0,15,16
 747 204 747 204 767 233 c 1,17,-1
 869 157 l 1,0,1
754 467 m 1,18,19
 742 568 742 568 675 631 c 128,-1,20
 608 694 608 694 500 694 c 0,21,22
 322 694 322 694 254 560 c 0,23,24
 232 518 232 518 223 467 c 1,25,-1
 754 467 l 1,18,19
EndSplineSet
EndChar

StartChar: f
Encoding: 102 102 92
Width: 555
GlyphClass: 2
Flags: W
LayerCount: 2
Fore
SplineSet
416 1053 m 0,0,1
 336 1053 336 1053 336 934 c 2,2,-1
 336 805 l 1,3,-1
 489 805 l 1,4,-1
 489 689 l 1,5,-1
 336 689 l 1,6,-1
 336 116 l 1,7,-1
 498 116 l 1,8,-1
 498 0 l 1,9,-1
 65 0 l 1,10,-1
 65 116 l 1,11,-1
 185 116 l 1,12,-1
 185 689 l 1,13,-1
 56 689 l 1,14,-1
 56 805 l 1,15,-1
 185 805 l 1,16,-1
 185 943 l 2,17,18
 185 1110 185 1110 323 1156 c 0,19,20
 412 1185 412 1185 492 1160 c 0,21,22
 528 1149 528 1149 555 1124 c 0,23,24
 616 1070 616 1070 616 963 c 1,25,-1
 486 963 l 1,26,27
 486 1034 486 1034 438 1049 c 0,28,29
 426 1053 426 1053 416 1053 c 0,0,1
EndSplineSet
EndChar

StartChar: g
Encoding: 103 103 93
Width: 1069
GlyphClass: 2
Flags: W
LayerCount: 2
Fore
SplineSet
748 93 m 1,0,1
 650 0 650 0 432 0 c 0,2,3
 364 0 364 0 290.5 31 c 128,-1,4
 217 62 217 62 165 116 c 0,5,6
 58 226 58 226 58 398 c 128,-1,7
 58 570 58 570 171 695 c 128,-1,8
 284 820 284 820 453.5 820 c 128,-1,9
 623 820 623 820 748 709 c 1,10,-1
 748 805 l 1,11,-1
 1049 805 l 1,12,-1
 1049 689 l 1,13,-1
 898 689 l 1,14,-1
 898 -3 l 2,15,16
 898 -168 898 -168 768 -251 c 0,17,18
 659 -320 659 -320 485.5 -320 c 128,-1,19
 312 -320 312 -320 201 -253 c 1,20,-1
 248 -143 l 1,21,22
 352 -196 352 -196 478 -196 c 0,23,24
 652 -196 652 -196 722 -107 c 0,25,26
 748 -75 748 -75 748 -27 c 2,27,-1
 748 93 l 1,0,1
748 571 m 1,28,29
 619 694 619 694 492.5 694 c 128,-1,30
 366 694 366 694 292 608.5 c 128,-1,31
 218 523 218 523 217.5 401.5 c 128,-1,32
 217 280 217 280 288.5 202.5 c 128,-1,33
 360 125 360 125 486.5 125 c 128,-1,34
 613 125 613 125 748 229 c 1,35,-1
 748 571 l 1,28,29
EndSplineSet
EndChar

StartChar: h
Encoding: 104 104 94
Width: 1024
GlyphClass: 2
Flags: W
LayerCount: 2
Fore
SplineSet
733 528 m 2,0,1
 733 694 733 694 592.5 694 c 128,-1,2
 452 694 452 694 322 607 c 1,3,-1
 322 116 l 1,4,-1
 467 116 l 1,5,-1
 467 0 l 1,6,-1
 21 0 l 1,7,-1
 21 116 l 1,8,-1
 173 116 l 1,9,-1
 173 1037 l 1,10,-1
 23 1037 l 1,11,-1
 23 1153 l 1,12,-1
 322 1153 l 1,13,-1
 322 726 l 1,14,15
 464 820 464 820 626 820 c 0,16,17
 881 820 881 820 881 556 c 2,18,-1
 881 116 l 1,19,-1
 1025 116 l 1,20,-1
 1025 0 l 1,21,-1
 631 0 l 1,22,-1
 631 116 l 1,23,-1
 733 116 l 1,24,-1
 733 528 l 2,0,1
EndSplineSet
EndChar

StartChar: i
Encoding: 105 105 95
Width: 509
GlyphClass: 2
Flags: W
LayerCount: 2
Fore
SplineSet
176 1066 m 0,0,1
 176 1124 176 1124 232 1146 c 0,2,3
 248 1152 248 1152 277 1152.5 c 128,-1,4
 306 1153 306 1153 332.5 1128 c 128,-1,5
 359 1103 359 1103 359 1066 c 256,6,7
 359 1029 359 1029 332.5 1004 c 128,-1,8
 306 979 306 979 277 979 c 0,9,10
 227 979 227 979 201.5 1004 c 128,-1,11
 176 1029 176 1029 176 1066 c 0,0,1
59 689 m 1,12,-1
 59 805 l 1,13,-1
 343 805 l 1,14,-1
 343 116 l 1,15,-1
 479 116 l 1,16,-1
 479 0 l 1,17,-1
 59 0 l 1,18,-1
 59 116 l 1,19,-1
 194 116 l 1,20,-1
 194 689 l 1,21,-1
 59 689 l 1,12,-1
EndSplineSet
EndChar

StartChar: j
Encoding: 106 106 96
Width: 441
GlyphClass: 2
Flags: W
LayerCount: 2
Fore
SplineSet
235 1153 m 256,0,1
 274 1153 274 1153 300.5 1128 c 128,-1,2
 327 1103 327 1103 327 1066 c 256,3,4
 327 1029 327 1029 300.5 1004 c 128,-1,5
 274 979 274 979 235 979 c 256,6,7
 196 979 196 979 169.5 1004 c 128,-1,8
 143 1029 143 1029 143 1066 c 256,9,10
 143 1103 143 1103 169.5 1128 c 128,-1,11
 196 1153 196 1153 235 1153 c 256,0,1
11 689 m 1,12,-1
 11 805 l 1,13,-1
 314 805 l 1,14,-1
 314 19 l 2,15,16
 314 -143 314 -143 279 -197.5 c 128,-1,17
 244 -252 244 -252 187 -277.5 c 128,-1,18
 130 -303 130 -303 31 -303 c 2,19,-1
 -60 -303 l 1,20,-1
 -60 -179 l 1,21,-1
 47 -179 l 2,22,23
 113 -179 113 -179 138 -138 c 128,-1,24
 163 -97 163 -97 163 -8 c 2,25,-1
 163 689 l 1,26,-1
 11 689 l 1,12,-1
EndSplineSet
EndChar

StartChar: k
Encoding: 107 107 97
Width: 995
GlyphClass: 2
Flags: W
LayerCount: 2
Fore
SplineSet
20 0 m 1,0,-1
 20 116 l 1,1,-1
 173 116 l 1,2,-1
 173 1037 l 1,3,-1
 20 1037 l 1,4,-1
 20 1153 l 1,5,-1
 321 1153 l 1,6,-1
 321 430 l 1,7,-1
 643 689 l 1,8,-1
 511 689 l 1,9,-1
 511 805 l 1,10,-1
 958 805 l 1,11,-1
 958 689 l 1,12,-1
 819 689 l 1,13,-1
 494 415 l 1,14,-1
 826 116 l 1,15,-1
 966 116 l 1,16,-1
 966 0 l 1,17,-1
 545 0 l 1,18,-1
 545 116 l 1,19,-1
 641 116 l 1,20,-1
 321 405 l 1,21,-1
 321 116 l 1,22,-1
 426 116 l 1,23,-1
 426 0 l 1,24,-1
 20 0 l 1,0,-1
EndSplineSet
EndChar

StartChar: l
Encoding: 108 108 98
Width: 487
GlyphClass: 2
Flags: W
LayerCount: 2
Fore
SplineSet
21 0 m 1,0,-1
 21 116 l 1,1,-1
 173 116 l 1,2,-1
 173 1037 l 1,3,-1
 24 1037 l 1,4,-1
 24 1153 l 1,5,-1
 322 1153 l 1,6,-1
 322 116 l 1,7,-1
 455 116 l 1,8,-1
 455 0 l 1,9,-1
 21 0 l 1,0,-1
EndSplineSet
EndChar

StartChar: m
Encoding: 109 109 99
Width: 1554
GlyphClass: 2
Flags: W
LayerCount: 2
Fore
SplineSet
859 680 m 1,0,1
 1024 820 1024 820 1150 820 c 0,2,3
 1278 820 1278 820 1337.5 750 c 128,-1,4
 1397 680 1397 680 1397 568 c 2,5,-1
 1397 107 l 1,6,-1
 1542 107 l 1,7,-1
 1542 0 l 1,8,-1
 1137 0 l 1,9,-1
 1137 107 l 1,10,-1
 1250 107 l 1,11,-1
 1250 537 l 2,12,13
 1250 694 1250 694 1122 694 c 0,14,15
 1028 694 1028 694 922 604 c 0,16,17
 895 581 895 581 880 561 c 1,18,-1
 880 116 l 1,19,-1
 1005 116 l 1,20,-1
 1005 0 l 1,21,-1
 616 0 l 1,22,-1
 616 116 l 1,23,-1
 728 116 l 1,24,-1
 728 534 l 2,25,26
 728 694 728 694 599 694 c 0,27,28
 536 694 536 694 479.5 662.5 c 128,-1,29
 423 631 423 631 359 571 c 1,30,-1
 359 116 l 1,31,-1
 484 116 l 1,32,-1
 484 0 l 1,33,-1
 58 0 l 1,34,-1
 58 116 l 1,35,-1
 208 116 l 1,36,-1
 208 689 l 1,37,-1
 65 689 l 1,38,-1
 65 805 l 1,39,-1
 354 805 l 1,40,-1
 359 698 l 1,41,42
 504 820 504 820 641 820 c 0,43,44
 802 820 802 820 859 680 c 1,0,1
EndSplineSet
EndChar

StartChar: n
Encoding: 110 110 100
Width: 1031
GlyphClass: 2
Flags: W
LayerCount: 2
Fore
SplineSet
357 701 m 1,0,1
 510 820 510 820 630 820 c 128,-1,2
 750 820 750 820 812 750 c 128,-1,3
 874 680 874 680 875 562 c 1,4,-1
 874 116 l 1,5,-1
 1019 116 l 1,6,-1
 1019 0 l 1,7,-1
 617 0 l 1,8,-1
 617 116 l 1,9,-1
 727 116 l 1,10,-1
 727 507 l 2,11,12
 727 595 727 595 700 644.5 c 128,-1,13
 673 694 673 694 602 694 c 0,14,15
 486 694 486 694 357 570 c 1,16,-1
 357 116 l 1,17,-1
 502 116 l 1,18,-1
 502 0 l 1,19,-1
 63 0 l 1,20,-1
 63 116 l 1,21,-1
 206 116 l 1,22,-1
 206 689 l 1,23,-1
 57 689 l 1,24,-1
 57 805 l 1,25,-1
 353 805 l 1,26,-1
 357 701 l 1,0,1
EndSplineSet
EndChar

StartChar: o
Encoding: 111 111 101
Width: 966
GlyphClass: 2
Flags: W
LayerCount: 2
Fore
SplineSet
676.5 611 m 128,-1,1
 603 694 603 694 482 694 c 0,2,3
 362 694 362 694 289 611 c 128,-1,4
 216 528 216 528 216 401 c 128,-1,5
 216 274 216 274 289 191 c 128,-1,6
 362 108 362 108 482 107 c 1,7,8
 603 108 603 108 676.5 191 c 128,-1,9
 750 274 750 274 750 401 c 128,-1,0
 750 528 750 528 676.5 611 c 128,-1,1
910 402 m 0,10,11
 910 223 910 223 791.5 102.5 c 128,-1,12
 673 -18 673 -18 482 -18 c 256,13,14
 291 -18 291 -18 174 103 c 128,-1,15
 57 224 57 224 57 402 c 1,16,17
 56 579 56 579 173.5 699.5 c 128,-1,18
 291 820 291 820 483.5 820 c 128,-1,19
 676 820 676 820 793 699.5 c 128,-1,20
 910 579 910 579 910 402 c 0,10,11
EndSplineSet
EndChar

StartChar: p
Encoding: 112 112 102
Width: 1058
GlyphClass: 2
Flags: W
LayerCount: 2
Fore
SplineSet
313 87 m 1,0,-1
 313 -179 l 1,1,-1
 478 -179 l 1,2,-1
 478 -303 l 1,3,-1
 13 -303 l 1,4,-1
 13 -179 l 1,5,-1
 166 -179 l 1,6,-1
 166 689 l 1,7,-1
 25 689 l 1,8,-1
 25 805 l 1,9,-1
 305 805 l 1,10,-1
 313 698 l 1,11,12
 430 820 430 820 606 820 c 128,-1,13
 782 820 782 820 891 700 c 128,-1,14
 1000 580 1000 580 1001 402 c 128,-1,15
 1002 224 1002 224 890 103 c 128,-1,16
 778 -18 778 -18 603 -18 c 128,-1,17
 428 -18 428 -18 313 87 c 1,0,-1
313 211 m 1,18,19
 446 107 446 107 574 107 c 128,-1,20
 702 107 702 107 774 189 c 128,-1,21
 846 271 846 271 846 396 c 0,22,23
 846 522 846 522 772 608 c 128,-1,24
 698 694 698 694 567 694 c 128,-1,25
 436 694 436 694 313 571 c 1,26,-1
 313 211 l 1,18,19
EndSplineSet
EndChar

StartChar: q
Encoding: 113 113 103
Width: 1063
GlyphClass: 2
Flags: W
LayerCount: 2
Fore
SplineSet
745 699 m 1,0,-1
 748 805 l 1,1,-1
 1037 805 l 1,2,-1
 1037 689 l 1,3,-1
 895 689 l 1,4,-1
 895 -179 l 1,5,-1
 1047 -179 l 1,6,-1
 1047 -303 l 1,7,-1
 583 -303 l 1,8,-1
 583 -179 l 1,9,-1
 745 -179 l 1,10,-1
 745 90 l 1,11,12
 630 -18 630 -18 454 -18 c 128,-1,13
 278 -18 278 -18 168 102 c 128,-1,14
 58 222 58 222 58 402 c 0,15,16
 58 580 58 580 170 700 c 128,-1,17
 282 820 282 820 461 820 c 128,-1,18
 640 820 640 820 745 699 c 1,0,-1
745 564 m 1,19,20
 622 694 622 694 488 694 c 128,-1,21
 354 694 354 694 283 609 c 128,-1,22
 212 524 212 524 212 398 c 128,-1,23
 212 272 212 272 284 189 c 0,24,25
 356 107 356 107 483.5 107 c 128,-1,26
 611 107 611 107 745 229 c 1,27,-1
 745 564 l 1,19,20
EndSplineSet
EndChar

StartChar: r
Encoding: 114 114 104
Width: 761
GlyphClass: 2
Flags: W
LayerCount: 2
Fore
SplineSet
729 675 m 1,0,1
 726 678 726 678 680 678 c 2,2,-1
 631 678 l 2,3,4
 428 678 428 678 388 503 c 0,5,6
 376 448 376 448 375 380 c 1,7,-1
 375 116 l 1,8,-1
 551 116 l 1,9,-1
 551 0 l 1,10,-1
 64 0 l 1,11,-1
 64 116 l 1,12,-1
 225 116 l 1,13,-1
 225 689 l 1,14,-1
 58 689 l 1,15,-1
 58 805 l 1,16,-1
 347 805 l 1,17,-1
 348 630 l 1,18,19
 423 784 423 784 551 811 c 0,20,21
 593 820 593 820 638.5 820 c 128,-1,22
 684 820 684 820 734 814 c 1,23,-1
 729 675 l 1,0,1
EndSplineSet
EndChar

StartChar: s
Encoding: 115 115 105
Width: 809
GlyphClass: 2
Flags: W
LayerCount: 2
Fore
SplineSet
210 50 m 1,0,-1
 210 0 l 1,1,-1
 77 0 l 1,2,-1
 77 263 l 1,3,-1
 210 263 l 1,4,-1
 210 210 l 1,5,6
 267 100 267 100 416 100 c 0,7,8
 599 100 599 100 599 217 c 1,9,10
 600 296 600 296 494 318 c 0,11,12
 462 324 462 324 410 332 c 0,13,14
 257 356 257 356 186 396 c 0,15,16
 74 458 74 458 75 586 c 0,17,18
 75 686 75 686 157.5 753 c 128,-1,19
 240 820 240 820 363 820 c 128,-1,20
 486 820 486 820 577 745 c 1,21,-1
 577 805 l 1,22,-1
 706 805 l 1,23,-1
 706 549 l 1,24,-1
 577 549 l 1,25,-1
 577 616 l 1,26,27
 506 702 506 702 378 702 c 0,28,29
 303 702 303 702 259.5 672.5 c 128,-1,30
 216 643 216 643 216 602.5 c 128,-1,31
 216 562 216 562 235 543 c 128,-1,32
 254 524 254 524 286.5 512 c 128,-1,33
 319 500 319 500 361 492 c 0,34,35
 500 466 500 466 555 451 c 0,36,37
 752 398 752 398 752 228 c 0,38,39
 752 117 752 117 665 49.5 c 128,-1,40
 578 -18 578 -18 436.5 -18 c 128,-1,41
 295 -18 295 -18 210 50 c 1,0,-1
EndSplineSet
EndChar

StartChar: t
Encoding: 116 116 106
Width: 528
GlyphClass: 2
Flags: W
LayerCount: 2
Fore
SplineSet
35 689 m 1,0,-1
 35 805 l 1,1,-1
 159 805 l 1,2,-1
 159 1063 l 1,3,-1
 310 1095 l 1,4,-1
 310 805 l 1,5,-1
 483 805 l 1,6,-1
 483 689 l 1,7,-1
 310 689 l 1,8,-1
 310 289 l 2,9,10
 310 186 310 186 320 161 c 0,11,12
 337 116 337 116 395 116 c 2,13,-1
 513 116 l 1,14,-1
 513 0 l 1,15,-1
 375 0 l 2,16,17
 234 0 234 0 189 86 c 0,18,19
 159 144 159 144 159 300 c 2,20,-1
 159 689 l 1,21,-1
 35 689 l 1,0,-1
EndSplineSet
EndChar

StartChar: u
Encoding: 117 117 107
Width: 994
GlyphClass: 2
Flags: W
LayerCount: 2
Fore
SplineSet
429 107 m 0,0,1
 564 107 564 107 673 250 c 1,2,-1
 673 689 l 1,3,-1
 528 689 l 1,4,-1
 528 805 l 1,5,-1
 824 805 l 1,6,-1
 824 116 l 1,7,-1
 970 116 l 1,8,-1
 970 0 l 1,9,-1
 678 0 l 1,10,-1
 673 100 l 1,11,12
 549 -18 549 -18 401 -18 c 0,13,14
 152 -18 152 -18 152 261 c 2,15,-1
 152 689 l 1,16,-1
 32 689 l 1,17,-1
 32 805 l 1,18,-1
 304 805 l 1,19,-1
 304 268 l 2,20,21
 304 107 304 107 429 107 c 0,0,1
EndSplineSet
EndChar

StartChar: v
Encoding: 118 118 108
Width: 960
GlyphClass: 2
Flags: W
LayerCount: 2
Fore
SplineSet
422 0 m 1,0,-1
 147 689 l 1,1,-1
 -2 689 l 1,2,-1
 -2 805 l 1,3,-1
 409 805 l 1,4,-1
 409 689 l 1,5,-1
 293 689 l 1,6,-1
 488 171 l 1,7,-1
 680 689 l 1,8,-1
 560 689 l 1,9,-1
 560 805 l 1,10,-1
 962 805 l 1,11,-1
 962 689 l 1,12,-1
 829 689 l 1,13,-1
 558 0 l 1,14,-1
 422 0 l 1,0,-1
EndSplineSet
EndChar

StartChar: w
Encoding: 119 119 109
Width: 1403
GlyphClass: 2
Flags: W
LayerCount: 2
Fore
SplineSet
111 689 m 1,0,-1
 2 689 l 1,1,-1
 2 805 l 1,2,-1
 356 805 l 1,3,-1
 356 689 l 1,4,-1
 240 689 l 1,5,-1
 413 157 l 1,6,-1
 590 689 l 1,7,-1
 495 689 l 1,8,-1
 495 805 l 1,9,-1
 893 805 l 1,10,-1
 893 689 l 1,11,-1
 798 689 l 1,12,-1
 979 146 l 1,13,-1
 1151 689 l 1,14,-1
 1029 689 l 1,15,-1
 1029 805 l 1,16,-1
 1402 805 l 1,17,-1
 1402 689 l 1,18,-1
 1280 689 l 1,19,-1
 1046 0 l 1,20,-1
 904 0 l 1,21,-1
 699 606 l 1,22,-1
 487 0 l 1,23,-1
 344 0 l 1,24,-1
 111 689 l 1,0,-1
EndSplineSet
EndChar

StartChar: x
Encoding: 120 120 110
Width: 989
GlyphClass: 2
Flags: W
LayerCount: 2
Fore
SplineSet
35 0 m 1,0,-1
 35 116 l 1,1,-1
 161 116 l 1,2,-1
 416 413 l 1,3,-1
 173 689 l 1,4,-1
 54 689 l 1,5,-1
 54 805 l 1,6,-1
 444 805 l 1,7,-1
 444 689 l 1,8,-1
 329 689 l 1,9,-1
 493 500 l 1,10,-1
 651 689 l 1,11,-1
 554 689 l 1,12,-1
 554 805 l 1,13,-1
 944 805 l 1,14,-1
 944 689 l 1,15,-1
 807 689 l 1,16,-1
 572 413 l 1,17,-1
 832 116 l 1,18,-1
 948 116 l 1,19,-1
 948 0 l 1,20,-1
 552 0 l 1,21,-1
 552 116 l 1,22,-1
 679 116 l 1,23,-1
 493 327 l 1,24,-1
 320 116 l 1,25,-1
 436 116 l 1,26,-1
 436 0 l 1,27,-1
 35 0 l 1,0,-1
EndSplineSet
EndChar

StartChar: y
Encoding: 121 121 111
Width: 982
GlyphClass: 2
Flags: W
LayerCount: 2
Fore
SplineSet
680 689 m 1,0,-1
 565 689 l 1,1,-1
 565 805 l 1,2,-1
 978 805 l 1,3,-1
 978 689 l 1,4,-1
 849 689 l 1,5,-1
 633 36 l 1,6,7
 571 -156 571 -156 500 -230 c 1,8,9
 416 -320 416 -320 259 -320 c 2,10,-1
 161 -320 l 1,11,-1
 161 -179 l 1,12,-1
 247 -179 l 1,13,14
 330 -180 330 -180 355 -166 c 0,15,16
 404 -139 404 -139 439 -42 c 1,17,-1
 471 43 l 1,18,-1
 400 43 l 1,19,-1
 124 689 l 1,20,-1
 -1 689 l 1,21,-1
 -1 805 l 1,22,-1
 405 805 l 1,23,-1
 405 689 l 1,24,-1
 297 689 l 1,25,-1
 510 148 l 1,26,-1
 680 689 l 1,0,-1
EndSplineSet
EndChar

StartChar: z
Encoding: 122 122 112
Width: 833
GlyphClass: 2
Flags: W
LayerCount: 2
Fore
SplineSet
54 0 m 1,0,-1
 54 116 l 1,1,-1
 575 689 l 1,2,-1
 215 689 l 1,3,-1
 215 537 l 1,4,-1
 94 537 l 1,5,-1
 94 805 l 1,6,-1
 757 805 l 1,7,-1
 757 683 l 1,8,-1
 234 116 l 1,9,-1
 626 116 l 1,10,-1
 626 276 l 1,11,-1
 754 276 l 1,12,-1
 754 0 l 1,13,-1
 54 0 l 1,0,-1
EndSplineSet
EndChar

StartChar: braceleft
Encoding: 123 123 113
Width: 528
GlyphClass: 2
Flags: W
LayerCount: 2
Fore
SplineSet
30 539 m 1,0,1
 118 540 118 540 148 600.5 c 128,-1,2
 178 661 178 661 178 767 c 128,-1,3
 178 873 178 873 182 943.5 c 128,-1,4
 186 1014 186 1014 208 1064 c 0,5,6
 256 1172 256 1172 418 1171 c 1,7,-1
 492 1171 l 1,8,-1
 492 1052 l 1,9,10
 389 1052 389 1052 364.5 1029.5 c 128,-1,11
 340 1007 340 1007 333.5 975.5 c 128,-1,12
 327 944 327 944 327 868 c 0,13,14
 327 680 327 680 303 600 c 128,-1,15
 279 520 279 520 192 475 c 1,16,17
 270 433 270 433 298 358.5 c 128,-1,18
 326 284 326 284 326 165.5 c 128,-1,19
 326 47 326 47 328.5 2 c 128,-1,20
 331 -43 331 -43 346.5 -66 c 128,-1,21
 362 -89 362 -89 395.5 -96 c 128,-1,22
 429 -103 429 -103 492 -103 c 1,23,-1
 492 -223 l 1,24,-1
 419 -223 l 1,25,26
 257 -224 257 -224 209 -120 c 0,27,28
 186 -70 186 -70 182 -1.5 c 128,-1,29
 178 67 178 67 178 139 c 0,30,31
 178 287 178 287 149 349 c 128,-1,32
 120 411 120 411 30 410 c 1,33,-1
 30 539 l 1,0,1
EndSplineSet
EndChar

StartChar: bar
Encoding: 124 124 114
Width: 404
GlyphClass: 2
Flags: W
LayerCount: 2
Fore
SplineSet
141 1153 m 1,0,-1
 263 1153 l 1,1,-1
 263 -96 l 1,2,-1
 141 -96 l 1,3,-1
 141 1153 l 1,0,-1
EndSplineSet
EndChar

StartChar: braceright
Encoding: 125 125 115
Width: 528
GlyphClass: 2
Flags: W
LayerCount: 2
Fore
SplineSet
492 410 m 1,0,1
 402 410 402 410 373 348.5 c 128,-1,2
 344 287 344 287 344 177 c 128,-1,3
 344 67 344 67 340 -1.5 c 128,-1,4
 336 -70 336 -70 313 -120 c 0,5,6
 265 -224 265 -224 103 -223 c 1,7,-1
 30 -223 l 1,8,-1
 30 -103 l 1,9,10
 92 -103 92 -103 125.5 -96.5 c 128,-1,11
 159 -90 159 -90 175 -67.5 c 128,-1,12
 191 -45 191 -45 193.5 -2 c 128,-1,13
 196 41 196 41 196 119 c 0,14,15
 196 280 196 280 223.5 356.5 c 128,-1,16
 251 433 251 433 330 475 c 1,17,18
 243 520 243 520 219 600 c 128,-1,19
 195 680 195 680 195 812 c 128,-1,20
 195 944 195 944 188.5 975.5 c 128,-1,21
 182 1007 182 1007 158 1029.5 c 128,-1,22
 134 1052 134 1052 30 1052 c 1,23,-1
 30 1171 l 1,24,-1
 104 1171 l 2,25,26
 266 1171 266 1171 314 1065 c 0,27,28
 344 997 344 997 344 806 c 0,29,30
 344 661 344 661 370 607 c 0,31,32
 402 539 402 539 492 539 c 1,33,-1
 492 410 l 1,0,1
EndSplineSet
EndChar

StartChar: asciitilde
Encoding: 126 126 116
Width: 1062
GlyphClass: 2
Flags: W
LayerCount: 2
Fore
SplineSet
775 585 m 0,0,1
 862 585 862 585 924 651 c 1,2,-1
 987 573 l 1,3,4
 906 441 906 441 778 441 c 0,5,6
 720 441 720 441 658 462.5 c 128,-1,7
 596 484 596 484 534 509.5 c 128,-1,8
 472 535 472 535 411 556.5 c 128,-1,9
 350 578 350 578 294 578 c 0,10,11
 198 578 198 578 132 496 c 1,12,-1
 77 573 l 1,13,14
 171 709 171 709 307 709 c 0,15,16
 364 709 364 709 424 689.5 c 128,-1,17
 484 670 484 670 544 647 c 128,-1,18
 604 624 604 624 662.5 604.5 c 128,-1,19
 721 585 721 585 775 585 c 0,0,1
EndSplineSet
EndChar

StartChar: cent
Encoding: 162 162 118
Width: 899
GlyphClass: 2
Flags: W
LayerCount: 2
Fore
SplineSet
300.5 788.5 m 128,-1,1
 375 820 375 820 441 820 c 128,-1,2
 507 820 507 820 545 810 c 1,3,-1
 671 1171 l 1,4,-1
 748 1153 l 1,5,-1
 617 781 l 1,6,7
 672 749 672 749 691 713 c 1,8,-1
 687 805 l 1,9,-1
 820 805 l 1,10,-1
 820 517 l 1,11,-1
 691 517 l 1,12,13
 666 631 666 631 579 672 c 1,14,-1
 385 118 l 1,15,16
 424 107 424 107 468 107 c 0,17,18
 649 107 649 107 740 246 c 1,19,-1
 829 157 l 1,20,21
 713 -19 713 -19 464 -19 c 0,22,23
 402 -19 402 -19 342 -4 c 1,24,-1
 232 -320 l 1,25,-1
 156 -303 l 1,26,-1
 270 23 l 1,27,28
 164 76 164 76 110 180 c 128,-1,29
 56 284 56 284 56.5 387 c 128,-1,30
 57 490 57 490 87.5 567.5 c 128,-1,31
 118 645 118 645 172 701 c 128,-1,0
 226 757 226 757 300.5 788.5 c 128,-1,1
503 692 m 1,32,33
 487 694 487 694 471 694 c 0,34,35
 347 694 347 694 281.5 616 c 128,-1,36
 216 538 216 538 216 384 c 128,-1,37
 216 230 216 230 315 154 c 1,38,-1
 503 692 l 1,32,33
EndSplineSet
EndChar

StartChar: sterling
Encoding: 163 163 119
Width: 993
GlyphClass: 2
Flags: W
LayerCount: 2
Fore
SplineSet
423 319 m 0,0,1
 423 404 423 404 349 529 c 1,2,-1
 132 529 l 1,3,-1
 132 645 l 1,4,-1
 287 645 l 1,5,6
 229 766 229 766 229 850 c 0,7,8
 229 1005 229 1005 321.5 1088.5 c 128,-1,9
 414 1172 414 1172 572 1171 c 1,10,11
 800 1171 800 1171 866 990 c 0,12,13
 886 933 886 933 887 863 c 1,14,-1
 752 863 l 1,15,16
 752 1052 752 1052 579 1052 c 0,17,18
 479 1052 479 1052 425 1006 c 128,-1,19
 371 960 371 960 371 886.5 c 128,-1,20
 371 813 371 813 395.5 757.5 c 128,-1,21
 420 702 420 702 450 645 c 1,22,-1
 818 645 l 1,23,-1
 818 529 l 1,24,-1
 505 529 l 1,25,26
 539 445 539 445 539 366 c 128,-1,27
 539 287 539 287 499 207 c 1,28,29
 526 190 526 190 552 174 c 0,30,31
 638 122 638 122 690 122 c 128,-1,32
 742 122 742 122 772 134 c 0,33,34
 822 154 822 154 832 218 c 1,35,36
 838 249 838 249 841 290 c 1,37,-1
 934 290 l 1,38,39
 934 132 934 132 884 57 c 128,-1,40
 834 -18 834 -18 701 -18 c 0,41,42
 606 -18 606 -18 509 50 c 0,43,44
 478 72 478 72 444 98 c 1,45,46
 367 -18 367 -18 261 -18 c 128,-1,47
 155 -18 155 -18 103 31 c 128,-1,48
 51 80 51 80 51 151 c 128,-1,49
 51 222 51 222 105 280 c 128,-1,50
 159 338 159 338 246 338 c 128,-1,51
 333 338 333 338 416 261 c 1,52,53
 423 288 423 288 423 319 c 0,0,1
373 163 m 1,54,55
 281 238 281 238 234 247 c 1,56,57
 200 247 200 247 179 219.5 c 128,-1,58
 158 192 158 192 158 154 c 0,59,60
 158 94 158 94 208 72 c 0,61,62
 224 64 224 64 254 65 c 1,63,64
 314 65 314 65 373 163 c 1,54,55
EndSplineSet
EndChar

StartChar: currency
Encoding: 164 164 120
Width: 929
GlyphClass: 2
Flags: W
LayerCount: 2
Fore
SplineSet
204 601 m 1,0,1
 129 691 129 691 129 808 c 128,-1,2
 129 925 129 925 202 1007 c 1,3,-1
 122 1088 l 1,4,-1
 191 1157 l 1,5,-1
 277 1071 l 1,6,7
 362 1124 362 1124 464 1124 c 0,8,9
 567 1124 567 1124 652 1069 c 1,10,-1
 740 1157 l 1,11,-1
 809 1088 l 1,12,-1
 726 1005 l 1,13,14
 798 919 798 919 798 805.5 c 128,-1,15
 798 692 798 692 724 603 c 1,16,-1
 809 519 l 1,17,-1
 740 451 l 1,18,-1
 650 539 l 1,19,20
 570 486 570 486 465 486 c 128,-1,21
 360 486 360 486 279 538 c 1,22,-1
 191 451 l 1,23,-1
 122 519 l 1,24,-1
 204 601 l 1,0,1
321 660.5 m 128,-1,26
 373 600 373 600 465 600 c 128,-1,27
 557 600 557 600 607.5 660.5 c 128,-1,28
 658 721 658 721 658 802 c 0,29,30
 658 936 658 936 548 988 c 0,31,32
 512 1006 512 1006 463.5 1006 c 128,-1,33
 415 1006 415 1006 378 988 c 0,34,35
 342 970 342 970 318 942 c 0,36,37
 270 886 270 886 269.5 803.5 c 128,-1,25
 269 721 269 721 321 660.5 c 128,-1,26
EndSplineSet
EndChar

StartChar: yen
Encoding: 165 165 121
Width: 1130
GlyphClass: 2
Flags: W
LayerCount: 2
Fore
SplineSet
327 0 m 1,0,-1
 327 116 l 1,1,-1
 486 116 l 1,2,-1
 486 297 l 1,3,-1
 249 297 l 1,4,-1
 249 414 l 1,5,-1
 486 414 l 1,6,-1
 486 503 l 1,7,-1
 249 503 l 1,8,-1
 249 622 l 1,9,-1
 421 622 l 1,10,-1
 128 1037 l 1,11,-1
 -18 1037 l 1,12,-1
 -18 1153 l 1,13,-1
 454 1153 l 1,14,-1
 454 1037 l 1,15,-1
 304 1037 l 1,16,-1
 578 648 l 1,17,-1
 835 1037 l 1,18,-1
 685 1037 l 1,19,-1
 685 1153 l 1,20,-1
 1145 1153 l 1,21,-1
 1145 1037 l 1,22,-1
 989 1037 l 1,23,-1
 708 622 l 1,24,-1
 885 622 l 1,25,-1
 885 503 l 1,26,-1
 646 503 l 1,27,-1
 646 414 l 1,28,-1
 885 414 l 1,29,-1
 885 297 l 1,30,-1
 646 297 l 1,31,-1
 646 116 l 1,32,-1
 810 116 l 1,33,-1
 810 0 l 1,34,-1
 327 0 l 1,0,-1
EndSplineSet
EndChar

StartChar: brokenbar
Encoding: 166 166 122
Width: 404
GlyphClass: 2
Flags: W
LayerCount: 2
Fore
SplineSet
263 1153 m 1,0,-1
 263 689 l 1,1,-1
 141 689 l 1,2,-1
 141 1153 l 1,3,-1
 263 1153 l 1,0,-1
263 446 m 1,4,-1
 263 -18 l 1,5,-1
 141 -18 l 1,6,-1
 141 446 l 1,7,-1
 263 446 l 1,4,-1
EndSplineSet
EndChar

StartChar: section
Encoding: 167 167 123
Width: 877
GlyphClass: 2
Flags: W
LayerCount: 2
Fore
SplineSet
248 674 m 1,0,1
 118 752 118 752 118 899 c 0,2,3
 118 1014 118 1014 213 1093 c 128,-1,4
 308 1172 308 1172 450 1171 c 1,5,6
 630 1171 630 1171 722 1060 c 0,7,8
 754 1022 754 1022 770 969 c 1,9,-1
 645 924 l 1,10,11
 608 1053 608 1053 466 1053.5 c 128,-1,12
 324 1054 324 1054 274 970 c 0,13,14
 258 944 258 944 258.5 906.5 c 128,-1,15
 259 869 259 869 282.5 837.5 c 128,-1,16
 306 806 306 806 345 782 c 128,-1,17
 384 758 384 758 433 738 c 256,18,19
 482 718 482 718 534 698 c 0,20,21
 664 647 664 647 723 599 c 0,22,23
 809 528 809 528 809 419 c 0,24,25
 809 273 809 273 650 173 c 1,26,27
 781 96 781 96 781 -35 c 128,-1,28
 781 -166 781 -166 692.5 -243 c 128,-1,29
 604 -320 604 -320 481 -320 c 0,30,31
 262 -320 262 -320 160 -160 c 1,32,-1
 262 -77 l 1,33,34
 324 -197 324 -197 468 -197 c 1,35,36
 544 -196 544 -196 592 -157 c 128,-1,37
 640 -118 640 -118 640 -67 c 128,-1,38
 640 -16 640 -16 616.5 14 c 128,-1,39
 593 44 593 44 554 68 c 0,40,41
 516 91 516 91 466 110 c 0,42,43
 313 169 313 169 263 193 c 0,44,45
 88 280 88 280 88 431 c 0,46,47
 88 502 88 502 126 560 c 128,-1,48
 164 618 164 618 248 674 c 1,0,1
560 220 m 1,49,50
 685 285 685 285 685 388 c 0,51,52
 685 439 685 439 653.5 470.5 c 128,-1,53
 622 502 622 502 572 526.5 c 128,-1,54
 522 551 522 551 458.5 573 c 128,-1,55
 395 595 395 595 331 626 c 1,56,57
 268 588 268 588 240.5 550 c 128,-1,58
 213 512 213 512 213 462.5 c 128,-1,59
 213 413 213 413 242.5 381 c 128,-1,60
 272 349 272 349 321 324.5 c 128,-1,61
 370 300 370 300 432.5 276.5 c 128,-1,62
 495 253 495 253 560 220 c 1,49,50
EndSplineSet
EndChar

StartChar: dieresis
Encoding: 168 168 124
Width: 572
GlyphClass: 2
Flags: W
LayerCount: 2
Fore
SplineSet
523 1101 m 1,0,-1
 523 948 l 1,1,-1
 371 948 l 1,2,-1
 371 1101 l 1,3,-1
 523 1101 l 1,0,-1
212 1101 m 1,4,-1
 212 948 l 1,5,-1
 58 948 l 1,6,-1
 58 1101 l 1,7,-1
 212 1101 l 1,4,-1
EndSplineSet
EndChar

StartChar: copyright
Encoding: 169 169 125
Width: 1423
GlyphClass: 2
Flags: W
LayerCount: 2
Fore
SplineSet
658 1171 m 256,0,1
 941 1171 941 1171 1099.5 993.5 c 128,-1,2
 1258 816 1258 816 1258 575 c 0,3,4
 1258 333 1258 333 1099.5 157.5 c 128,-1,5
 941 -18 941 -18 658 -18 c 256,6,7
 375 -18 375 -18 216.5 157.5 c 128,-1,8
 58 333 58 333 58 575 c 0,9,10
 58 816 58 816 216.5 993.5 c 128,-1,11
 375 1171 375 1171 658 1171 c 256,0,1
301 927.5 m 128,-1,13
 174 778 174 778 174 575 c 256,14,15
 174 372 174 372 301.5 223 c 128,-1,16
 429 74 429 74 656.5 74 c 128,-1,17
 884 74 884 74 1012 223 c 128,-1,18
 1140 372 1140 372 1141 575 c 1,19,20
 1140 778 1140 778 1013 927.5 c 128,-1,21
 886 1077 886 1077 657 1077 c 128,-1,12
 428 1077 428 1077 301 927.5 c 128,-1,13
656 368 m 0,22,23
 790 368 790 368 853 469 c 1,24,-1
 917 404 l 1,25,26
 837 277 837 277 653 277 c 1,27,28
 507 276 507 276 433 368.5 c 128,-1,29
 359 461 359 461 359 586.5 c 128,-1,30
 359 712 359 712 442.5 797.5 c 128,-1,31
 526 883 526 883 636 882.5 c 128,-1,32
 746 882 746 882 798 830 c 0,33,34
 812 816 812 816 817 806 c 1,35,-1
 815 872 l 1,36,-1
 911 872 l 1,37,-1
 911 664 l 1,38,-1
 817 664 l 1,39,40
 787 792 787 792 658 792 c 0,41,42
 567 792 567 792 520.5 736 c 128,-1,43
 474 680 474 680 474 580 c 0,44,45
 474 432 474 432 578 384 c 0,46,47
 612 368 612 368 656 368 c 0,22,23
EndSplineSet
EndChar

StartChar: ordfeminine
Encoding: 170 170 126
Width: 696
GlyphClass: 2
Flags: W
LayerCount: 2
Fore
SplineSet
302 1082 m 0,0,1
 193 1082 193 1082 141 1014 c 1,2,-1
 72 1087 l 1,3,4
 156 1171 156 1171 298 1171.5 c 128,-1,5
 440 1172 440 1172 497 1116 c 128,-1,6
 554 1060 554 1060 554 971 c 2,7,-1
 554 640 l 1,8,-1
 662 640 l 1,9,-1
 662 555 l 1,10,-1
 454 555 l 1,11,-1
 453 617 l 1,12,13
 344 541 344 541 246 540.5 c 128,-1,14
 148 540 148 540 92 592 c 128,-1,15
 36 644 36 644 36 709 c 0,16,17
 36 823 36 823 105.5 865.5 c 128,-1,18
 175 908 175 908 271 908 c 128,-1,19
 367 908 367 908 442 893 c 1,20,-1
 442 966 l 2,21,22
 442 1082 442 1082 302 1082 c 0,0,1
257 622 m 0,23,24
 369 622 369 622 442 689 c 1,25,-1
 442 820 l 1,26,27
 418 820 418 820 382.5 826 c 128,-1,28
 347 832 347 832 305 832 c 0,29,30
 142 832 142 832 142 717 c 0,31,32
 142 678 142 678 171 650 c 128,-1,33
 200 622 200 622 257 622 c 0,23,24
EndSplineSet
EndChar

StartChar: guillemotleft
Encoding: 171 171 127
Width: 1053
GlyphClass: 2
Flags: W
LayerCount: 2
Fore
SplineSet
133 586 m 1,0,-1
 446 942 l 1,1,-1
 549 942 l 1,2,-1
 342 553 l 1,3,-1
 549 164 l 1,4,-1
 446 164 l 1,5,-1
 133 520 l 1,6,-1
 133 586 l 1,0,-1
504 586 m 1,7,-1
 817 942 l 1,8,-1
 920 942 l 1,9,-1
 713 553 l 1,10,-1
 920 164 l 1,11,-1
 817 164 l 1,12,-1
 504 520 l 1,13,-1
 504 586 l 1,7,-1
EndSplineSet
EndChar

StartChar: logicalnot
Encoding: 172 172 128
Width: 1113
GlyphClass: 2
Flags: W
LayerCount: 2
Fore
SplineSet
993 842 m 1,0,-1
 993 304 l 1,1,-1
 876 304 l 1,2,-1
 876 724 l 1,3,-1
 56 724 l 1,4,-1
 56 842 l 1,5,-1
 993 842 l 1,0,-1
EndSplineSet
EndChar

StartChar: registered
Encoding: 174 174 130
Width: 1338
GlyphClass: 2
Flags: W
LayerCount: 2
Fore
SplineSet
668 1171 m 256,0,1
 951 1171 951 1171 1109.5 993.5 c 128,-1,2
 1268 816 1268 816 1268 575 c 0,3,4
 1268 333 1268 333 1109.5 157.5 c 128,-1,5
 951 -18 951 -18 668 -18 c 256,6,7
 385 -18 385 -18 226.5 157.5 c 128,-1,8
 68 333 68 333 68 575 c 0,9,10
 68 816 68 816 226.5 993.5 c 128,-1,11
 385 1171 385 1171 668 1171 c 256,0,1
311 927.5 m 128,-1,13
 184 778 184 778 184 575 c 256,14,15
 184 372 184 372 311.5 223 c 128,-1,16
 439 74 439 74 666.5 74 c 128,-1,17
 894 74 894 74 1022 223 c 128,-1,18
 1150 372 1150 372 1151 575 c 1,19,20
 1150 778 1150 778 1023 927.5 c 128,-1,21
 896 1077 896 1077 667 1077 c 128,-1,12
 438 1077 438 1077 311 927.5 c 128,-1,13
898 733 m 0,22,23
 898 600 898 600 758 572 c 1,24,-1
 885 337 l 1,25,-1
 964 337 l 1,26,-1
 964 269 l 1,27,-1
 827 269 l 1,28,-1
 673 561 l 1,29,-1
 568 561 l 1,30,-1
 568 337 l 1,31,-1
 653 337 l 1,32,-1
 653 269 l 1,33,-1
 393 269 l 1,34,-1
 393 337 l 1,35,-1
 481 337 l 1,36,-1
 481 826 l 1,37,-1
 393 826 l 1,38,-1
 393 895 l 1,39,-1
 692 895 l 2,40,41
 799 895 799 895 848.5 850.5 c 128,-1,42
 898 806 898 806 898 733 c 0,22,23
809 733 m 1,43,44
 809 826 809 826 685 826 c 2,45,-1
 568 826 l 1,46,-1
 568 631 l 1,47,-1
 689 631 l 2,48,49
 784 631 784 631 804 696 c 0,50,51
 810 714 810 714 809 733 c 1,43,44
EndSplineSet
EndChar

StartChar: macron
Encoding: 175 175 131
Width: 593
GlyphClass: 2
Flags: W
LayerCount: 2
Fore
SplineSet
131 1171 m 1,0,-1
 457 1171 l 1,1,-1
 457 1086 l 1,2,-1
 131 1086 l 1,3,-1
 131 1171 l 1,0,-1
EndSplineSet
EndChar

StartChar: degree
Encoding: 176 176 132
Width: 653
GlyphClass: 2
Flags: W
LayerCount: 2
Fore
SplineSet
211 1037.5 m 128,-1,1
 164 990 164 990 165 923 c 1,2,3
 165 817 165 817 262 775 c 0,4,5
 292 762 292 762 326 762 c 0,6,7
 394 762 394 762 441 809 c 128,-1,8
 488 856 488 856 488 921 c 128,-1,9
 488 986 488 986 444 1035.5 c 128,-1,10
 400 1085 400 1085 329 1085 c 128,-1,0
 258 1085 258 1085 211 1037.5 c 128,-1,1
327 1171 m 256,11,12
 435 1171 435 1171 510 1098 c 128,-1,13
 585 1025 585 1025 585 921.5 c 128,-1,14
 585 818 585 818 509 745 c 128,-1,15
 433 672 433 672 327 673 c 1,16,17
 219 673 219 673 143.5 746.5 c 128,-1,18
 68 820 68 820 68 922 c 128,-1,19
 68 1024 68 1024 143.5 1097.5 c 128,-1,20
 219 1171 219 1171 327 1171 c 256,11,12
EndSplineSet
EndChar

StartChar: plusminus
Encoding: 177 177 133
Width: 1145
GlyphClass: 2
Flags: W
LayerCount: 2
Fore
SplineSet
633 672 m 1,0,-1
 633 293 l 1,1,-1
 510 293 l 1,2,-1
 510 672 l 1,3,-1
 133 672 l 1,4,-1
 133 793 l 1,5,-1
 510 793 l 1,6,-1
 510 1171 l 1,7,-1
 633 1171 l 1,8,-1
 633 793 l 1,9,-1
 1012 793 l 1,10,-1
 1012 672 l 1,11,-1
 633 672 l 1,0,-1
1012 0 m 1,12,-1
 133 0 l 1,13,-1
 133 121 l 1,14,-1
 1012 121 l 1,15,-1
 1012 0 l 1,12,-1
EndSplineSet
EndChar

StartChar: uni00B2
Encoding: 178 178 134
Width: 747
GlyphClass: 2
Flags: W
LayerCount: 2
Fore
SplineSet
109 854 m 1,0,1
 109 1171 109 1171 374 1171 c 0,2,3
 521 1171 521 1171 589 1101 c 128,-1,4
 657 1031 657 1031 657 939 c 0,5,6
 657 805 657 805 505 692 c 0,7,8
 462 660 462 660 422 632 c 0,9,10
 321 563 321 563 271.5 514.5 c 128,-1,11
 222 466 222 466 208 401 c 1,12,-1
 559 401 l 1,13,-1
 559 581 l 1,14,-1
 653 581 l 1,15,-1
 653 300 l 1,16,-1
 87 300 l 1,17,18
 87 504 87 504 258 644 c 0,19,20
 305 682 305 682 346 712 c 0,21,22
 445 783 445 783 489 828.5 c 128,-1,23
 533 874 533 874 533 936 c 0,24,25
 533 1070 533 1070 375 1070 c 0,26,27
 287 1070 287 1070 251.5 1020.5 c 128,-1,28
 216 971 216 971 216 854 c 1,29,-1
 109 854 l 1,0,1
EndSplineSet
EndChar

StartChar: uni00B3
Encoding: 179 179 135
Width: 783
GlyphClass: 2
Flags: W
LayerCount: 2
Fore
SplineSet
668 941 m 0,0,1
 668 786 668 786 517 743 c 1,2,3
 605 727 605 727 654 672 c 0,4,5
 702 618 702 618 702 550 c 0,6,7
 702 424 702 424 615.5 353.5 c 128,-1,8
 529 283 529 283 376 283 c 0,9,10
 176 282 176 282 112 434 c 0,11,12
 90 484 90 484 91 554 c 1,13,-1
 201 557 l 1,14,15
 209 475 209 475 256 429 c 128,-1,16
 303 383 303 383 368 383 c 0,17,18
 478 383 478 383 530 424.5 c 128,-1,19
 582 466 582 466 582 520 c 128,-1,20
 582 574 582 574 570 604 c 0,21,22
 536 693 536 693 308 693 c 1,23,-1
 308 792 l 1,24,25
 514 792 514 792 543 867 c 0,26,27
 553 893 553 893 553 926 c 0,28,29
 553 993 553 993 508 1030.5 c 128,-1,30
 463 1068 463 1068 382 1068.5 c 128,-1,31
 301 1069 301 1069 264 1028 c 128,-1,32
 227 987 227 987 223 921 c 1,33,-1
 112 941 l 1,34,35
 116 1045 116 1045 187 1108 c 128,-1,36
 258 1171 258 1171 373 1171 c 0,37,38
 584 1170 584 1170 648 1038 c 0,39,40
 668 996 668 996 668 941 c 0,0,1
EndSplineSet
EndChar

StartChar: acute
Encoding: 180 180 136
Width: 562
GlyphClass: 2
Flags: W
LayerCount: 2
Fore
SplineSet
165 914 m 1,0,-1
 264 1171 l 1,1,-1
 471 1171 l 1,2,-1
 284 914 l 1,3,-1
 165 914 l 1,0,-1
EndSplineSet
EndChar

StartChar: uni00B5
Encoding: 181 181 137
AltUni2: 0003bc.ffffffff.0
Width: 925
GlyphClass: 2
Flags: W
LayerCount: 2
Fore
SplineSet
429 107 m 0,0,1
 564 107 564 107 673 250 c 1,2,-1
 673 689 l 1,3,-1
 528 689 l 1,4,-1
 528 805 l 1,5,-1
 824 805 l 1,6,-1
 824 116 l 1,7,-1
 970 116 l 1,8,-1
 970 0 l 1,9,-1
 678 0 l 1,10,-1
 673 100 l 1,11,12
 464 -19 464 -19 409 -19 c 0,13,14
 404 -19 404 -19 401 -18 c 1,15,16
 328 -18 328 -18 281 4 c 1,17,-1
 281 -368 l 1,18,-1
 152 -368 l 1,19,-1
 152 689 l 1,20,-1
 32 689 l 1,21,-1
 32 805 l 1,22,-1
 304 805 l 1,23,-1
 304 268 l 2,24,25
 304 190 304 190 332 148.5 c 128,-1,26
 360 107 360 107 429 107 c 0,0,1
EndSplineSet
EndChar

StartChar: paragraph
Encoding: 182 182 138
Width: 1096
GlyphClass: 2
Flags: W
LayerCount: 2
Fore
SplineSet
1020 1037 m 1,0,-1
 882 1037 l 1,1,-1
 882 -320 l 1,2,-1
 747 -320 l 1,3,-1
 747 1037 l 1,4,-1
 546 1037 l 1,5,-1
 546 -320 l 1,6,-1
 411 -320 l 1,7,-1
 411 453 l 1,8,9
 244 458 244 458 147 558 c 128,-1,10
 50 658 50 658 50 812 c 0,11,12
 50 967 50 967 154 1069 c 128,-1,13
 258 1171 258 1171 451 1171 c 2,14,-1
 1020 1171 l 1,15,-1
 1020 1037 l 1,0,-1
EndSplineSet
EndChar

StartChar: periodcentered
Encoding: 183 183 139
Width: 414
GlyphClass: 2
Flags: W
LayerCount: 2
Fore
SplineSet
86 657 m 1,0,-1
 313 657 l 1,1,-1
 313 446 l 1,2,-1
 86 446 l 1,3,-1
 86 657 l 1,0,-1
EndSplineSet
EndChar

StartChar: cedilla
Encoding: 184 184 140
Width: 587
GlyphClass: 2
Flags: W
LayerCount: 2
Fore
SplineSet
329 -350 m 0,0,1
 288 -363 288 -363 230.5 -363 c 128,-1,2
 173 -363 173 -363 128 -355 c 1,3,-1
 128 -263 l 1,4,5
 174 -271 174 -271 214 -271 c 0,6,7
 309 -271 309 -271 309 -220 c 128,-1,8
 309 -169 309 -169 211 -160 c 1,9,-1
 269 5 l 1,10,-1
 341 5 l 1,11,-1
 314 -119 l 1,12,13
 442 -134 442 -134 442 -218 c 0,14,15
 442 -314 442 -314 329 -350 c 0,0,1
EndSplineSet
EndChar

StartChar: uni00B9
Encoding: 185 185 141
Width: 476
GlyphClass: 2
Flags: W
LayerCount: 2
Fore
SplineSet
63 392 m 1,0,-1
 186 392 l 1,1,-1
 186 1059 l 1,2,-1
 57 1059 l 1,3,-1
 57 1153 l 1,4,-1
 297 1153 l 1,5,-1
 297 392 l 1,6,-1
 411 392 l 1,7,-1
 411 299 l 1,8,-1
 63 299 l 1,9,-1
 63 392 l 1,0,-1
EndSplineSet
EndChar

StartChar: ordmasculine
Encoding: 186 186 142
Width: 704
GlyphClass: 2
Flags: W
LayerCount: 2
Fore
SplineSet
180 907 m 0,0,1
 180 834 180 834 230 786 c 128,-1,2
 280 738 280 738 353 738 c 0,3,4
 425 738 425 738 475 786 c 0,5,6
 524 834 524 834 524 907 c 0,7,8
 524 978 524 978 475 1026 c 128,-1,9
 426 1074 426 1074 352 1074 c 128,-1,10
 278 1074 278 1074 229 1026.5 c 128,-1,11
 180 979 180 979 180 907 c 0,0,1
68 907 m 0,12,13
 68 1022 68 1022 150 1096 c 128,-1,14
 232 1170 232 1170 353 1171 c 1,15,16
 475 1171 475 1171 556 1096 c 128,-1,17
 637 1021 637 1021 637 907 c 0,18,19
 637 794 637 794 556 718.5 c 128,-1,20
 475 643 475 643 353 643 c 1,21,22
 232 642 232 642 150 718 c 128,-1,23
 68 794 68 794 68 907 c 0,12,13
EndSplineSet
EndChar

StartChar: guillemotright
Encoding: 187 187 143
Width: 1053
GlyphClass: 2
Flags: W
LayerCount: 2
Fore
SplineSet
920 520 m 1,0,-1
 606 164 l 1,1,-1
 504 164 l 1,2,-1
 711 553 l 1,3,-1
 504 942 l 1,4,-1
 606 942 l 1,5,-1
 920 586 l 1,6,-1
 920 520 l 1,0,-1
549 520 m 1,7,-1
 236 164 l 1,8,-1
 133 164 l 1,9,-1
 340 553 l 1,10,-1
 133 942 l 1,11,-1
 236 942 l 1,12,-1
 549 586 l 1,13,-1
 549 520 l 1,7,-1
EndSplineSet
EndChar

StartChar: onequarter
Encoding: 188 188 144
Width: 1665
GlyphClass: 2
Flags: W
LayerCount: 2
Fore
SplineSet
915 1170 m 1,0,-1
 1004 1170 l 1,1,-1
 590 0 l 1,2,-1
 500 0 l 1,3,-1
 915 1170 l 1,0,-1
63 392 m 1,4,-1
 186 392 l 1,5,-1
 186 1059 l 1,6,-1
 57 1059 l 1,7,-1
 57 1153 l 1,8,-1
 297 1153 l 1,9,-1
 297 392 l 1,10,-1
 411 392 l 1,11,-1
 411 299 l 1,12,-1
 63 299 l 1,13,-1
 63 392 l 1,4,-1
1548 94 m 1,14,-1
 1548 0 l 1,15,-1
 1181 0 l 1,16,-1
 1181 94 l 1,17,-1
 1313 94 l 1,18,-1
 1313 254 l 1,19,-1
 942 254 l 1,20,-1
 942 352 l 1,21,-1
 1316 931 l 1,22,-1
 1428 931 l 1,23,-1
 1428 352 l 1,24,-1
 1581 352 l 1,25,-1
 1581 254 l 1,26,-1
 1428 254 l 1,27,-1
 1428 94 l 1,28,-1
 1548 94 l 1,14,-1
1313 352 m 1,29,-1
 1313 765 l 1,30,-1
 1059 352 l 1,31,-1
 1313 352 l 1,29,-1
EndSplineSet
EndChar

StartChar: onehalf
Encoding: 189 189 145
Width: 1690
GlyphClass: 2
Flags: W
LayerCount: 2
Fore
SplineSet
915 1170 m 1,0,-1
 1004 1170 l 1,1,-1
 590 0 l 1,2,-1
 500 0 l 1,3,-1
 915 1170 l 1,0,-1
63 392 m 1,4,-1
 186 392 l 1,5,-1
 186 1059 l 1,6,-1
 57 1059 l 1,7,-1
 57 1153 l 1,8,-1
 297 1153 l 1,9,-1
 297 392 l 1,10,-1
 411 392 l 1,11,-1
 411 299 l 1,12,-1
 63 299 l 1,13,-1
 63 392 l 1,4,-1
1042 539 m 1,14,15
 1042 856 1042 856 1307 856 c 0,16,17
 1454 856 1454 856 1522 786 c 128,-1,18
 1590 716 1590 716 1590 624 c 0,19,20
 1590 490 1590 490 1438 377 c 0,21,22
 1395 346 1395 346 1355 318 c 0,23,24
 1254 249 1254 249 1205 200.5 c 128,-1,25
 1156 152 1156 152 1141 86 c 1,26,-1
 1492 86 l 1,27,-1
 1492 266 l 1,28,-1
 1586 266 l 1,29,-1
 1586 -15 l 1,30,-1
 1020 -15 l 1,31,32
 1020 188 1020 188 1191 328 c 0,33,34
 1238 366 1238 366 1279 396 c 0,35,36
 1380 470 1380 470 1411 502 c 0,37,38
 1466 559 1466 559 1466 621 c 0,39,40
 1466 755 1466 755 1308 755 c 1,41,42
 1220 754 1220 754 1184.5 704.5 c 128,-1,43
 1149 655 1149 655 1149 539 c 1,44,-1
 1042 539 l 1,14,15
EndSplineSet
EndChar

StartChar: threequarters
Encoding: 190 190 146
Width: 1936
GlyphClass: 2
Flags: W
LayerCount: 2
Fore
SplineSet
1146 1170 m 1,0,-1
 1235 1170 l 1,1,-1
 821 0 l 1,2,-1
 731 0 l 1,3,-1
 1146 1170 l 1,0,-1
673 941 m 1,4,5
 673 786 673 786 522 743 c 1,6,7
 610 727 610 727 658 672 c 1,8,9
 707 618 707 618 707 550 c 0,10,11
 707 423 707 423 621 353 c 128,-1,12
 535 283 535 283 381 283 c 0,13,14
 182 282 182 282 118 434 c 0,15,16
 96 484 96 484 96 554 c 1,17,-1
 206 557 l 1,18,19
 214 475 214 475 261 429 c 128,-1,20
 308 383 308 383 373 383 c 0,21,22
 483 383 483 383 535 424.5 c 128,-1,23
 587 466 587 466 587 520 c 0,24,25
 586 574 586 574 574 604 c 0,26,27
 537 693 537 693 313 693 c 1,28,-1
 313 792 l 1,29,30
 519 792 519 792 548 867 c 0,31,32
 558 893 558 893 558 926 c 0,33,34
 558 992 558 992 512.5 1030 c 128,-1,35
 467 1068 467 1068 386.5 1068.5 c 128,-1,36
 306 1069 306 1069 269 1028 c 128,-1,37
 232 987 232 987 228 921 c 1,38,-1
 117 941 l 1,39,40
 121 1045 121 1045 192 1108 c 128,-1,41
 263 1171 263 1171 378 1171 c 0,42,43
 588 1170 588 1170 652 1038 c 0,44,45
 672 996 672 996 673 941 c 1,4,5
1759 94 m 1,46,-1
 1759 0 l 1,47,-1
 1392 0 l 1,48,-1
 1392 94 l 1,49,-1
 1524 94 l 1,50,-1
 1524 254 l 1,51,-1
 1153 254 l 1,52,-1
 1153 352 l 1,53,-1
 1527 931 l 1,54,-1
 1639 931 l 1,55,-1
 1639 352 l 1,56,-1
 1792 352 l 1,57,-1
 1792 254 l 1,58,-1
 1639 254 l 1,59,-1
 1639 94 l 1,60,-1
 1759 94 l 1,46,-1
1524 352 m 1,61,-1
 1524 765 l 1,62,-1
 1270 352 l 1,63,-1
 1524 352 l 1,61,-1
EndSplineSet
EndChar

StartChar: AE
Encoding: 198 198 154
Width: 1733
GlyphClass: 2
Flags: W
LayerCount: 2
Fore
SplineSet
1563 832 m 1,0,-1
 1431 832 l 1,1,-1
 1380 1037 l 1,2,-1
 867 1037 l 1,3,-1
 958 655 l 1,4,-1
 1320 655 l 1,5,-1
 1296 769 l 1,6,-1
 1393 769 l 1,7,-1
 1478 410 l 1,8,-1
 1380 410 l 1,9,-1
 1341 548 l 1,10,-1
 982 548 l 1,11,-1
 1089 116 l 1,12,-1
 1580 116 l 1,13,-1
 1528 328 l 1,14,-1
 1657 328 l 1,15,-1
 1735 0 l 1,16,-1
 744 0 l 1,17,-1
 756 116 l 1,18,-1
 928 116 l 1,19,-1
 854 424 l 1,20,-1
 393 424 l 1,21,-1
 287 116 l 1,22,-1
 441 116 l 1,23,-1
 430 0 l 1,24,-1
 -23 0 l 1,25,-1
 -12 116 l 1,26,-1
 121 116 l 1,27,-1
 496 1037 l 1,28,-1
 394 1037 l 1,29,-1
 410 1153 l 1,30,-1
 1487 1153 l 1,31,-1
 1563 832 l 1,0,-1
825 545 m 1,32,-1
 707 1037 l 1,33,-1
 639 1037 l 1,34,-1
 442 545 l 1,35,-1
 825 545 l 1,32,-1
EndSplineSet
EndChar

StartChar: Eth
Encoding: 208 208 164
Width: 1271
GlyphClass: 2
Flags: W
LayerCount: 2
Fore
SplineSet
1199 596 m 0,0,1
 1199 0 1199 0 599 0 c 2,2,-1
 59 0 l 1,3,-1
 59 116 l 1,4,-1
 218 116 l 1,5,-1
 218 506 l 1,6,-1
 61 506 l 1,7,-1
 61 650 l 1,8,-1
 218 650 l 1,9,-1
 218 1037 l 1,10,-1
 59 1037 l 1,11,-1
 59 1153 l 1,12,-1
 613 1153 l 2,13,14
 1021 1153 1021 1153 1149 854 c 0,15,16
 1199 738 1199 738 1199 596 c 0,0,1
380 650 m 1,17,-1
 578 650 l 1,18,-1
 578 506 l 1,19,-1
 380 506 l 1,20,-1
 380 116 l 1,21,-1
 625 116 l 2,22,23
 832 116 832 116 933 246 c 128,-1,24
 1034 376 1034 376 1034 581 c 0,25,26
 1034 900 1034 900 807 1001 c 0,27,28
 726 1037 726 1037 609 1037 c 2,29,-1
 380 1037 l 1,30,-1
 380 650 l 1,17,-1
EndSplineSet
EndChar

StartChar: multiply
Encoding: 215 215 171
Width: 929
GlyphClass: 2
Flags: W
LayerCount: 2
Fore
SplineSet
390 434 m 1,0,-1
 180 644 l 1,1,-1
 263 727 l 1,2,-1
 473 517 l 1,3,-1
 684 727 l 1,4,-1
 767 644 l 1,5,-1
 556 434 l 1,6,-1
 767 225 l 1,7,-1
 683 143 l 1,8,-1
 473 352 l 1,9,-1
 264 143 l 1,10,-1
 180 225 l 1,11,-1
 390 434 l 1,0,-1
EndSplineSet
EndChar

StartChar: Oslash
Encoding: 216 216 172
Width: 1321
GlyphClass: 2
Flags: W
LayerCount: 2
Fore
SplineSet
349 57 m 1,0,1
 66 216 66 216 66 596 c 0,2,3
 66 700 66 700 107 809 c 128,-1,4
 148 918 148 918 224.5 998.5 c 128,-1,5
 301 1079 301 1079 411.5 1125 c 128,-1,6
 522 1171 522 1171 653.5 1171 c 128,-1,7
 785 1171 785 1171 894 1130 c 1,8,-1
 947 1235 l 1,9,-1
 1041 1192 l 1,10,-1
 987 1085 l 1,11,12
 1256 921 1256 921 1256 554 c 0,13,14
 1256 451 1256 451 1215 342.5 c 128,-1,15
 1174 234 1174 234 1097 154 c 0,16,17
 930 -19 930 -19 660 -19 c 0,18,19
 543 -19 543 -19 443 15 c 1,20,-1
 389 -92 l 1,21,-1
 295 -49 l 1,22,-1
 349 57 l 1,0,1
829 1002 m 1,23,24
 751 1037 751 1037 658 1037 c 0,25,26
 477 1037 477 1037 360 904.5 c 128,-1,27
 243 772 243 772 243 575 c 0,28,29
 243 456 243 456 289 356 c 128,-1,30
 335 256 335 256 418 194 c 1,31,-1
 829 1002 l 1,23,24
1048.5 396.5 m 128,-1,33
 1078 480 1078 480 1078 585.5 c 128,-1,34
 1078 691 1078 691 1036 788 c 128,-1,35
 994 885 994 885 917 948 c 1,36,-1
 509 143 l 1,37,38
 576 116 576 116 665.5 116 c 128,-1,39
 755 116 755 116 832.5 152.5 c 128,-1,40
 910 189 910 189 964.5 251 c 128,-1,32
 1019 313 1019 313 1048.5 396.5 c 128,-1,33
EndSplineSet
EndChar

StartChar: Thorn
Encoding: 222 222 178
Width: 1030
GlyphClass: 2
Flags: W
LayerCount: 2
Fore
SplineSet
63 116 m 1,0,-1
 214 116 l 1,1,-1
 214 1037 l 1,2,-1
 63 1037 l 1,3,-1
 63 1153 l 1,4,-1
 374 1153 l 1,5,-1
 374 1001 l 1,6,-1
 596 1001 l 1,7,8
 812 1002 812 1002 914 886 c 0,9,10
 992 797 992 797 992 672 c 128,-1,11
 992 547 992 547 957 478.5 c 128,-1,12
 922 410 922 410 860 370 c 1,13,14
 748 300 748 300 522 300 c 2,15,-1
 376 300 l 1,16,-1
 376 116 l 1,17,-1
 534 116 l 1,18,-1
 534 0 l 1,19,-1
 63 0 l 1,20,-1
 63 116 l 1,0,-1
374 425 m 1,21,-1
 552 425 l 2,22,23
 772 425 772 425 814 564 c 0,24,25
 826 606 826 606 827 655 c 1,26,27
 827 764 827 764 768.5 819 c 128,-1,28
 710 874 710 874 601 874 c 2,29,-1
 374 874 l 1,30,-1
 374 425 l 1,21,-1
EndSplineSet
EndChar

StartChar: germandbls
Encoding: 223 223 179
Width: 1114
GlyphClass: 2
Flags: W
LayerCount: 2
Fore
SplineSet
596 1047 m 0,0,1
 362 1047 362 1047 362 790 c 2,2,-1
 362 116 l 1,3,-1
 493 116 l 1,4,-1
 493 0 l 1,5,-1
 72 0 l 1,6,-1
 72 116 l 1,7,-1
 222 116 l 1,8,-1
 222 786 l 2,9,10
 222 1068 222 1068 430 1145 c 0,11,12
 500 1171 500 1171 585 1171 c 0,13,14
 741 1171 741 1171 832.5 1093.5 c 128,-1,15
 924 1016 924 1016 925 889 c 1,16,17
 925 696 925 696 748 641 c 1,18,19
 954 607 954 607 1016 453 c 1,20,21
 1061 344 1061 344 1012 208 c 0,22,23
 989 144 989 144 938 98 c 0,24,25
 829 0 829 0 613 0 c 1,26,-1
 613 116 l 1,27,28
 889 116 889 116 889 346 c 1,29,30
 890 504 890 504 722 552 c 0,31,32
 662 570 662 570 573 569 c 1,33,-1
 573 675 l 1,34,35
 680 675 680 675 731 734.5 c 128,-1,36
 782 794 782 794 782 874.5 c 128,-1,37
 782 955 782 955 731.5 1001 c 128,-1,38
 681 1047 681 1047 596 1047 c 0,0,1
EndSplineSet
EndChar

StartChar: ae
Encoding: 230 230 186
Width: 1453
GlyphClass: 2
Flags: W
LayerCount: 2
Fore
SplineSet
1016 -23 m 0,0,1
 813 -23 813 -23 687 103 c 1,2,3
 493 -18 493 -18 332 -16 c 1,4,5
 208 -16 208 -16 132 54 c 128,-1,6
 56 124 56 124 55 221 c 1,7,8
 55 470 55 470 402 470 c 0,9,10
 493 470 493 470 595 450 c 1,11,-1
 595 547 l 2,12,13
 595 709 595 709 399 709 c 0,14,15
 273 709 273 709 214 626 c 1,16,-1
 74 665 l 1,17,18
 168 827 168 827 419 827 c 0,19,20
 629 827 629 827 702 680 c 1,21,22
 826 827 826 827 1010 827.5 c 128,-1,23
 1194 828 1194 828 1294 699.5 c 128,-1,24
 1394 571 1394 571 1394 382 c 2,25,-1
 1394 363 l 1,26,-1
 759 365 l 1,27,28
 782 178 782 178 915 120 c 0,29,30
 960 100 960 100 1019 101 c 1,31,32
 1177 101 1177 101 1266 217 c 1,33,-1
 1394 161 l 1,34,35
 1279 -23 1279 -23 1016 -23 c 0,0,1
1251 467 m 1,36,37
 1224 635 1224 635 1106 693 c 0,38,39
 1066 713 1066 713 1013 713 c 0,40,41
 910 713 910 713 844 644.5 c 128,-1,42
 778 576 778 576 763 467 c 1,43,-1
 1251 467 l 1,36,37
327 96 m 0,44,45
 498 96 498 96 595 178 c 1,46,-1
 595 352 l 1,47,48
 563 353 563 353 514.5 360.5 c 128,-1,49
 466 368 466 368 412 368 c 0,50,51
 196 368 196 368 196 221 c 0,52,53
 196 167 196 167 234.5 131.5 c 128,-1,54
 273 96 273 96 327 96 c 0,44,45
EndSplineSet
EndChar

StartChar: eth
Encoding: 240 240 196
Width: 947
GlyphClass: 2
Flags: W
LayerCount: 2
Fore
SplineSet
455 1171 m 0,0,1
 678 1171 678 1171 785 974 c 1,2,-1
 946 1006 l 1,3,-1
 967 905 l 1,4,-1
 825 877 l 1,5,6
 867 746 867 746 867 588 c 0,7,8
 867 289 867 289 762 135.5 c 128,-1,9
 657 -18 657 -18 454 -18 c 0,10,11
 283 -18 283 -18 184 92 c 128,-1,12
 85 202 85 202 85 362 c 128,-1,13
 85 522 85 522 179 622 c 0,14,15
 274 722 274 722 444 722.5 c 128,-1,16
 614 723 614 723 716 639 c 1,17,18
 716 755 716 755 686 849 c 1,19,-1
 460 804 l 1,20,-1
 440 905 l 1,21,-1
 640 945 l 1,22,23
 569 1045 569 1045 440.5 1045 c 128,-1,24
 312 1045 312 1045 209 969 c 1,25,-1
 154 1082 l 1,26,27
 266 1171 266 1171 455 1171 c 0,0,1
710 509 m 1,28,29
 599 592 599 592 433 592 c 0,30,31
 346 592 346 592 288 528.5 c 128,-1,32
 230 465 230 465 230 362 c 0,33,34
 230 192 230 192 360 135 c 0,35,36
 403 116 403 116 460 116 c 0,37,38
 580 116 580 116 638 215.5 c 128,-1,39
 696 315 696 315 710 509 c 1,28,29
EndSplineSet
EndChar

StartChar: divide
Encoding: 247 247 203
Width: 1164
GlyphClass: 2
Flags: W
LayerCount: 2
Fore
SplineSet
931 593 m 1,0,-1
 931 475 l 1,1,-1
 220 475 l 1,2,-1
 220 593 l 1,3,-1
 931 593 l 1,0,-1
501 944 m 1,4,-1
 654 944 l 1,5,-1
 654 792 l 1,6,-1
 501 792 l 1,7,-1
 501 944 l 1,4,-1
501 275 m 1,8,-1
 654 275 l 1,9,-1
 654 121 l 1,10,-1
 501 121 l 1,11,-1
 501 275 l 1,8,-1
EndSplineSet
EndChar

StartChar: oslash
Encoding: 248 248 204
Width: 966
GlyphClass: 2
Flags: W
LayerCount: 2
Fore
SplineSet
659 15 m 128,-1,1
 580 -18 580 -18 496 -18 c 128,-1,2
 412 -18 412 -18 344 1 c 1,3,-1
 279 -126 l 1,4,-1
 185 -83 l 1,5,-1
 249 43 l 1,6,7
 158 99 158 99 107.5 193 c 128,-1,8
 57 287 57 287 57 388 c 0,9,10
 57 581 57 581 174 700.5 c 128,-1,11
 291 820 291 820 484 820 c 0,12,13
 566 820 566 820 635 796 c 1,14,-1
 702 926 l 1,15,-1
 796 883 l 1,16,-1
 728 751 l 1,17,18
 815 695 815 695 862.5 604 c 128,-1,19
 910 513 910 513 910 414 c 128,-1,20
 910 315 910 315 880 238.5 c 128,-1,21
 850 162 850 162 794 105 c 128,-1,0
 738 48 738 48 659 15 c 128,-1,1
575 678 m 1,22,23
 532 694 532 694 476 694 c 0,24,25
 360 694 360 694 288 611 c 128,-1,26
 216 528 216 528 216 388.5 c 128,-1,27
 216 249 216 249 312 166 c 1,28,-1
 575 678 l 1,22,23
663 624 m 1,29,-1
 404 117 l 1,30,31
 438 107 438 107 491 107 c 0,32,33
 604 107 604 107 677 190 c 128,-1,34
 750 273 750 273 750 407 c 128,-1,35
 750 541 750 541 663 624 c 1,29,-1
EndSplineSet
EndChar

StartChar: thorn
Encoding: 254 254 210
Width: 1026
GlyphClass: 2
Flags: W
LayerCount: 2
Fore
SplineSet
319 707 m 1,0,1
 442 820 442 820 619 820 c 128,-1,2
 796 820 796 820 904 702 c 128,-1,3
 1012 584 1012 584 1013 406 c 128,-1,4
 1014 228 1014 228 904 105 c 128,-1,5
 794 -18 794 -18 614 -18 c 0,6,7
 475 -18 475 -18 373 56 c 0,8,9
 340 80 340 80 318 111 c 1,10,-1
 318 -303 l 1,11,-1
 24 -303 l 1,12,-1
 24 -179 l 1,13,-1
 168 -179 l 1,14,-1
 168 1037 l 1,15,-1
 25 1037 l 1,16,-1
 25 1153 l 1,17,-1
 319 1153 l 1,18,-1
 319 707 l 1,0,1
319 229 m 1,19,20
 489 119 489 119 582 107 c 1,21,22
 706 107 706 107 778 189 c 128,-1,23
 850 271 850 271 850 396 c 0,24,25
 850 522 850 522 776 608 c 128,-1,26
 702 694 702 694 569.5 694 c 128,-1,27
 437 694 437 694 319 564 c 1,28,-1
 319 229 l 1,19,20
EndSplineSet
EndChar

StartChar: hbar
Encoding: 295 295 212
Width: 1024
GlyphClass: 2
Flags: W
LayerCount: 2
Fore
SplineSet
733 528 m 2,0,1
 733 694 733 694 592.5 694 c 128,-1,2
 452 694 452 694 322 607 c 1,3,-1
 322 116 l 1,4,-1
 467 116 l 1,5,-1
 467 0 l 1,6,-1
 21 0 l 1,7,-1
 21 116 l 1,8,-1
 173 116 l 1,9,-1
 173 882 l 1,10,-1
 86 882 l 1,11,-1
 86 967 l 1,12,-1
 173 967 l 1,13,-1
 173 1037 l 1,14,-1
 23 1037 l 1,15,-1
 23 1153 l 1,16,-1
 322 1153 l 1,17,-1
 322 967 l 1,18,-1
 412 967 l 1,19,-1
 412 882 l 1,20,-1
 322 882 l 1,21,-1
 322 726 l 1,22,23
 464 820 464 820 626 820 c 0,24,25
 881 820 881 820 881 556 c 2,26,-1
 881 116 l 1,27,-1
 1025 116 l 1,28,-1
 1025 0 l 1,29,-1
 631 0 l 1,30,-1
 631 116 l 1,31,-1
 733 116 l 1,32,-1
 733 528 l 2,0,1
EndSplineSet
EndChar

StartChar: dotlessi
Encoding: 305 305 215
Width: 509
GlyphClass: 2
Flags: W
LayerCount: 2
Fore
SplineSet
59 113 m 1,0,-1
 194 113 l 1,1,-1
 194 689 l 1,2,-1
 59 689 l 1,3,-1
 59 805 l 1,4,-1
 343 805 l 1,5,-1
 343 113 l 1,6,-1
 479 113 l 1,7,-1
 479 0 l 1,8,-1
 59 0 l 1,9,-1
 59 113 l 1,0,-1
EndSplineSet
EndChar

StartChar: kgreenlandic
Encoding: 312 312 221
Width: 995
GlyphClass: 2
Flags: W
LayerCount: 2
Fore
SplineSet
20 116 m 1,0,-1
 173 116 l 1,1,-1
 173 689 l 1,2,-1
 20 689 l 1,3,-1
 20 805 l 1,4,-1
 321 805 l 1,5,-1
 321 420 l 1,6,-1
 650 689 l 1,7,-1
 511 689 l 1,8,-1
 511 805 l 1,9,-1
 958 805 l 1,10,-1
 958 689 l 1,11,-1
 826 689 l 1,12,-1
 494 405 l 1,13,-1
 836 116 l 1,14,-1
 966 116 l 1,15,-1
 966 0 l 1,16,-1
 545 0 l 1,17,-1
 545 116 l 1,18,-1
 651 116 l 1,19,-1
 321 395 l 1,20,-1
 321 116 l 1,21,-1
 426 116 l 1,22,-1
 426 0 l 1,23,-1
 20 0 l 1,24,-1
 20 116 l 1,0,-1
EndSplineSet
EndChar

StartChar: Lslash
Encoding: 321 321 224
Width: 984
GlyphClass: 2
Flags: W
LayerCount: 2
Fore
SplineSet
59 0 m 1,0,-1
 59 116 l 1,1,-1
 217 116 l 1,2,-1
 217 512 l 1,3,-1
 60 450 l 1,4,-1
 60 579 l 1,5,-1
 217 641 l 1,6,-1
 217 1037 l 1,7,-1
 59 1037 l 1,8,-1
 59 1153 l 1,9,-1
 533 1153 l 1,10,-1
 533 1037 l 1,11,-1
 378 1037 l 1,12,-1
 378 705 l 1,13,-1
 627 805 l 1,14,-1
 627 676 l 1,15,-1
 378 576 l 1,16,-1
 378 116 l 1,17,-1
 788 116 l 1,18,-1
 788 452 l 1,19,-1
 933 452 l 1,20,-1
 933 0 l 1,21,-1
 59 0 l 1,0,-1
EndSplineSet
EndChar

StartChar: lslash
Encoding: 322 322 225
Width: 487
GlyphClass: 2
Flags: W
LayerCount: 2
Fore
SplineSet
21 0 m 1,0,-1
 21 116 l 1,1,-1
 173 116 l 1,2,-1
 173 501 l 1,3,-1
 36 450 l 1,4,-1
 36 579 l 1,5,-1
 173 632 l 1,6,-1
 173 1037 l 1,7,-1
 24 1037 l 1,8,-1
 24 1153 l 1,9,-1
 322 1153 l 1,10,-1
 322 690 l 1,11,-1
 472 748 l 1,12,-1
 472 612 l 1,13,-1
 322 556 l 1,14,-1
 322 116 l 1,15,-1
 455 116 l 1,16,-1
 455 0 l 1,17,-1
 21 0 l 1,0,-1
EndSplineSet
EndChar

StartChar: OE
Encoding: 338 338 228
Width: 1920
GlyphClass: 2
Flags: W
LayerCount: 2
Fore
SplineSet
1017 1057 m 1,0,-1
 1017 1153 l 1,1,-1
 1832 1153 l 1,2,-1
 1832 832 l 1,3,-1
 1700 832 l 1,4,-1
 1700 1037 l 1,5,-1
 1176 1037 l 1,6,-1
 1176 655 l 1,7,-1
 1538 655 l 1,8,-1
 1538 769 l 1,9,-1
 1638 769 l 1,10,-1
 1638 410 l 1,11,-1
 1537 410 l 1,12,-1
 1537 526 l 1,13,-1
 1178 526 l 1,14,-1
 1178 116 l 1,15,-1
 1703 116 l 1,16,-1
 1703 328 l 1,17,-1
 1832 328 l 1,18,-1
 1832 0 l 1,19,-1
 1017 0 l 1,20,-1
 1017 95 l 1,21,22
 872 -18 872 -18 624 -18 c 128,-1,23
 376 -18 376 -18 221 151 c 128,-1,24
 66 320 66 320 67 575 c 1,25,26
 66 832 66 832 221 1001 c 128,-1,27
 376 1170 376 1170 623.5 1170.5 c 128,-1,28
 871 1171 871 1171 1017 1057 c 1,0,-1
1017 933 m 1,29,30
 848 1037 848 1037 664 1037 c 0,31,32
 480 1038 480 1038 362 920 c 128,-1,33
 244 802 244 802 245 577 c 1,34,35
 244 352 244 352 368 234 c 128,-1,36
 492 116 492 116 673 116 c 128,-1,37
 854 116 854 116 1017 235 c 1,38,-1
 1017 933 l 1,29,30
EndSplineSet
EndChar

StartChar: oe
Encoding: 339 339 229
Width: 1648
GlyphClass: 2
Flags: W
LayerCount: 2
Fore
SplineSet
833 172 m 1,0,1
 711 -18 711 -18 482 -18 c 0,2,3
 291 -18 291 -18 174 103 c 128,-1,4
 57 224 57 224 57 402 c 1,5,6
 56 579 56 579 173.5 699.5 c 128,-1,7
 291 820 291 820 484 820 c 0,8,9
 601 820 601 820 690 768.5 c 128,-1,10
 779 717 779 717 834 630 c 1,11,12
 892 718 892 718 984 769 c 128,-1,13
 1076 820 1076 820 1182 820 c 0,14,15
 1380 820 1380 820 1484 691.5 c 128,-1,16
 1588 563 1588 563 1589 365 c 1,17,-1
 910 365 l 1,18,19
 916 248 916 248 992.5 177.5 c 128,-1,20
 1069 107 1069 107 1192.5 107 c 128,-1,21
 1316 107 1316 107 1409 181 c 0,22,23
 1438 204 1438 204 1458 233 c 1,24,-1
 1560 157 l 1,25,26
 1446 -18 1446 -18 1193 -18 c 0,27,28
 1071 -18 1071 -18 980 33.5 c 128,-1,29
 889 85 889 85 833 172 c 1,0,1
676.5 611 m 128,-1,31
 603 694 603 694 482 694 c 0,32,33
 362 694 362 694 289 611 c 128,-1,34
 216 528 216 528 216 401 c 128,-1,35
 216 274 216 274 289 191 c 128,-1,36
 362 108 362 108 482 107 c 1,37,38
 603 108 603 108 676.5 191 c 128,-1,39
 750 274 750 274 750 401 c 128,-1,30
 750 528 750 528 676.5 611 c 128,-1,31
1445 467 m 1,40,41
 1433 568 1433 568 1366 631 c 128,-1,42
 1299 694 1299 694 1191 694 c 0,43,44
 1012 694 1012 694 944 560 c 0,45,46
 922 518 922 518 914 467 c 1,47,-1
 1445 467 l 1,40,41
EndSplineSet
EndChar

StartChar: florin
Encoding: 402 402 240
Width: 916
GlyphClass: 2
Flags: W
LayerCount: 2
Fore
SplineSet
783 939 m 1,0,1
 783 1090 783 1090 705 1090 c 0,2,3
 646 1090 646 1090 615.5 1041.5 c 128,-1,4
 585 993 585 993 565 892 c 2,5,-1
 532 720 l 1,6,-1
 744 720 l 1,7,-1
 727 636 l 1,8,-1
 514 636 l 1,9,-1
 401 60 l 2,10,11
 342 -244 342 -244 168 -302 c 0,12,13
 112 -320 112 -320 52.5 -320 c 128,-1,14
 -7 -320 -7 -320 -54 -307 c 1,15,-1
 -36 -223 l 1,16,17
 24 -235 24 -235 52 -235 c 0,18,19
 119 -235 119 -235 164 -168.5 c 128,-1,20
 209 -102 209 -102 241 61 c 2,21,-1
 355 636 l 1,22,-1
 190 636 l 1,23,-1
 207 720 l 1,24,-1
 369 720 l 1,25,-1
 400 879 l 2,26,27
 428 1019 428 1019 502.5 1095.5 c 128,-1,28
 577 1172 577 1172 698 1172 c 128,-1,29
 819 1172 819 1172 872.5 1138 c 128,-1,30
 926 1104 926 1104 926 1048 c 0,31,32
 926 940 926 940 783 939 c 1,0,1
EndSplineSet
EndChar

StartChar: uni0237
Encoding: 567 567 269
Width: 441
GlyphClass: 2
Flags: W
LayerCount: 2
Fore
SplineSet
11 689 m 1,0,-1
 11 805 l 1,1,-1
 314 805 l 1,2,-1
 314 19 l 2,3,4
 314 -143 314 -143 279 -197.5 c 128,-1,5
 244 -252 244 -252 187 -277.5 c 128,-1,6
 130 -303 130 -303 31 -303 c 2,7,-1
 -60 -303 l 1,8,-1
 -60 -179 l 1,9,-1
 47 -179 l 2,10,11
 113 -179 113 -179 138 -138 c 128,-1,12
 163 -97 163 -97 163 -8 c 2,13,-1
 163 689 l 1,14,-1
 11 689 l 1,0,-1
EndSplineSet
EndChar

StartChar: circumflex
Encoding: 710 710 270
Width: 593
GlyphClass: 2
Flags: W
LayerCount: 2
Fore
SplineSet
58 896 m 1,0,-1
 156 1171 l 1,1,-1
 431 1171 l 1,2,-1
 535 896 l 1,3,-1
 387 896 l 1,4,-1
 294 1126 l 1,5,-1
 201 896 l 1,6,-1
 58 896 l 1,0,-1
EndSplineSet
EndChar

StartChar: caron
Encoding: 711 711 271
Width: 593
GlyphClass: 2
Flags: W
LayerCount: 2
Fore
SplineSet
145 1171 m 1,0,-1
 299 1017 l 1,1,-1
 451 1171 l 1,2,-1
 555 1171 l 1,3,-1
 396 912 l 1,4,-1
 200 912 l 1,5,-1
 38 1171 l 1,6,-1
 145 1171 l 1,0,-1
EndSplineSet
EndChar

StartChar: breve
Encoding: 728 728 272
Width: 584
GlyphClass: 2
Flags: W
LayerCount: 2
Fore
SplineSet
144 1153 m 1,0,1
 165 1035 165 1035 292 1035 c 0,2,3
 352 1035 352 1035 391.5 1065.5 c 128,-1,4
 431 1096 431 1096 439 1153 c 1,5,-1
 550 1153 l 1,6,7
 535 1006 535 1006 391 956 c 0,8,9
 346 940 346 940 292 940 c 0,10,11
 186 940 186 940 114 998 c 128,-1,12
 42 1056 42 1056 34 1153 c 1,13,-1
 144 1153 l 1,0,1
EndSplineSet
EndChar

StartChar: dotaccent
Encoding: 729 729 273
Width: 535
GlyphClass: 2
Flags: W
LayerCount: 2
Fore
SplineSet
268 1125 m 0,0,1
 329 1125 329 1125 352 1072 c 0,2,3
 359 1056 359 1056 359 1038 c 0,4,5
 360 981 360 981 304 957 c 0,6,7
 288 950 288 950 268 950 c 0,8,9
 231 950 231 950 204 976 c 128,-1,10
 177 1002 177 1002 177 1038 c 0,11,12
 176 1075 176 1075 203 1100 c 128,-1,13
 230 1125 230 1125 268 1125 c 0,0,1
EndSplineSet
EndChar

StartChar: ring
Encoding: 730 730 274
Width: 565
GlyphClass: 2
Flags: W
LayerCount: 2
Fore
SplineSet
282 1201 m 1,0,1
 353 1202 353 1202 402 1156 c 128,-1,2
 451 1110 451 1110 451 1042 c 0,3,4
 452 974 452 974 402 928 c 128,-1,5
 352 882 352 882 282 881 c 1,6,7
 211 881 211 881 162.5 927.5 c 128,-1,8
 114 974 114 974 114 1042 c 256,9,10
 114 1110 114 1110 162 1156 c 128,-1,11
 210 1202 210 1202 282 1201 c 1,0,1
282 1140 m 0,12,13
 239 1140 239 1140 208 1112 c 128,-1,14
 177 1084 177 1084 177 1042 c 0,15,16
 178 1000 178 1000 208 972 c 128,-1,17
 238 944 238 944 282 943 c 1,18,19
 351 943 351 943 378 1003 c 0,20,21
 386 1021 386 1021 386 1042 c 0,22,23
 386 1108 386 1108 323 1132 c 0,24,25
 304 1140 304 1140 282 1140 c 0,12,13
EndSplineSet
EndChar

StartChar: ogonek
Encoding: 731 731 275
Width: 587
GlyphClass: 2
Flags: W
LayerCount: 2
Fore
SplineSet
197 0 m 1,0,-1
 311 0 l 1,1,2
 266 -62 266 -62 266 -126 c 0,3,4
 266 -233 266 -233 364 -233 c 0,5,6
 407 -233 407 -233 451 -213 c 1,7,-1
 451 -316 l 1,8,9
 374 -353 374 -353 326 -353 c 0,10,11
 239 -353 239 -353 188 -304 c 128,-1,12
 137 -255 137 -255 137 -176 c 128,-1,13
 137 -97 137 -97 197 0 c 1,0,-1
EndSplineSet
EndChar

StartChar: tilde
Encoding: 732 732 276
Width: 587
GlyphClass: 2
Flags: W
LayerCount: 2
Fore
SplineSet
137 1024 m 0,0,1
 81 1024 81 1024 69 962 c 1,2,-1
 -11 962 l 1,3,4
 2 1119 2 1119 102 1159 c 0,5,6
 132 1171 132 1171 168 1171 c 0,7,8
 218 1171 218 1171 314 1136 c 128,-1,9
 410 1101 410 1101 443 1101 c 0,10,11
 505 1101 505 1101 520 1166 c 1,12,-1
 598 1166 l 1,13,14
 590 1066 590 1066 544 1009.5 c 128,-1,15
 498 953 498 953 427.5 953.5 c 128,-1,16
 357 954 357 954 265 989 c 128,-1,17
 173 1024 173 1024 137 1024 c 0,0,1
EndSplineSet
EndChar

StartChar: hungarumlaut
Encoding: 733 733 277
Width: 587
GlyphClass: 2
Flags: W
LayerCount: 2
Fore
SplineSet
287 899 m 1,0,-1
 377 1171 l 1,1,-1
 567 1171 l 1,2,-1
 382 899 l 1,3,-1
 287 899 l 1,0,-1
25 899 m 1,4,-1
 116 1171 l 1,5,-1
 306 1171 l 1,6,-1
 121 899 l 1,7,-1
 25 899 l 1,4,-1
EndSplineSet
EndChar

StartChar: uni0307
Encoding: 775 775 278
Width: 535
GlyphClass: 2
Flags: W
LayerCount: 2
Fore
SplineSet
268 1125 m 0,0,1
 329 1125 329 1125 352 1072 c 0,2,3
 359 1056 359 1056 359 1038 c 0,4,5
 360 981 360 981 304 957 c 0,6,7
 288 950 288 950 268 950 c 0,8,9
 231 950 231 950 204 976 c 128,-1,10
 177 1002 177 1002 177 1038 c 0,11,12
 176 1075 176 1075 203 1100 c 128,-1,13
 230 1125 230 1125 268 1125 c 0,0,1
EndSplineSet
EndChar

StartChar: uni030F
Encoding: 783 783 279
Width: 587
GlyphClass: 2
Flags: W
LayerCount: 2
Fore
SplineSet
181 899 m 1,0,-1
 -3 1171 l 1,1,-1
 187 1171 l 1,2,-1
 277 899 l 1,3,-1
 181 899 l 1,0,-1
443 899 m 1,4,-1
 258 1171 l 1,5,-1
 448 1171 l 1,6,-1
 538 899 l 1,7,-1
 443 899 l 1,4,-1
EndSplineSet
EndChar

StartChar: uni0311
Encoding: 785 785 280
Width: 584
GlyphClass: 2
Flags: W
LayerCount: 2
Fore
SplineSet
292 1058 m 0,0,1
 165 1058 165 1058 144 940 c 1,2,-1
 34 940 l 1,3,4
 42 1036 42 1036 114 1094 c 128,-1,5
 186 1152 186 1152 292 1153 c 1,6,7
 398 1152 398 1152 469 1094 c 128,-1,8
 540 1036 540 1036 550 940 c 1,9,-1
 439 940 l 1,10,11
 431 997 431 997 391.5 1027.5 c 128,-1,12
 352 1058 352 1058 292 1058 c 0,0,1
EndSplineSet
EndChar

StartChar: uni0326
Encoding: 806 806 281
Width: 554
GlyphClass: 2
Flags: W
LayerCount: 2
Fore
SplineSet
151 -66 m 1,0,-1
 363 -66 l 1,1,-1
 363 -278 l 1,2,3
 362 -454 362 -454 250 -498 c 0,4,5
 210 -514 210 -514 151 -515 c 1,6,-1
 151 -427 l 1,7,8
 208 -415 208 -415 232.5 -382.5 c 128,-1,9
 257 -350 257 -350 257 -278 c 1,10,-1
 151 -278 l 1,11,-1
 151 -66 l 1,0,-1
EndSplineSet
EndChar

StartChar: pi
Encoding: 960 960 282
Width: 1032
GlyphClass: 2
Flags: W
LayerCount: 2
Fore
SplineSet
782 735 m 1,0,-1
 777 492 l 1,1,-1
 775 347 l 2,2,3
 773 271 773 271 773 223 c 0,4,5
 773 143 773 143 797.5 118.5 c 128,-1,6
 822 94 822 94 864 94 c 0,7,8
 889 94 889 94 932 109 c 1,9,-1
 932 27 l 1,10,11
 885 -13 885 -13 808 -13 c 0,12,13
 644 -13 644 -13 644 184 c 0,14,15
 644 325 644 325 682 735 c 1,16,-1
 380 735 l 1,17,-1
 358 279 l 1,18,19
 350 137 350 137 300 68.5 c 128,-1,20
 250 0 250 0 140 0 c 2,21,-1
 68 0 l 1,22,-1
 68 76 l 1,23,24
 203 76 203 76 232 319 c 1,25,26
 243 422 243 422 255.5 526.5 c 128,-1,27
 268 631 268 631 279 735 c 1,28,-1
 221 735 l 2,29,30
 138 735 138 735 127 633 c 1,31,-1
 51 633 l 1,32,33
 51 804 51 804 149 858 c 0,34,35
 184 878 184 878 234 877 c 1,36,-1
 962 877 l 1,37,-1
 962 735 l 1,38,-1
 782 735 l 1,0,-1
EndSplineSet
EndChar

StartChar: endash
Encoding: 8211 8211 283
Width: 874
GlyphClass: 2
Flags: W
LayerCount: 2
Fore
SplineSet
874 484.599609375 m 5,0,-1
 874 367.599609375 l 5,1,-1
 0 367.599609375 l 5,2,-1
 0 484.599609375 l 5,3,-1
 874 484.599609375 l 5,0,-1
EndSplineSet
EndChar

StartChar: emdash
Encoding: 8212 8212 284
Width: 1648
GlyphClass: 2
Flags: W
LayerCount: 2
Fore
SplineSet
1648 484.599609375 m 5,0,-1
 1648 367.599609375 l 5,1,-1
 0 367.599609375 l 5,2,-1
 0 484.599609375 l 5,3,-1
 1648 484.599609375 l 5,0,-1
EndSplineSet
EndChar

StartChar: quoteleft
Encoding: 8216 8216 285
Width: 382
GlyphClass: 2
Flags: W
LayerCount: 2
Fore
SplineSet
299 723 m 1,0,-1
 82 723 l 1,1,-1
 82 934 l 2,2,3
 82 1114 82 1114 196 1156 c 0,4,5
 238 1172 238 1172 299 1171 c 1,6,-1
 299 1084 l 1,7,8
 236 1070 236 1070 212 1038 c 128,-1,9
 188 1006 188 1006 188 934 c 1,10,-1
 299 934 l 1,11,-1
 299 723 l 1,0,-1
EndSplineSet
EndChar

StartChar: quoteright
Encoding: 8217 8217 286
Width: 364
GlyphClass: 2
Flags: W
LayerCount: 2
Fore
SplineSet
82 1153 m 1,0,-1
 299 1153 l 1,1,-1
 299 942 l 1,2,3
 298 762 298 762 184 720 c 0,4,5
 142 704 142 704 82 705 c 1,6,-1
 82 792 l 1,7,8
 146 806 146 806 170 838 c 128,-1,9
 194 870 194 870 193 942 c 1,10,-1
 82 942 l 1,11,-1
 82 1153 l 1,0,-1
EndSplineSet
EndChar

StartChar: quotesinglbase
Encoding: 8218 8218 287
Width: 389
GlyphClass: 2
Flags: W
LayerCount: 2
Fore
SplineSet
82 211 m 1,0,-1
 299 211 l 1,1,-1
 299 0 l 1,2,3
 298 -180 298 -180 184 -222 c 0,4,5
 142 -238 142 -238 82 -237 c 1,6,-1
 82 -150 l 1,7,8
 146 -136 146 -136 170 -104 c 128,-1,9
 194 -72 194 -72 193 0 c 1,10,-1
 82 0 l 1,11,-1
 82 211 l 1,0,-1
EndSplineSet
EndChar

StartChar: quotedblleft
Encoding: 8220 8220 288
Width: 720
GlyphClass: 2
Flags: W
LayerCount: 2
Fore
SplineSet
632 723 m 1,0,-1
 415 723 l 1,1,-1
 415 934 l 1,2,3
 416 1114 416 1114 530 1156 c 0,4,5
 572 1172 572 1172 632 1171 c 1,6,-1
 632 1084 l 1,7,8
 568 1070 568 1070 544 1038 c 128,-1,9
 520 1006 520 1006 521 934 c 1,10,-1
 632 934 l 1,11,-1
 632 723 l 1,0,-1
299 723 m 1,12,-1
 82 723 l 1,13,-1
 82 934 l 2,14,15
 82 1114 82 1114 196 1156 c 0,16,17
 238 1172 238 1172 299 1171 c 1,18,-1
 299 1084 l 1,19,20
 236 1070 236 1070 212 1038 c 128,-1,21
 188 1006 188 1006 188 934 c 1,22,-1
 299 934 l 1,23,-1
 299 723 l 1,12,-1
EndSplineSet
EndChar

StartChar: quotedblright
Encoding: 8221 8221 289
Width: 704
GlyphClass: 2
Flags: W
LayerCount: 2
Fore
SplineSet
82 1153 m 1,0,-1
 299 1153 l 1,1,-1
 299 942 l 1,2,3
 298 762 298 762 184 720 c 0,4,5
 142 704 142 704 82 705 c 1,6,-1
 82 792 l 1,7,8
 146 806 146 806 170 838 c 128,-1,9
 194 870 194 870 193 942 c 1,10,-1
 82 942 l 1,11,-1
 82 1153 l 1,0,-1
415 1153 m 1,12,-1
 632 1153 l 1,13,-1
 632 942 l 2,14,15
 632 762 632 762 518 720 c 0,16,17
 476 704 476 704 415 705 c 1,18,-1
 415 792 l 1,19,20
 478 806 478 806 502 838 c 128,-1,21
 526 870 526 870 526 942 c 1,22,-1
 415 942 l 1,23,-1
 415 1153 l 1,12,-1
EndSplineSet
EndChar

StartChar: quotedblbase
Encoding: 8222 8222 290
Width: 785
GlyphClass: 2
Flags: W
LayerCount: 2
Fore
SplineSet
481 211 m 1,0,-1
 698 211 l 1,1,-1
 698 0 l 2,2,3
 698 -180 698 -180 584 -222 c 0,4,5
 542 -238 542 -238 481 -237 c 1,6,-1
 481 -150 l 1,7,8
 544 -136 544 -136 568 -104 c 128,-1,9
 592 -72 592 -72 592 0 c 1,10,-1
 481 0 l 1,11,-1
 481 211 l 1,0,-1
82 211 m 1,12,-1
 299 211 l 1,13,-1
 299 0 l 1,14,15
 298 -180 298 -180 184 -222 c 0,16,17
 142 -238 142 -238 82 -237 c 1,18,-1
 82 -150 l 1,19,20
 146 -136 146 -136 170 -104 c 128,-1,21
 194 -72 194 -72 193 0 c 1,22,-1
 82 0 l 1,23,-1
 82 211 l 1,12,-1
EndSplineSet
EndChar

StartChar: dagger
Encoding: 8224 8224 291
Width: 918
GlyphClass: 2
Flags: W
LayerCount: 2
Fore
SplineSet
416 -227 m 1,0,1
 416 298 416 298 342 772 c 1,2,-1
 416 1004 l 1,3,-1
 72 946 l 1,4,-1
 72 1122 l 1,5,-1
 416 1069 l 1,6,-1
 362 1556 l 1,7,-1
 559 1556 l 1,8,-1
 502 1069 l 1,9,-1
 846 1122 l 1,10,-1
 846 946 l 1,11,-1
 502 1004 l 1,12,-1
 580 772 l 1,13,14
 502 304 502 304 502 -227 c 1,15,-1
 416 -227 l 1,0,1
EndSplineSet
EndChar

StartChar: daggerdbl
Encoding: 8225 8225 292
Width: 918
GlyphClass: 2
Flags: W
LayerCount: 2
Fore
SplineSet
487 668 m 1,0,1
 509 497 509 497 580 455 c 1,2,-1
 502 223 l 1,3,-1
 846 281 l 1,4,-1
 846 104 l 1,5,-1
 502 158 l 1,6,-1
 559 -227 l 1,7,-1
 362 -227 l 1,8,-1
 416 158 l 1,9,-1
 72 104 l 1,10,-1
 72 281 l 1,11,-1
 416 223 l 1,12,-1
 342 455 l 1,13,14
 410 505 410 505 430 670 c 1,15,16
 409 842 409 842 342 874 c 1,17,-1
 416 1106 l 1,18,-1
 72 1049 l 1,19,-1
 72 1225 l 1,20,-1
 416 1171 l 1,21,-1
 362 1556 l 1,22,-1
 559 1556 l 1,23,-1
 502 1171 l 1,24,-1
 846 1225 l 1,25,-1
 846 1049 l 1,26,-1
 502 1106 l 1,27,-1
 580 874 l 1,28,29
 509 832 509 832 487 668 c 1,0,1
EndSplineSet
EndChar

StartChar: bullet
Encoding: 8226 8226 293
Width: 559
GlyphClass: 2
Flags: W
LayerCount: 2
Fore
SplineSet
280 754 m 0,0,1
 363 754 363 754 422 698 c 128,-1,2
 481 642 481 642 481 562 c 256,3,4
 481 482 481 482 422 425 c 128,-1,5
 363 368 363 368 280 368 c 0,6,7
 196 368 196 368 138 424 c 128,-1,8
 80 480 80 480 80 562 c 256,9,10
 80 644 80 644 138 699 c 128,-1,11
 196 754 196 754 280 754 c 0,0,1
EndSplineSet
EndChar

StartChar: ellipsis
Encoding: 8230 8230 294
Width: 1242
GlyphClass: 2
Flags: W
LayerCount: 2
Fore
SplineSet
313 211 m 1,0,-1
 313 0 l 1,1,-1
 86 0 l 1,2,-1
 86 211 l 1,3,-1
 313 211 l 1,0,-1
727 211 m 1,4,-1
 727 0 l 1,5,-1
 500 0 l 1,6,-1
 500 211 l 1,7,-1
 727 211 l 1,4,-1
1141 211 m 1,8,-1
 1141 0 l 1,9,-1
 914 0 l 1,10,-1
 914 211 l 1,11,-1
 1141 211 l 1,8,-1
EndSplineSet
EndChar

StartChar: guilsinglleft
Encoding: 8249 8249 295
Width: 682
GlyphClass: 2
Flags: W
LayerCount: 2
Fore
SplineSet
133 586 m 1,0,-1
 446 942 l 1,1,-1
 549 942 l 1,2,-1
 342 553 l 1,3,-1
 549 164 l 1,4,-1
 446 164 l 1,5,-1
 133 520 l 1,6,-1
 133 586 l 1,0,-1
EndSplineSet
EndChar

StartChar: guilsinglright
Encoding: 8250 8250 296
Width: 682
GlyphClass: 2
Flags: W
LayerCount: 2
Fore
SplineSet
551 520 m 1,0,-1
 238 164 l 1,1,-1
 135 164 l 1,2,-1
 342 553 l 1,3,-1
 135 942 l 1,4,-1
 238 942 l 1,5,-1
 551 586 l 1,6,-1
 551 520 l 1,0,-1
EndSplineSet
EndChar

StartChar: fraction
Encoding: 8260 8260 297
Width: 793
GlyphClass: 2
Flags: W
LayerCount: 2
Fore
SplineSet
563 1171 m 1,0,-1
 692 1171 l 1,1,-1
 258 -18 l 1,2,-1
 129 -18 l 1,3,-1
 563 1171 l 1,0,-1
EndSplineSet
EndChar

StartChar: uni2074
Encoding: 8308 8308 298
Width: 875
GlyphClass: 2
Flags: W
LayerCount: 2
Fore
SplineSet
713 94 m 1,0,-1
 713 0 l 1,1,-1
 346 0 l 1,2,-1
 346 94 l 1,3,-1
 478 94 l 1,4,-1
 478 254 l 1,5,-1
 107 254 l 1,6,-1
 107 352 l 1,7,-1
 481 931 l 1,8,-1
 593 931 l 1,9,-1
 593 352 l 1,10,-1
 746 352 l 1,11,-1
 746 254 l 1,12,-1
 593 254 l 1,13,-1
 593 94 l 1,14,-1
 713 94 l 1,0,-1
478 352 m 1,15,-1
 478 765 l 1,16,-1
 224 352 l 1,17,-1
 478 352 l 1,15,-1
EndSplineSet
EndChar

StartChar: Euro
Encoding: 8364 8364 299
Width: 1093
GlyphClass: 2
Flags: W
LayerCount: 2
Fore
SplineSet
357 430 m 1,0,1
 469 181 469 181 654 116 c 1,2,3
 804 116 804 116 880 254 c 0,4,5
 908 304 908 304 923 378 c 1,6,-1
 1058 307 l 1,7,8
 1000 127 1000 127 874 46 c 0,9,10
 774 -18 774 -18 662 -18 c 0,11,12
 461 -18 461 -18 337 102.5 c 128,-1,13
 213 223 213 223 180 430 c 1,14,-1
 30 430 l 1,15,-1
 30 544 l 1,16,-1
 169 544 l 1,17,-1
 169 575 l 2,18,19
 169 616 169 616 173 658 c 1,20,-1
 30 658 l 1,21,-1
 30 771 l 1,22,-1
 192 771 l 1,23,24
 258 1049 258 1049 470 1140 c 0,25,26
 542 1171 542 1171 630 1171 c 0,27,28
 791 1171 791 1171 897 1042 c 1,29,-1
 897 1153 l 1,30,-1
 1027 1153 l 1,31,-1
 1027 804 l 1,32,-1
 902 804 l 1,33,34
 782 996 782 996 648 1037 c 1,35,36
 493 1037 493 1037 410 880 c 0,37,38
 384 831 384 831 369 771 c 1,39,-1
 618 771 l 1,40,-1
 618 658 l 1,41,-1
 349 658 l 1,42,43
 346 620 346 620 346 580 c 2,44,-1
 346 544 l 1,45,-1
 618 544 l 1,46,-1
 618 430 l 1,47,-1
 357 430 l 1,0,1
EndSplineSet
EndChar

StartChar: trademark
Encoding: 8482 8482 300
Width: 1986
GlyphClass: 2
Flags: W
LayerCount: 2
Fore
SplineSet
790 1153 m 1,0,-1
 790 898 l 1,1,-1
 685 898 l 1,2,-1
 685 1057 l 1,3,-1
 524 1057 l 1,4,-1
 524 483 l 1,5,-1
 644 483 l 1,6,-1
 644 388 l 1,7,-1
 276 388 l 1,8,-1
 276 483 l 1,9,-1
 396 483 l 1,10,-1
 396 1057 l 1,11,-1
 231 1057 l 1,12,-1
 231 898 l 1,13,-1
 127 898 l 1,14,-1
 127 1153 l 1,15,-1
 790 1153 l 1,0,-1
951 1057 m 1,16,-1
 849 1057 l 1,17,-1
 849 1153 l 1,18,-1
 1128 1153 l 1,19,-1
 1349 634 l 1,20,-1
 1574 1153 l 1,21,-1
 1856 1153 l 1,22,-1
 1856 1057 l 1,23,-1
 1755 1057 l 1,24,-1
 1755 483 l 1,25,-1
 1856 483 l 1,26,-1
 1856 388 l 1,27,-1
 1547 388 l 1,28,-1
 1547 483 l 1,29,-1
 1639 483 l 1,30,-1
 1639 1014 l 1,31,-1
 1367 388 l 1,32,-1
 1328 388 l 1,33,-1
 1057 1012 l 1,34,-1
 1057 483 l 1,35,-1
 1150 483 l 1,36,-1
 1150 388 l 1,37,-1
 849 388 l 1,38,-1
 849 483 l 1,39,-1
 951 483 l 1,40,-1
 951 1057 l 1,16,-1
EndSplineSet
EndChar

StartChar: partialdiff
Encoding: 8706 8706 301
Width: 816
GlyphClass: 2
Flags: W
LayerCount: 2
Fore
SplineSet
653 645 m 1,0,1
 656 647 656 647 656 705 c 2,2,-1
 656 718 l 2,3,4
 656 970 656 970 532 1057 c 0,5,6
 492 1085 492 1085 446 1085 c 0,7,8
 365 1085 365 1085 325 1041 c 128,-1,9
 285 997 285 997 285 932 c 1,10,11
 165 932 165 932 165 1021 c 0,12,13
 165 1091 165 1091 226.5 1136.5 c 128,-1,14
 288 1182 288 1182 388 1182 c 0,15,16
 567 1182 567 1182 656.5 1064.5 c 128,-1,17
 746 947 746 947 746 761 c 0,18,19
 746 446 746 446 651 238 c 0,20,21
 536 -16 536 -16 313 -16 c 0,22,23
 176 -16 176 -16 114 66 c 128,-1,24
 52 148 52 148 53 294 c 128,-1,25
 54 440 54 440 144 584 c 0,26,27
 210 689 210 689 322 734 c 0,28,29
 380 757 380 757 452 757 c 0,30,31
 590 757 590 757 653 645 c 1,0,1
223 255 m 1,32,33
 223 79 223 79 364 79 c 1,34,35
 461 78 461 78 535.5 207 c 128,-1,36
 610 336 610 336 633 512 c 1,37,38
 608 618 608 618 530 656 c 0,39,40
 504 668 504 668 467.5 668 c 128,-1,41
 431 668 431 668 395 648 c 0,42,43
 300 595 300 595 250 430 c 1,44,45
 224 340 224 340 223 255 c 1,32,33
EndSplineSet
EndChar

StartChar: uni2206
Encoding: 8710 8710 302
Width: 996
GlyphClass: 2
Flags: W
LayerCount: 2
Fore
SplineSet
943 0 m 1,0,-1
 48 0 l 1,1,-1
 48 91 l 1,2,-1
 429 1166 l 1,3,-1
 577 1166 l 1,4,-1
 943 102 l 1,5,-1
 943 0 l 1,0,-1
752 117 m 1,6,7
 701 275 701 275 648.5 432.5 c 128,-1,8
 596 590 596 590 558.5 704.5 c 128,-1,9
 521 819 521 819 501.5 877 c 128,-1,10
 482 935 482 935 468 993 c 1,11,12
 446 895 446 895 398 761 c 2,13,-1
 171 117 l 1,14,-1
 752 117 l 1,6,7
EndSplineSet
EndChar

StartChar: product
Encoding: 8719 8719 303
Width: 1299
GlyphClass: 2
Flags: W
LayerCount: 2
Fore
SplineSet
1232 1153 m 1,0,-1
 1232 1077 l 1,1,-1
 1207 1077 l 1,2,3
 1143 1078 1143 1078 1121 1062 c 0,4,5
 1079 1032 1079 1032 1079 964 c 2,6,-1
 1079 200 l 1,7,8
 1082 110 1082 110 1158 98 c 0,9,10
 1181 94 1181 94 1207 94 c 2,11,-1
 1232 94 l 1,12,-1
 1232 18 l 1,13,-1
 752 18 l 1,14,-1
 752 94 l 1,15,-1
 777 94 l 2,16,17
 841 94 841 94 863 110 c 0,18,19
 906 139 906 139 906 208 c 2,20,-1
 906 1064 l 1,21,-1
 386 1064 l 1,22,-1
 386 208 l 2,23,24
 386 110 386 110 466 98 c 0,25,26
 490 94 490 94 516 94 c 2,27,-1
 541 94 l 1,28,-1
 541 18 l 1,29,-1
 61 18 l 1,30,-1
 61 94 l 1,31,-1
 85 94 l 2,32,33
 150 94 150 94 172 110 c 0,34,35
 215 139 215 139 215 208 c 2,36,-1
 215 971 l 1,37,38
 212 1062 212 1062 134 1074 c 0,39,40
 111 1078 111 1078 85 1077 c 1,41,-1
 61 1077 l 1,42,-1
 61 1153 l 1,43,-1
 1232 1153 l 1,0,-1
EndSplineSet
EndChar

StartChar: summation
Encoding: 8721 8721 304
Width: 1132
GlyphClass: 2
Flags: W
LayerCount: 2
Fore
SplineSet
773 -21 m 2,0,1
 902 -21 902 -21 920 129 c 1,2,-1
 927 181 l 1,3,-1
 1019 181 l 1,4,-1
 1011 -179 l 1,5,-1
 62 -179 l 1,6,-1
 62 -96 l 1,7,-1
 473 535 l 1,8,-1
 98 1086 l 1,9,-1
 98 1153 l 1,10,-1
 940 1153 l 1,11,-1
 948 861 l 1,12,-1
 856 861 l 1,13,-1
 848 935 l 1,14,15
 822 1062 822 1062 709 1062 c 2,16,-1
 305 1062 l 1,17,-1
 615 590 l 1,18,-1
 615 532 l 1,19,-1
 252 -21 l 1,20,-1
 773 -21 l 2,0,1
EndSplineSet
EndChar

StartChar: minus
Encoding: 8722 8722 305
Width: 931
GlyphClass: 2
Flags: W
LayerCount: 2
Fore
SplineSet
876 842 m 1,0,-1
 876 724 l 1,1,-1
 56 724 l 1,2,-1
 56 842 l 1,3,-1
 876 842 l 1,0,-1
EndSplineSet
EndChar

StartChar: radical
Encoding: 8730 8730 306
Width: 686
GlyphClass: 2
Flags: W
LayerCount: 2
Fore
SplineSet
415 0 m 1,0,-1
 327 0 l 1,1,-1
 145 513 l 1,2,-1
 39 513 l 1,3,-1
 39 589 l 1,4,-1
 229 589 l 1,5,-1
 380 160 l 1,6,-1
 681 1153 l 1,7,-1
 767 1153 l 1,8,-1
 415 0 l 1,0,-1
EndSplineSet
EndChar

StartChar: infinity
Encoding: 8734 8734 307
Width: 1448
GlyphClass: 2
Flags: W
LayerCount: 2
Fore
SplineSet
393 989 m 1,0,1
 608 989 608 989 737 745 c 1,2,3
 863 983 863 983 1061 983 c 0,4,5
 1200 983 1200 983 1288 875.5 c 128,-1,6
 1376 768 1376 768 1376 598 c 128,-1,7
 1376 428 1376 428 1287 314.5 c 128,-1,8
 1198 201 1198 201 1059 201 c 0,9,10
 850 201 850 201 711 451 c 1,11,12
 584 207 584 207 393 207 c 0,13,14
 252 207 252 207 162 312.5 c 128,-1,15
 72 418 72 418 72 592 c 128,-1,16
 72 766 72 766 161.5 878 c 128,-1,17
 251 990 251 990 393 989 c 1,0,1
920.5 793.5 m 128,-1,19
 859 727 859 727 797 592 c 1,20,21
 854 458 854 458 915.5 391 c 128,-1,22
 977 324 977 324 1065.5 324 c 128,-1,23
 1154 324 1154 324 1209 400.5 c 128,-1,24
 1264 477 1264 477 1264 594 c 0,25,26
 1264 708 1264 708 1207 784 c 128,-1,27
 1150 860 1150 860 1066 860 c 128,-1,18
 982 860 982 860 920.5 793.5 c 128,-1,19
300 352 m 0,28,29
 338 330 338 330 400 330 c 0,30,31
 532 330 532 330 651 598 c 1,32,33
 596 731 596 731 532.5 798.5 c 128,-1,34
 469 866 469 866 382.5 866 c 128,-1,35
 296 866 296 866 241 788 c 128,-1,36
 186 710 186 710 186 596 c 0,37,38
 186 415 186 415 300 352 c 0,28,29
EndSplineSet
EndChar

StartChar: integral
Encoding: 8747 8747 308
Width: 883
GlyphClass: 2
Flags: W
LayerCount: 2
Fore
SplineSet
643 1171 m 0,0,1
 839 1171 839 1171 839 1052 c 0,2,3
 839 958 839 958 712 958 c 1,4,5
 712 1022 712 1022 702 1044 c 0,6,7
 683 1087 683 1087 641 1087 c 128,-1,8
 599 1087 599 1087 578 1050.5 c 128,-1,9
 557 1014 557 1014 538.5 903.5 c 128,-1,10
 520 793 520 793 520 571 c 128,-1,11
 520 349 520 349 518 250 c 0,12,13
 516 152 516 152 508 66 c 0,14,15
 489 -123 489 -123 424 -221.5 c 128,-1,16
 359 -320 359 -320 216 -320 c 0,17,18
 31 -320 31 -320 31 -201 c 0,19,20
 31 -106 31 -106 157 -106 c 1,21,22
 158 -202 158 -202 194 -226 c 0,23,24
 210 -237 210 -237 245 -237 c 0,25,26
 318 -237 318 -237 336 -95 c 1,27,28
 350 4 350 4 349.5 297 c 128,-1,29
 349 590 349 590 359 727 c 1,30,31
 388 1170 388 1170 643 1171 c 0,0,1
EndSplineSet
EndChar

StartChar: approxequal
Encoding: 8776 8776 309
Width: 1149
GlyphClass: 2
Flags: W
LayerCount: 2
Fore
SplineSet
539 899 m 0,0,1
 473 959 473 959 438 983.5 c 128,-1,2
 403 1008 403 1008 353 1008 c 0,3,4
 255 1008 255 1008 233 770 c 1,5,-1
 113 770 l 1,6,7
 128 933 128 933 164 998.5 c 128,-1,8
 200 1064 200 1064 247.5 1096 c 128,-1,9
 295 1128 295 1128 350 1128 c 0,10,11
 431 1128 431 1128 493 1090 c 0,12,13
 556 1051 556 1051 598 1012 c 0,14,15
 675 941 675 941 711 916 c 128,-1,16
 747 891 747 891 795 891 c 128,-1,17
 843 891 843 891 870 952.5 c 128,-1,18
 897 1014 897 1014 911 1128 c 1,19,-1
 1034 1128 l 1,20,21
 1016 966 1016 966 979 900 c 0,22,23
 906 770 906 770 793 770 c 128,-1,24
 680 770 680 770 539 899 c 0,0,1
539 463 m 0,25,26
 450 545 450 545 417.5 558 c 128,-1,27
 385 571 385 571 362 571 c 0,28,29
 302 571 302 571 273 513 c 128,-1,30
 244 455 244 455 233 334 c 1,31,-1
 113 334 l 1,32,33
 128 497 128 497 164 562.5 c 128,-1,34
 200 628 200 628 247.5 660 c 128,-1,35
 295 692 295 692 350 692 c 0,36,37
 431 692 431 692 488 656 c 0,38,39
 544 621 544 621 592 579 c 0,40,41
 681 501 681 501 714 478 c 128,-1,42
 747 455 747 455 795 455 c 128,-1,43
 843 455 843 455 870 516.5 c 128,-1,44
 897 578 897 578 911 692 c 1,45,-1
 1034 692 l 1,46,47
 1016 530 1016 530 979 464 c 0,48,49
 906 334 906 334 793 334 c 128,-1,50
 680 334 680 334 539 463 c 0,25,26
EndSplineSet
EndChar

StartChar: notequal
Encoding: 8800 8800 310
Width: 1145
GlyphClass: 2
Flags: W
LayerCount: 2
Fore
SplineSet
580 993 m 1,0,-1
 637 1212 l 1,1,-1
 756 1212 l 1,2,-1
 698 993 l 1,3,-1
 1012 993 l 1,4,-1
 1012 872 l 1,5,-1
 668 872 l 1,6,-1
 594 590 l 1,7,-1
 1012 590 l 1,8,-1
 1012 469 l 1,9,-1
 563 469 l 1,10,-1
 508 250 l 1,11,-1
 387 250 l 1,12,-1
 444 469 l 1,13,-1
 133 469 l 1,14,-1
 133 590 l 1,15,-1
 475 590 l 1,16,-1
 549 872 l 1,17,-1
 133 872 l 1,18,-1
 133 993 l 1,19,-1
 580 993 l 1,0,-1
EndSplineSet
EndChar

StartChar: lessequal
Encoding: 8804 8804 311
Width: 1145
GlyphClass: 2
Flags: W
LayerCount: 2
Fore
SplineSet
133 696 m 1,0,-1
 133 768 l 1,1,-1
 1012 1241 l 1,2,-1
 1012 1104 l 1,3,-1
 324 731 l 1,4,-1
 1012 362 l 1,5,-1
 1012 225 l 1,6,-1
 133 696 l 1,0,-1
1012 0 m 1,7,-1
 133 0 l 1,8,-1
 133 121 l 1,9,-1
 1012 121 l 1,10,-1
 1012 0 l 1,7,-1
EndSplineSet
EndChar

StartChar: greaterequal
Encoding: 8805 8805 312
Width: 1145
GlyphClass: 2
Flags: W
LayerCount: 2
Fore
SplineSet
133 225 m 1,0,-1
 133 362 l 1,1,-1
 821 731 l 1,2,-1
 133 1104 l 1,3,-1
 133 1241 l 1,4,-1
 1012 768 l 1,5,-1
 1012 696 l 1,6,-1
 133 225 l 1,0,-1
1012 0 m 1,7,-1
 133 0 l 1,8,-1
 133 121 l 1,9,-1
 1012 121 l 1,10,-1
 1012 0 l 1,7,-1
EndSplineSet
EndChar

StartChar: lozenge
Encoding: 9674 9674 313
Width: 1122
GlyphClass: 2
Flags: W
LayerCount: 2
Fore
SplineSet
602 0 m 1,0,-1
 520 0 l 1,1,-1
 61 729 l 1,2,-1
 520 1462 l 1,3,-1
 602 1462 l 1,4,-1
 1061 731 l 1,5,-1
 602 0 l 1,0,-1
563 1309 m 1,6,-1
 209 731 l 1,7,-1
 563 147 l 1,8,-1
 913 731 l 1,9,-1
 563 1309 l 1,6,-1
EndSplineSet
EndChar

StartChar: uniFB01
Encoding: 64257 64257 314
Width: 1029
GlyphClass: 2
Flags: W
LayerCount: 2
Fore
SplineSet
416 1053 m 0,0,1
 336 1053 336 1053 336 934 c 2,2,-1
 336 805 l 1,3,-1
 861 805 l 1,4,-1
 861 116 l 1,5,-1
 997 116 l 1,6,-1
 997 0 l 1,7,-1
 577 0 l 1,8,-1
 577 116 l 1,9,-1
 712 116 l 1,10,-1
 712 689 l 1,11,-1
 336 689 l 1,12,-1
 336 116 l 1,13,-1
 498 116 l 1,14,-1
 498 0 l 1,15,-1
 65 0 l 1,16,-1
 65 116 l 1,17,-1
 185 116 l 1,18,-1
 185 689 l 1,19,-1
 56 689 l 1,20,-1
 56 805 l 1,21,-1
 185 805 l 1,22,-1
 185 943 l 2,23,24
 185 1110 185 1110 323 1156 c 0,25,26
 412 1185 412 1185 492 1160 c 0,27,28
 528 1149 528 1149 555 1124 c 0,29,30
 616 1070 616 1070 616 963 c 1,31,-1
 486 963 l 1,32,33
 486 1034 486 1034 438 1049 c 0,34,35
 426 1053 426 1053 416 1053 c 0,0,1
694 1066 m 0,36,37
 694 1124 694 1124 750 1146 c 0,38,39
 766 1152 766 1152 795 1152.5 c 128,-1,40
 824 1153 824 1153 850.5 1128 c 128,-1,41
 877 1103 877 1103 877 1066 c 256,42,43
 877 1029 877 1029 850.5 1004 c 128,-1,44
 824 979 824 979 795 979 c 0,45,46
 745 979 745 979 719.5 1004 c 128,-1,47
 694 1029 694 1029 694 1066 c 0,36,37
EndSplineSet
EndChar

StartChar: uniFB02
Encoding: 64258 64258 315
Width: 1009
GlyphClass: 2
Flags: W
LayerCount: 2
Fore
SplineSet
561 0 m 1,0,-1
 561 116 l 1,1,-1
 695 116 l 1,2,-1
 695 1037 l 1,3,-1
 416 1037 l 2,4,5
 376 1037 376 1037 363 1024 c 0,6,7
 336 999 336 999 336 934 c 2,8,-1
 336 805 l 1,9,-1
 509 805 l 1,10,-1
 509 689 l 1,11,-1
 336 689 l 1,12,-1
 336 116 l 1,13,-1
 472 116 l 1,14,-1
 472 0 l 1,15,-1
 65 0 l 1,16,-1
 65 116 l 1,17,-1
 185 116 l 1,18,-1
 185 689 l 1,19,-1
 56 689 l 1,20,-1
 56 805 l 1,21,-1
 185 805 l 1,22,-1
 185 943 l 2,23,24
 185 1153 185 1153 418 1153 c 2,25,-1
 844 1153 l 1,26,-1
 844 116 l 1,27,-1
 977 116 l 1,28,-1
 977 0 l 1,29,-1
 561 0 l 1,0,-1
EndSplineSet
EndChar

StartChar: glyph316
Encoding: 65539 -1 316
Width: 593
GlyphClass: 2
Flags: W
LayerCount: 2
Fore
SplineSet
58 896 m 1,0,-1
 156 1171 l 1,1,-1
 431 1171 l 1,2,-1
 535 896 l 1,3,-1
 387 896 l 1,4,-1
 294 1126 l 1,5,-1
 201 896 l 1,6,-1
 58 896 l 1,0,-1
EndSplineSet
EndChar

StartChar: glyph317
Encoding: 65540 -1 317
Width: 430
GlyphClass: 2
Flags: W
LayerCount: 2
Fore
SplineSet
101 559 m 1,0,-1
 328 559 l 1,1,-1
 328 348 l 2,2,3
 328 168 328 168 208 126 c 0,4,5
 164 110 164 110 101 111 c 1,6,-1
 101 198 l 1,7,8
 170 212 170 212 196 245 c 128,-1,9
 222 278 222 278 222 348 c 1,10,-1
 101 348 l 1,11,-1
 101 559 l 1,0,-1
EndSplineSet
EndChar

StartChar: glyph320
Encoding: 65543 -1 320
Width: 562
GlyphClass: 2
Flags: W
LayerCount: 2
Fore
SplineSet
292 914 m 1,0,-1
 105 1171 l 1,1,-1
 312 1171 l 1,2,-1
 411 914 l 1,3,-1
 292 914 l 1,0,-1
EndSplineSet
EndChar

StartChar: glyph321
Encoding: 65544 -1 321
Width: 562
GlyphClass: 2
Flags: W
LayerCount: 2
Fore
SplineSet
165 914 m 1,0,-1
 264 1171 l 1,1,-1
 471 1171 l 1,2,-1
 284 914 l 1,3,-1
 165 914 l 1,0,-1
EndSplineSet
EndChar

StartChar: glyph322
Encoding: 65545 -1 322
Width: 572
GlyphClass: 2
Flags: W
LayerCount: 2
Fore
SplineSet
523 1101 m 1,0,-1
 523 948 l 1,1,-1
 371 948 l 1,2,-1
 371 1101 l 1,3,-1
 523 1101 l 1,0,-1
212 1101 m 1,4,-1
 212 948 l 1,5,-1
 58 948 l 1,6,-1
 58 1101 l 1,7,-1
 212 1101 l 1,4,-1
EndSplineSet
EndChar

StartChar: glyph323
Encoding: 65546 -1 323
Width: 593
GlyphClass: 2
Flags: W
LayerCount: 2
Fore
SplineSet
145 1171 m 1,0,-1
 299 1017 l 1,1,-1
 451 1171 l 1,2,-1
 555 1171 l 1,3,-1
 396 912 l 1,4,-1
 200 912 l 1,5,-1
 38 1171 l 1,6,-1
 145 1171 l 1,0,-1
EndSplineSet
EndChar

StartChar: glyph324
Encoding: 65547 -1 324
Width: 565
GlyphClass: 2
Flags: W
LayerCount: 2
Fore
SplineSet
282 1201 m 1,0,1
 353 1202 353 1202 402 1156 c 128,-1,2
 451 1110 451 1110 451 1042 c 0,3,4
 452 974 452 974 402 928 c 128,-1,5
 352 882 352 882 282 881 c 1,6,7
 211 881 211 881 162.5 927.5 c 128,-1,8
 114 974 114 974 114 1042 c 256,9,10
 114 1110 114 1110 162 1156 c 128,-1,11
 210 1202 210 1202 282 1201 c 1,0,1
282 1140 m 0,12,13
 239 1140 239 1140 208 1112 c 128,-1,14
 177 1084 177 1084 177 1042 c 0,15,16
 178 1000 178 1000 208 972 c 128,-1,17
 238 944 238 944 282 943 c 1,18,19
 351 943 351 943 378 1003 c 0,20,21
 386 1021 386 1021 386 1042 c 0,22,23
 386 1108 386 1108 323 1132 c 0,24,25
 304 1140 304 1140 282 1140 c 0,12,13
EndSplineSet
EndChar

StartChar: glyph325
Encoding: 65548 -1 325
Width: 587
GlyphClass: 2
Flags: W
LayerCount: 2
Fore
SplineSet
137 1042 m 0,0,1
 81 1042 81 1042 69 980 c 1,2,-1
 -11 980 l 1,3,4
 2 1137 2 1137 102 1177 c 0,5,6
 132 1189 132 1189 168 1189 c 0,7,8
 218 1189 218 1189 314 1154 c 128,-1,9
 410 1119 410 1119 443 1119 c 0,10,11
 505 1119 505 1119 520 1184 c 1,12,-1
 598 1184 l 1,13,14
 590 1084 590 1084 544 1027.5 c 128,-1,15
 498 971 498 971 427.5 971.5 c 128,-1,16
 357 972 357 972 265 1007 c 128,-1,17
 173 1042 173 1042 137 1042 c 0,0,1
EndSplineSet
EndChar

StartChar: glyph326
Encoding: 65549 -1 326
Width: 535
GlyphClass: 2
Flags: W
LayerCount: 2
Fore
SplineSet
268 1125 m 0,0,1
 329 1125 329 1125 352 1072 c 0,2,3
 359 1056 359 1056 359 1038 c 0,4,5
 360 981 360 981 304 957 c 0,6,7
 288 950 288 950 268 950 c 0,8,9
 231 950 231 950 204 976 c 128,-1,10
 177 1002 177 1002 177 1038 c 0,11,12
 176 1075 176 1075 203 1100 c 128,-1,13
 230 1125 230 1125 268 1125 c 0,0,1
EndSplineSet
EndChar

